<svg xmlns="http://www.w3.org/2000/svg" xmlns:xlink="http://www.w3.org/1999/xlink" viewBox="0 0 425.92 876.58"><defs><style>.cls-1{fill:url(#New_Gradient_Swatch_6);filter:url(#luminosity-invert);}.cls-2{fill:#fff;}.cls-3{mask:url(#mask);}.cls-4{opacity:0.2;}</style><linearGradient id="New_Gradient_Swatch_6" x1="212.96" y1="876.63" x2="212.96" y2="450.7" gradientUnits="userSpaceOnUse"><stop offset="0" stop-color="#fff"/><stop offset="0.19" stop-color="#fcfcfc"/><stop offset="0.32" stop-color="#f3f3f3"/><stop offset="0.44" stop-color="#e4e4e4"/><stop offset="0.55" stop-color="#cecece"/><stop offset="0.65" stop-color="#b1b1b1"/><stop offset="0.74" stop-color="#8e8e8e"/><stop offset="0.83" stop-color="#656565"/><stop offset="0.92" stop-color="#363636"/><stop offset="1" stop-color="#020202"/><stop offset="1"/></linearGradient><filter id="luminosity-invert" filterUnits="userSpaceOnUse" color-interpolation-filters="sRGB"><feColorMatrix values="-1 0 0 0 1 0 -1 0 0 1 0 0 -1 0 1 0 0 0 1 0"/></filter><mask id="mask" x="0" y="450.7" width="425.92" height="425.92" maskUnits="userSpaceOnUse"><rect class="cls-1" y="450.7" width="425.92" height="425.92"/></mask></defs><title>graph</title><g id="Layer_2" data-name="Layer 2"><g id="Layer_1-2" data-name="Layer 1"><path class="cls-2" d="M89,329.92a19.83,19.83,0,0,0,27.28-6.64l80.64-132.52,61.49,37.42a19.87,19.87,0,0,0,27.29-6.64L372.37,79l.3.18L399.12,95.3c6.21,3.81,9.84,1.13,8.11-6L390.58,20.76c-1.76-7.05-1.59-7.05-8.66-5.33L313.24,32.14c-4.32,1.06-6.27,3.14-5.7,5.47.37,1.48,1.73,3,4.18,4.51l26.72,16.27L262.05,183.93l-61.49-37.42a19.84,19.84,0,0,0-27.28,6.64l-91,149.48A19.86,19.86,0,0,0,89,329.92Z"/><path class="cls-2" d="M406.07,386.16H39.72V19.86A19.86,19.86,0,0,0,0,19.86V406a19.86,19.86,0,0,0,19.86,19.85h386.2a19.86,19.86,0,1,0,0-39.71Z"/><g class="cls-3"><g class="cls-4"><path class="cls-2" d="M89,546.66a19.83,19.83,0,0,1,27.28,6.64l80.64,132.52,61.49-37.42A19.87,19.87,0,0,1,285.66,655l86.71,142.51.3-.18,26.45-16.09c6.21-3.81,9.84-1.13,8.11,6l-16.64,68.57c-1.76,7.05-1.59,7.05-8.66,5.33l-68.68-16.71c-4.32-1.06-6.27-3.14-5.7-5.47.37-1.48,1.73-3,4.18-4.51l26.72-16.27L262.05,692.65l-61.49,37.42a19.84,19.84,0,0,1-27.28-6.64l-91-149.48A19.86,19.86,0,0,1,89,546.66Z"/><path class="cls-2" d="M406.07,490.42H39.72v366.3a19.86,19.86,0,0,1-39.72,0V470.55A19.86,19.86,0,0,1,19.86,450.7h386.2a19.86,19.86,0,1,1,0,39.71Z"/></g></g></g></g></svg>