<svg xmlns="http://www.w3.org/2000/svg" xmlns:xlink="http://www.w3.org/1999/xlink" viewBox="0 0 351.15 920.24"><defs><style>.cls-1{isolation:isolate;}.cls-2{fill:url(#linear-gradient);}.cls-3{fill:none;}.cls-4{clip-path:url(#clip-path);}.cls-5{clip-path:url(#clip-path-3);}.cls-6{fill:#fff;}.cls-7{mask:url(#mask);}.cls-8{opacity:0.2;}.cls-9{clip-path:url(#clip-path-4);}.cls-10{filter:url(#luminosity-invert);}</style><linearGradient id="linear-gradient" x1="-220.23" y1="156.98" x2="-215.75" y2="156.98" gradientTransform="matrix(0, 100, 100, 0, -15522.38, 22495.68)" gradientUnits="userSpaceOnUse"><stop offset="0"/><stop offset="0.06" stop-color="#212121"/><stop offset="0.16" stop-color="#555"/><stop offset="0.26" stop-color="#828282"/><stop offset="0.37" stop-color="#a9a9a9"/><stop offset="0.48" stop-color="#c8c8c8"/><stop offset="0.59" stop-color="#e0e0e0"/><stop offset="0.71" stop-color="#f2f2f2"/><stop offset="0.84" stop-color="#fcfcfc"/><stop offset="1" stop-color="#fff"/></linearGradient><clipPath id="clip-path" transform="translate(0 0)"><rect class="cls-3" width="351.15" height="920.24"/></clipPath><clipPath id="clip-path-3" transform="translate(0 0)"><rect class="cls-3" width="351.15" height="920.24"/></clipPath><filter id="luminosity-invert" filterUnits="userSpaceOnUse" color-interpolation-filters="sRGB"><feColorMatrix values="-1 0 0 0 1 0 -1 0 0 1 0 0 -1 0 1 0 0 0 1 0"/></filter><mask id="mask" x="0" y="473.14" width="351.15" height="447.1" maskUnits="userSpaceOnUse"><g class="cls-10"><g transform="translate(0 0)"><g class="cls-1"><rect class="cls-2" y="473.14" width="351.15" height="447.1"/></g></g></g></mask><clipPath id="clip-path-4" transform="translate(0 0)"><rect class="cls-3" y="473.14" width="351.15" height="447.1"/></clipPath></defs><title>money</title><g id="Layer_2" data-name="Layer 2"><g id="Layer_1-2" data-name="Layer 1"><g id="Artwork_24" data-name="Artwork 24"><g class="cls-4"><g class="cls-4"><g class="cls-5"><path class="cls-6" d="M246.91,94a8.81,8.81,0,0,1-8.81,8.82h-125a8.82,8.82,0,1,1,0-17.64h125A8.82,8.82,0,0,1,246.91,94" transform="translate(0 0)"/><path class="cls-6" d="M215,70.57c10.51-16.35,17-38.51,17-61.06,0-22.19-28.24,1.39-56.48,1.39s-56.49-23.58-56.49-1.39c0,22.55,6.53,44.71,17,61.06Z" transform="translate(0 0)"/><path class="cls-6" d="M351.13,405.68C345.36,222,300.27,151.13,238.46,117.52H112.7C50.88,151.13,5.79,222,0,405.68c-.73,22.87,17.92,41.41,40.8,41.41H310.34c22.88,0,41.52-18.55,40.8-41.41m-96.92-50.43a61,61,0,0,1-16.73,20.37,80,80,0,0,1-25.08,13.11,96.91,96.91,0,0,1-20.52,4.15v22.4H159.26V391.92a107.68,107.68,0,0,1-16.73-3.71c-11.14-3.48-20.58-8.46-28.06-14.79A63.66,63.66,0,0,1,97.24,350.5a76.8,76.8,0,0,1-6.32-28.95l-.13-4.27h33.73l.35,3.76A41.88,41.88,0,0,0,130.41,339a40.89,40.89,0,0,0,11.74,12.51,51.31,51.31,0,0,0,16.78,7.42l.33.08V295.23a180.25,180.25,0,0,1-23.15-7.31,78.54,78.54,0,0,1-21.3-12.16A46.52,46.52,0,0,1,102,259.21a51.7,51.7,0,0,1-4.19-21.38,52.58,52.58,0,0,1,5.64-24.06,55.88,55.88,0,0,1,15.85-19,76.3,76.3,0,0,1,24-12.19,93.44,93.44,0,0,1,16-3.44V156.42h32.63v23.1a103.82,103.82,0,0,1,14.06,3,77.56,77.56,0,0,1,25.52,12.58,60.34,60.34,0,0,1,17.07,20.32,62.75,62.75,0,0,1,6.65,27l.14,4.28H221.51l-.42-3.68c-2-17.14-11.52-27.3-29.2-31v54.75l2.17.47a181.89,181.89,0,0,1,19.1,5.36,112.53,112.53,0,0,1,17.78,7.78,63.25,63.25,0,0,1,15,11.34,50.65,50.65,0,0,1,10.42,16,55.71,55.71,0,0,1,3.84,21.41,57.5,57.5,0,0,1-6,26.11" transform="translate(0 0)"/><path class="cls-6" d="M223.06,318.49c-1.81-3.17-4.9-6-9.17-8.47a85.52,85.52,0,0,0-18.49-7.25q-1.7-.48-3.51-1v57.69a70.54,70.54,0,0,0,7.45-1.43,46.24,46.24,0,0,0,14.53-6.23,28.61,28.61,0,0,0,8.89-9.38,24,24,0,0,0,3.05-12.11,23.63,23.63,0,0,0-2.75-11.86" transform="translate(0 0)"/><path class="cls-6" d="M159.26,212.14a43.27,43.27,0,0,0-16.54,6.24c-7,4.73-10.34,10.91-10.34,18.91a20.27,20.27,0,0,0,1.79,9,16.21,16.21,0,0,0,6.14,6.2,59,59,0,0,0,13.35,5.77c1.74.55,3.61,1.09,5.6,1.63Z" transform="translate(0 0)"/><g class="cls-7"><g class="cls-8"><g class="cls-9"><path class="cls-6" d="M223.06,601.75c-1.81,3.17-4.9,6-9.17,8.47a85.54,85.54,0,0,1-18.49,7.25q-1.7.48-3.51,1V560.75a69.41,69.41,0,0,1,7.45,1.43,46.23,46.23,0,0,1,14.53,6.23,28.62,28.62,0,0,1,8.89,9.38,24,24,0,0,1,3.05,12.1,23.64,23.64,0,0,1-2.75,11.87" transform="translate(0 0)"/><path class="cls-6" d="M246.91,826.19a8.81,8.81,0,0,0-8.81-8.82h-125a8.82,8.82,0,1,0,0,17.64h125a8.82,8.82,0,0,0,8.81-8.82" transform="translate(0 0)"/><path class="cls-6" d="M215,849.67c10.51,16.35,17,38.51,17,61.06,0,22.19-28.24-1.39-56.48-1.39s-56.49,23.58-56.49,1.39c0-22.55,6.53-44.71,17-61.06Z" transform="translate(0 0)"/><path class="cls-6" d="M310.34,473.14H40.82C17.94,473.14-.7,491.69,0,514.56,5.79,698.28,50.89,769.11,112.7,802.72H238.46c61.81-33.61,106.9-104.44,112.67-288.16.72-22.87-17.92-41.42-40.8-41.42m-50.1,118a55.78,55.78,0,0,1-3.83,21.41,50.69,50.69,0,0,1-10.42,16,62.82,62.82,0,0,1-15,11.33,112.51,112.51,0,0,1-17.78,7.79,184.16,184.16,0,0,1-19.1,5.35l-2.17.47v54.75c17.68-3.67,27.25-13.81,29.2-31l.42-3.68h33.81l-.14,4.28a62.81,62.81,0,0,1-6.64,27,60.41,60.41,0,0,1-17.07,20.32,77.59,77.59,0,0,1-25.52,12.57,103,103,0,0,1-14.06,3v23.11H159.26V741.05a94.25,94.25,0,0,1-16-3.44,76.35,76.35,0,0,1-24-12.19,55.88,55.88,0,0,1-15.85-19,52.58,52.58,0,0,1-5.65-24.06A51.69,51.69,0,0,1,102,661a46.43,46.43,0,0,1,12.82-16.56,78.33,78.33,0,0,1,21.3-12.17,180.51,180.51,0,0,1,23.15-7.3V561.26l-.33.08a51.5,51.5,0,0,0-16.78,7.42,41,41,0,0,0-11.74,12.51,41.83,41.83,0,0,0-5.53,17.93l-.36,3.75H90.8l.13-4.27a76.89,76.89,0,0,1,6.32-28.95,63.67,63.67,0,0,1,17.24-22.91C122,540.5,131.4,535.52,142.54,532a109.2,109.2,0,0,1,16.72-3.71V505h32.63v22.41a95.63,95.63,0,0,1,20.52,4.15,79.75,79.75,0,0,1,25.08,13.11A60.89,60.89,0,0,1,254.22,565a57.49,57.49,0,0,1,6,26.11" transform="translate(0 0)"/><path class="cls-6" d="M159.26,708.1a43.27,43.27,0,0,1-16.54-6.24c-7-4.72-10.34-10.91-10.34-18.91a20.25,20.25,0,0,1,1.79-9,16.15,16.15,0,0,1,6.14-6.2A59,59,0,0,1,153.66,662c1.74-.55,3.61-1.09,5.6-1.63Z" transform="translate(0 0)"/></g></g></g></g></g></g></g></g></g></svg>