<svg xmlns="http://www.w3.org/2000/svg" viewBox="0 0 843.24 727.22"><defs><style>.cls-1{fill:#fff;stroke:#000;stroke-miterlimit:10;}</style></defs><title>perdiem-home-stroke</title><g id="Layer_2" data-name="Layer 2"><g id="Layer_1-2" data-name="Layer 1"><g id="Layer_2-2" data-name="Layer 2"><g id="Layer_1-2-2" data-name="Layer 1-2"><path class="cls-1" d="M522,1.23c-.7,1.24.88,1.94,2.65,1.32,1.14-.44,1.23-.71.26-1.32C523.43.26,522.64.26,522,1.23Z"/><path class="cls-1" d="M742.36,7.84c-.88.7-1.41,1.5-1.15,1.85.71.62,5.2-1.32,5.2-2.38S744.3,6.43,742.36,7.84Z"/><path class="cls-1" d="M758.32,7.5a2,2,0,0,0,.09,1.85c.53,1,2-.53,2.11-2.12C760.5,6.34,758.94,6.43,758.32,7.5Z"/><path class="cls-1" d="M427.76,8.1c-.35.35-3.35,1-6.53,1.32-8.91,1-23.28,3.09-25.75,3.79A11.09,11.09,0,0,0,392,15.06c-2.56,2.2-16.84,9.17-18.87,9.17-1.06,0-4.85,1.76-8.47,4s-7.41,4-8.29,4a5,5,0,0,0-3.09,1.23c-3.53,3.17-15.43,8.82-23.9,11.55-6.7,2-12.26,4.06-25.57,9.26-2.2.88-5.55,2-7.49,2.64a94.36,94.36,0,0,0-9,3.7,43.08,43.08,0,0,1-8.55,3.09,9.25,9.25,0,0,0-4.58,2.12,4.46,4.46,0,0,1-2.73,1.68c-2.82,0-11.55,5-15.61,9-2.47,2.29-4.67,4.23-5,4.23a12.13,12.13,0,0,0-3.17,2.12,68.33,68.33,0,0,1-7.76,4.94c-2.91,1.59-6.35,3.61-7.67,4.5A8.23,8.23,0,0,1,229.11,94c-.79,0-7.23,4.14-10.84,6.88a15.47,15.47,0,0,1-4.23,2.29,7,7,0,0,0-3.26,3.17c-1.41,2.65-4.23,4.32-11,6.17-6.44,1.85-10.4,1.23-14.2-2.2a62.09,62.09,0,0,0-5.82-4.5c-1.32-.88-4.06-2.82-6-4.32a44.94,44.94,0,0,0-5.91-4.06,45.44,45.44,0,0,1-7.05-5.73,70.67,70.67,0,0,0-8.38-6.88c-2.12-1.23-3.79-2.65-3.79-3.09s-1.5-1.5-3.26-2.29a40,40,0,0,1-7.23-5.29,40.59,40.59,0,0,0-5.56-4.5c-2.38-1.32-9.35-7.41-17.1-15l-7.32-7.14,2.2-4.15c1.59-3,2-4.94,1.67-6.7a8,8,0,0,1,.44-4.41c.79-1.5.71-2.91-.44-6.44-1.67-5.11-8-13.31-9.79-12.61a1.27,1.27,0,0,1-1.58-.85v0c-.53-1.41-4.06-1.68-4.06-.35,0,.53.62,1.15,1.32,1.41,3.17,1.23.18,5.56-3.79,5.64-2.82,0-2.38,3.88.44,4.23,1.59.26,2.38-.44,3.53-2.82s2-3.17,3.53-3.17c2.38,0,2.73,2.2.53,3.44-1.23.7-1.32,1.06-.35,2.2a4,4,0,0,0,2.65,1.41c1.23.09,1.23.18-.09,1-1.94,1.06-2.12,3.62-.26,2.91q1.32-.53,1.32,1.06a6.41,6.41,0,0,0,1.3,3.25c2.91,3.88.35,8.55-5.47,10.14-2.82.79-3.44,1.32-3.44,2.91.09,1.85-.26,2-3.53,1.76-2.64-.26-3.79.09-4.14,1.06-.71,1.68-6.79,1.68-7.41-.09a1.66,1.66,0,0,0-3.09-.09c-.35.88-1.15.79-3.44-.35-1.68-.79-3.7-1.68-4.5-1.94a2.39,2.39,0,0,1-1.59-2.2c0-2,4.85-4.76,7.23-4,1.06.26,1.59,0,1.59-.88s-.78-1.32-1.83-1.32-1.76-.53-1.59-1.59c.26-2.64-.09-3.09-1.41-1.94-1.06.88-1.15,1.41-.35,2.29s.62,1.32-.53,1.76c-1.76.71-3.09-1-3.09-3.7a2.38,2.38,0,0,0-1.76-2.38c-1-.26-1.76-.79-1.76-1.23,0-1,5.11-3.79,7.05-3.79s3.09-2.56,1.5-3.09c-2.91-1.06-9-2-9.7-1.59-1.59,1-3.26,6.52-3.26,10.76,0,4.94,1,7.67,4.59,12.78a13.59,13.59,0,0,1,2.47,4.41c0,2.56,11,6.7,17.81,6.7A39.25,39.25,0,0,0,97.5,54.57c6.88-2.47,6.61-2.47,11.64,2.56a7.72,7.72,0,0,1,2.47,4.5,2.39,2.39,0,0,0,2.12,2.63h.08a3.93,3.93,0,0,1,2.69,2.65,10.92,10.92,0,0,0,3.09,4.41c1.41,1.23,2.56,2.73,2.56,3.17s.79.88,1.68.88A2.67,2.67,0,0,1,126,76.7a6.24,6.24,0,0,0,2.73,2.38,3.28,3.28,0,0,1,2.2,3.09c0,1.06.44,2,.88,2a1.09,1.09,0,0,1,.88,1.15c0,.62,1.06,1.76,2.29,2.47A7.61,7.61,0,0,1,138.1,91c.44,1.15,1.32,2,2,2,1.5,0,5.82-3.44,4.32-3.53-1.32,0-1.59-2.65-.26-2.65a6.37,6.37,0,0,1,2.73,1.85c1.5,1.5,1.67,2,.7,2.64a6.11,6.11,0,0,1-2.73.79,1.42,1.42,0,0,0-1.59,1.23h0a10.67,10.67,0,0,1-.53,2.73c-.44,1,0,1.59,1.23,1.94a3.07,3.07,0,0,1,2.12,2.38,2.53,2.53,0,0,0,2.12,2.12c1,.18,2.47,1.5,3.44,3.09,3.88,6.79,6.26,10.14,7.94,10.84a4.94,4.94,0,0,1,2.2,3c.35,1.5,1.41,2.38,3.35,3s2.82,1.32,2.82,2.38a1.53,1.53,0,0,0,1.68,1.68c3.09,0,2.65-1.23-1.76-5.73-2.38-2.38-4.32-5.11-4.32-5.91a1.49,1.49,0,0,0-1.32-1.59c-.71,0-1.32-.44-1.32-.88a.88.88,0,0,1,.88-.88h0c.62,0,.62-.53,0-1.76a3.4,3.4,0,0,0-2.56-1.76c-1.76,0-2.73-1.68-2.73-4.41A3.4,3.4,0,0,0,155,101c-1.5-.79-1.5-.88,0-1.41,2.2-.88,5.91.27,5.91,1.85,0,1.15.26,1.23,1.32.35s1.85-.53,4.41,1.5c1.68,1.32,3.09,2.73,3.09,3.09s.53.7,1.23.7a1.9,1.9,0,0,1,1.67,1.23c.44,1.15,1.85,2,9.7,6,1.76.88,3.26,2,3.26,2.47s1.41.71,3.53.35c2.73-.44,4-.26,5.29,1,1.76,1.59,5.29,1.15,5.29-.7,0-.53.53-.18,1.23.7,1.15,1.59,1.23,1.5,2.73-.7,1.15-1.76,1.85-2.2,2.64-1.5s1.59.44,2.73-1.06c2-2.47,6-5.11,7.76-5.11a2.17,2.17,0,0,0,1.76-1.41,1.4,1.4,0,0,1,1.7-1l.06,0c.88.35,1.06,0,.79-1.24s0-1.68,1.85-1.68c1.41,0,2.29-.53,2.29-1.23,0-1.32,1.85-2.29,4.5-2.29a1.58,1.58,0,0,0,1.75-1.25,1.21,1.21,0,0,1,1-1.32,12.35,12.35,0,0,0,4.06-2.38c2.47-1.85,3.35-2.12,4.67-1.32s1.59.7,1.85-1a2.47,2.47,0,0,1,2.38-2.2,3,3,0,0,0,2.47-2c.44-1.68,4-3.17,6.26-2.73.53.18,1.06-.53,1.06-1.59a3,3,0,0,1,2.12-2.65,8.14,8.14,0,0,0,2.73-1.68,2.56,2.56,0,0,1,2.12-1A2.43,2.43,0,0,0,264.34,78a2.23,2.23,0,0,1,1.85-1.76,5.82,5.82,0,0,0,3.21-1.74,6,6,0,0,1,3.35-1.76,4.16,4.16,0,0,0,2.65-1.06c.62-.62,2.91-1.32,5.29-1.59,3.17-.35,4.06-.79,3.88-1.85s.7-1.59,3.26-2c1.85-.26,3.62-1.15,4-1.85.53-1.5,3.17-1.85,3.17-.44,0,2,2.65,1.76,4.94-.62a19.75,19.75,0,0,0,2.56-2.94c0-.26,1.41-.44,3.09-.44,3.62,0,5.29-.88,5.29-2.82,0-1,.53-1.23,2.12-.79s2.47.09,3.09-1c.53-.88,1-1.06,1-.53,0,1.85,3.35,1.32,4-.53a2.32,2.32,0,0,1,2-1.67,13.58,13.58,0,0,0,4.85-1.5c2.82-1.32,3.53-1.41,4.14-.44s1.06,1,2.38-.09a11.31,11.31,0,0,0,2.29-2.38,2.86,2.86,0,0,1,1.94-1.06c.7,0,1.32-.44,1.32-.88s.88-.88,2-.88a7,7,0,0,0,3.61-1.32,6.65,6.65,0,0,1,3-1.32A7.88,7.88,0,0,0,352.06,41a8.48,8.48,0,0,1,4-1.76c1.24,0,1.59-.44,1.32-1.23s-.09-1.14.71-.79,2.73-.44,4.5-1.41c2.38-1.41,3.44-1.67,4.41-.88s1,1.32-.18,3c-1.32,2-1.06,4,.53,4,.44,0,1.06-.79,1.32-1.76a2.57,2.57,0,0,1,2.47-1.76,55.63,55.63,0,0,0,8.55-1.76c13.76-3.79,18.52-5.56,19.75-7.41,1.59-2.47,11.64-9.26,14.64-9.87,1.85-.44,11-3.79,20.1-7.49,3.35-1.32,2.12-3.79-2-4.14C430.05,7.5,428.2,7.75,427.76,8.1ZM396.37,22.3c0,1.14-1.06,1.94-1.94,1.41s-.09-2.12,1.15-2.12A.78.78,0,0,1,396.37,22.3ZM392,24.77A1.28,1.28,0,0,1,390.64,26a1.38,1.38,0,0,0-1.32,1.41c0,.71-.44,1.06-.88.79a2.18,2.18,0,0,0-2.29.53c-.71.53-1.5.79-1.76.53-.71-.71,1.67-4.14,2.82-4.14a3.79,3.79,0,0,0,2.12-1.32C390.55,22.3,392,22.83,392,24.77Zm-17,8c-.26.26-1,.18-1.5-.18-.79-.53-.79-.88.09-1.41,1.22-.68,2.36.64,1.4,1.61ZM154.78,94.87a12.45,12.45,0,0,1,1.72,2.91c0,.88-3.17.53-4.14-.44a15.89,15.89,0,0,0-3-2c-3.35-1.67-3.09-3.17.53-3C152.31,92.4,153.5,93,154.78,94.87Z"/><path class="cls-1" d="M735.84,9.25c0,.44.62.88,1.32.88s1.34-.44,1.34-.88-.62-.88-1.32-.88S735.84,8.72,735.84,9.25Z"/><path class="cls-1" d="M91,9.87c-.71.62,2.73,4.67,4,4.67.35,0,.7-1.23.7-2.64,0-2.2-.35-2.65-2-2.65A4.43,4.43,0,0,0,91,9.87Z"/><path class="cls-1" d="M730.11,10a1.06,1.06,0,0,0,1.68,1.24c.79-.79.62-2-.26-2A1.94,1.94,0,0,0,730.11,10Z"/><path class="cls-1" d="M809,11.9c-4.85,1.32-6.35,2.29-9.43,5.91-6.79,7.67-7.41,15.17-2,25.22l3.5,6.47-3.71,3.17c-3.53,2.91-14.81,13.84-17.1,16.66-.53.62-2.56,2.56-4.41,4.32A88.59,88.59,0,0,0,768,82.2a66.19,66.19,0,0,1-8.11,8.3c-2,1.59-3.7,3.44-3.79,4.06a2,2,0,0,1-1.32,1.59A2.36,2.36,0,0,0,753.5,98c0,.7-.79,1.5-1.76,1.76-1.85.53-3.09,3.17-2.2,4.67.79,1.23,5.11,1.15,6.44-.18a4.17,4.17,0,0,0,1.06-2.65c0-.88.35-1.59.7-1.59,1.5,0,1.85,1.15,1,2.73-.71,1.41-.53,1.68,1,1.68,2.2,0,2.29,1.06,0,3.09A5.44,5.44,0,0,0,758,110.2c0,.62-.88,1.32-1.85,1.59-1.23.35-1.76,1-1.41,1.85.62,1.59-.79,2.73-1.59,1.41-.44-.7-1-.62-1.85.09-1.06.88-1.06,1.24.27,2.2,1.5,1.06,1.5,1.15.09,1.68a2.94,2.94,0,0,0-1.59,2.64c0,1.32-1,2.82-2.73,4-2.21,1.59-2.56,2.38-2.12,4.32s.18,2.47-2.38,3.17c-1.5.53-3,1.41-3.17,2.12-.26.88,0,1.06,1.06.71.79-.35,1.41-.09,1.41.53-.09,1.41-2.73,4.67-4.23,5.11-1.32.44-2.12,13.14-.79,13.14,1.06,0,2.82,1.85,3.53,3.7A2.64,2.64,0,0,0,743,160c1,0,1.76.44,1.76,1,0,1.41,3.7,4.23,5.47,4.32s4.58,5.73,3.7,7.14c-.26.44.35.79,1.32.79,1.41,0,1.85.53,1.85,2.2a11.06,11.06,0,0,0,1.06,4.32c.79,1.94.7,2.56-.53,4-1.41,1.59-1.41,1.76.44,3.53s1.94,2.12,1,4.85c-1.06,2.91-.88,4.41.88,8.2.71,1.41.71,2.29,0,3.17-1.23,1.41-.53,2.38,1.76,2.38a1.51,1.51,0,0,1,1.59,1.68,22.69,22.69,0,0,0,1.67,5.64c1.06,2.38,1.41,4.32.88,5.11-.79,1.32-.17,5,1.23,6.79.71.88.62,1.41-.17,1.85s-.71,1,.35,1.85c2.2,1.85,1.59,4.14-1.32,4.76l-2.65.53,1.76,1.76c1,1,2.21,1.59,2.65,1.32,1.24-.79,1.06,1.68-.17,2.91-.79.79-.71,2.12.17,5.82.62,2.56.88,5.11.53,5.64s.35,1.06,1.32,1.32c1.41.35,1.76.88,1.23,2.12a7.33,7.33,0,0,0-.53,2.91c.09.71.18,2.47.18,3.79s.53,2.64,1.23,3c2.21.79,1.5,2.91-1,2.91-1.76,0-2.2.35-1.76,1.41a10.74,10.74,0,0,1,.53,1.85c0,.26.62,0,1.32-.62,2.21-1.85,3.79-.35,4.5,4.14.44,3,1.32,4.94,3.26,6.61,1.59,1.5,2.38,3,2,3.79-.35,1.15-.17,1.15,1.24.44,2.21-1.15,2.64-1.15,2.64.44a1.36,1.36,0,0,1-1.32,1.32c-.79,0-1.32.79-1.32,2.2,0,1.24.44,2.2.88,2.2s.88.79.88,1.76A1.61,1.61,0,0,1,782.1,295c-.79,0-1.23.53-1,1.06a1.44,1.44,0,0,0,1.68.88c1.32-.18,2.12,2.91,2.82,10.84a12.88,12.88,0,0,0,1.15,4.41c1.85,3.53,3.09,16.75,1.76,19.31-.62,1.32-.44,1.94.62,2.73,1.59,1.15,1.94,4,.53,4s-6.08-4.5-6.61-6.26a2.33,2.33,0,0,0-1.85-1.68c-.88,0-1.15-.62-.71-2.2s.18-2.21-.88-2.21c-1.67,0-1.94-2.29-.27-3,.53-.26.18-.26-.88,0-1.85.44-1.94.27-1.5-2.47.26-1.59.62-3.35.79-4a2.23,2.23,0,0,0-1-2,3.7,3.7,0,0,1-1.24-2.47,15.28,15.28,0,0,0-1.06-4.23c-.79-2.29-.79-3.44.09-5.29,1.32-2.91-.26-5.38-1.76-2.82-.88,1.59-3.44,2.2-3.44.88a25.45,25.45,0,0,1,.79-3.53c.71-2.29.62-3-.44-3.44-.7-.27-1.23-1.59-1.23-3,0-1.76-.44-2.56-1.41-2.56s-1.23-.62-.79-2.73c.53-2.47.44-2.65-1.32-2.12a3.57,3.57,0,0,1-3.53-.88,3.37,3.37,0,0,0-3.17-1q-1.45.53-1.85-1.32c-.44-1.5-1-1.76-3-1.32-1.85.35-2.56.18-2.56-.79,0-2-1.76-2.47-3-.79-1.15,1.41-1.23,1.41-2.12-.17s-1-1.59-1.76.44-.79,1.94-1.41.53-.62-1.5-2.56.09c-2.47,2.12-7.32,4.85-8.29,4.67-2.38-.53-3.79,1.32-3.79,4.94,0,2.12-.35,4.14-.88,4.41s-.88,1.76-.88,3.26c0,2.2-.26,2.47-1.23,1.67s-1.33-.26-1.86,3.44c-.35,2.38-1,4.58-1.41,4.94a3.6,3.6,0,0,0-.8,2.65c0,1.32-.53,2.12-1.32,2.12s-1.32.44-1.32,1,.44.62.88.35c1.85-1.15.79.62-2.2,3.53-3.44,3.44-4.5,3.79-5.11,1.5-.27-1-.44-.62-.53.79s-1.24,3.35-3.18,5.11c-1.67,1.5-3.09,3.09-3.09,3.61,0,1.24-2,1.15-3.35-.17-.88-.88-1.33-.88-2,.17s-.79.62-.44-1.41a9.25,9.25,0,0,0-.88-5.29,7.19,7.19,0,0,1-.88-4.14c.53-2-1-5.73-3.17-7.94-1.15-1.15-1.41-2-.79-3.17s-.18-3.53-3.09-9.61c-2.21-4.5-4.41-8.11-4.94-8.11s-.71-.62-.36-1.32c1.24-3.26-3.88-8.38-8.38-8.38a2.92,2.92,0,0,1-2.29-1.15c-.79-1.15-8.46-4.23-11-4.41-.88-.09-1.59-.44-1.59-.79s-1-.71-2.11-.71a4.83,4.83,0,0,1-3.26-1.41c-1.06-1.23-1.24-1.23-2.29.18s-1.24,1.41-2.73.09a5.55,5.55,0,0,0-3.79-1.32,23.32,23.32,0,0,1-5.38-.88c-2.21-.62-3.53-.62-3.88-.09-.62,1-5.2.18-7.67-1.32-1.32-.79-1.85-.62-2.82.71-1.14,1.41-1.59,1.59-3.53.71s-2.12-1.41-1.67-3.44.35-2.29-.62-1.32a3.79,3.79,0,0,0-1.32,1.94c-.09.53-.18,1.15-.26,1.5s-.88-.18-1.85-1.06a3.71,3.71,0,0,0-3-1.06,1.53,1.53,0,0,1-1.85-1c-.53-1.41-.62-1.41-1.41,0a3.13,3.13,0,0,1-5.2.26c-1.41-1.76-2.65-1.68-2.65.09,0,1.06-.53,1.32-1.94.88a47,47,0,0,0-5.12-1.06,21.55,21.55,0,0,1-5-1.41,5,5,0,0,0-3.26-.44c-1.59.62-11.11-1.23-11.11-2.12,0-.35-.7-.44-1.67-.18a2,2,0,0,1-2.2-.53,3.82,3.82,0,0,0-2.82-1c-1.24,0-2.12-.44-2-1.15a16,16,0,0,0-.09-2.82c-.09-1.41-.26-1.32-1.06.62-.79,2.29-1,2.29-2.29,1.06s-1.5-1.32-2.47.09c-1.32,1.85-4.32,1.32-4.23-.71.18-1.85-1.06-1.94-1.76-.18a1.43,1.43,0,0,1-1.85.79,2.72,2.72,0,0,0-2.64.53c-1.06.88-2.2.88-5.47,0-3.88-.88-4.32-.88-5.64.79a7.3,7.3,0,0,1-4.85,2,9.38,9.38,0,0,0-4.94,1.85c-1.32,1.23-1.85,1.32-3.35.44s-1.94-.88-2.56,0c-.71,1.15-3.53,3-6.26,4.23-4.14,1.67-5.29,2.56-5.29,3.88a3.53,3.53,0,0,1-2.11,2.47,13,13,0,0,0-4.15,3.61c-1.14,1.59-2.82,2.73-3.88,2.73a8.91,8.91,0,0,0-3.79,1.32c-1.41,1.06-2.29,1.15-3.7.44-2.82-1.5-5.91-4.67-6.52-6.79-.35-1.24-1.06-1.76-1.86-1.5-1.32.53-6.43-3-6.52-4.5-.09-.88-9.52-6-13.14-7a5.27,5.27,0,0,1-2.82-2.12,5.19,5.19,0,0,0-3.35-2.12,8.38,8.38,0,0,1-4-1.94c-1.85-1.76-2.38-1.68-2.38.44s-1.14,2.29-2.56.53c-.88-1.06-1.41-1.06-3.79.09-2.12,1.15-3.09,1.15-4.32.35a9,9,0,0,0-3.88-1,4.32,4.32,0,0,1-3.62-2.29q-1.45-2.25-2.38-1.32c-.62.62-.53,1.32.26,2.29,1.67,2,.62,2.47-3.26,1.41a12.68,12.68,0,0,0-6.38-.1c-1.67.53-3,.53-3.26,0-.79-1.23-3.17-1-3,.26.35,2.73-.18,3.35-2.56,3.09-2.82-.35-4.58-1.23-4.58-2.47,0-.44.53-.79,1.23-.79a2.28,2.28,0,0,0,1.85-1c1.24-1.85-.35-1.68-3.44.44-1.85,1.23-2.73,2.29-2.12,2.47s.35.79-.88,1.5c-1.59.88-2.2.79-3.26-.18-1.32-1.41-13.67-1.85-13.67-.53,0,.35-.62.53-1.32.27-1.67-.71-4.23,1.32-3.61,2.82.53,1.23-1.85,2.38-3.17,1.59-.62-.44-.44-1,.53-1.68,1.94-1.41,1-3.88-1.32-3.35-1.24.35-1.5,1-1.15,2.56s.18,2.12-.79,2.12a2.53,2.53,0,0,1-1.94-.88c-1-1.68-3.09-.88-3.17,1.06,0,1.15-.26,1.5-.53.88-.53-1.23-7-1.41-7.76-.18a3.73,3.73,0,0,1-2.65.88c-1.15,0-2.38.35-2.64.88s-1.59.62-2.91.35a25.47,25.47,0,0,0-7,.35c-3.7.62-4.76.53-5.64-.44s-1.23-1.15-1.94-.09c-1.68,2-6.53,4.32-7.14,3.35-.88-1.5-1.76-1.06-3.35,1.76-1.5,2.56-4.14,3.61-4.14,1.76,0-1.23-4.41-.09-6.44,1.59-1.41,1.23-1.68,1.23-2.38.18s-.88-1.15-.88.09c0,1.94-4.59,7.67-5.82,7.23-.62-.18-1.23,1.23-1.5,3.26-.53,4.41-.44,4.23-3.7,4.59-2,.18-2.73.79-3.09,2.47s-1.06,2.29-3.35,2.47c-2.56.26-2.82.53-2.29,2.2,1.06,3.53,1.94,3.53,5.38.09,4.94-5,8.91-7.85,10.67-7.67.79.09,1,0,.44-.27-1.67-.71-1.41-3.7.44-4.67a5.34,5.34,0,0,1,3.53-.35c1.23.26,3-.35,5.2-2.12,5.38-4.23,12.52-6.79,22.75-8.2,2.91-.44,8.29-1.32,11.9-2l12.34-2.38a29.09,29.09,0,0,0,6.79-1.94c.62-.44,2.65-.71,4.5-.62s4.14-.17,4.85-.79a7,7,0,0,1,4.23-.88c2.47.26,3-.09,3-1.41,0-2.2,1.59-2.73,3.09-1,1.15,1.41,5.29,1.68,11,.53a12.14,12.14,0,0,1,5.47.18,2.79,2.79,0,0,0,3.53-.44c1.24-1.06,3.53-1.32,11.29-1.06,24.51.71,28.48,1.06,31,2.73a81.34,81.34,0,0,0,11.55,6.52,25.7,25.7,0,0,1,9.52,7.67,42.06,42.06,0,0,0,6,6.26,11.49,11.49,0,0,1,3.35,3.7c1.32,2.2,1.85,2.47,4.41,1.94a11.65,11.65,0,0,0,4.32-1.68,4.76,4.76,0,0,1,2.82-1.23,3.27,3.27,0,0,0,2.38-1.76c.53-1,1.41-1.76,2-1.76a4.2,4.2,0,0,0,2.47-1.59c2.91-3.17,11.46-10.76,12.25-10.76.53,0,.88-.53.88-1.15,0-.79,2.21-1.59,6-2.29a53.85,53.85,0,0,0,7.67-1.85,71.38,71.38,0,0,1,9.08-2.2c8.64-1.68,16.22-1,27.33,2.56a76.83,76.83,0,0,0,11.64,2.73c2.64.27,6.88.71,9.26,1s6.44.71,8.82.79a93,93,0,0,1,10.58,1.32c3.35.61,7.85,1.15,9.88,1.32s6.52.71,10.14,1.23a40.77,40.77,0,0,0,8.82.35c1.5-.27,3.61.26,5.91,1.59,3.53,1.94,3.62,1.94,4.94.27,1.15-1.5,1.5-1.5,2.47-.35.53.71,2.38,1.41,4,1.59a8.6,8.6,0,0,1,4.32,1.32,3.89,3.89,0,0,0,2.91.79c2-.35,7,3.17,7.94,5.73.44,1.15,1.32,2,2,2s1.68,1.15,2.29,2.65,1.5,2.65,1.94,2.65.7.62.35,1.32c-.53,1.59,2.73,8.29,4.41,9,.88.35.88.79.18,2s-.62,2,.44,3.61a7.29,7.29,0,0,1,1.5,3.53c0,.79,1.06,2.91,2.29,4.76,1.59,2.29,2.11,4.14,1.76,5.64-1.67,8.29-2.29,10.14-3.53,10.84a2.69,2.69,0,0,0-1.41,1.94,21.09,21.09,0,0,1-1.67,4.94c-1.32,3-1.5,4.23-.71,5.91,1.32,2.91,4.41,2.65,7-.62,3.17-4,20.63-19,27.6-23.63,1.67-1.15,6.61-11.46,6.44-13.49-.17-1.85,1.85-7.14,4.59-12.43a1.81,1.81,0,0,0-.44-2.47c-1.85-1.59-1.59-2.64.53-2.64,1.85,0,5.12-3.09,5.2-4.94a3.82,3.82,0,0,1,1.32-2.12c1.15-1,1.76-1,3.53,0a5,5,0,0,0,3.62.53,9.06,9.06,0,0,1,4.23.27l6.52,1.94c4.85,1.41,6.61,4,8.55,12.26a47,47,0,0,0,2.29,7.5c.44.44.79,2.12.79,3.7a26.28,26.28,0,0,0,1.41,7c.79,2.29,1.14,4.85.88,5.82-.62,2.56.61,5.2,6.87,14.73,3.09,4.67,6.26,10.23,7,12.43,1,3,2,4.32,4.23,5.47a12.2,12.2,0,0,1,4,3.53c1.15,2.38,3.44,11.29,3.17,12.7-.09.44.71,1.76,1.68,2.91,4.67,5,4.67-2.56,0-22a69.43,69.43,0,0,1-1.86-16.75c-.09-9.52-3.35-29.8-5.11-32-1.41-1.68-2.29-10-1.15-10.67,2.47-1.5,0-10.23-2.82-10.23-.62,0-2.56-1.15-4.32-2.65-2.29-1.94-3.26-3.53-3.62-5.91-.26-1.85-1-5.73-1.59-8.64a75.11,75.11,0,0,1-1.15-7.94,9.53,9.53,0,0,0-1-3.88,15.81,15.81,0,0,1-1-5.47,16.09,16.09,0,0,0-1.23-6,4,4,0,0,1-.18-3.44c.53-.88.53-6.17.18-12.7-.62-10-1-11.73-3.44-16.66a33.1,33.1,0,0,1-2.74-6.61,14.82,14.82,0,0,0-1.76-4.32c-1.06-1.85-1.59-4-1.32-5.11a7.7,7.7,0,0,0-.35-4.41c-.71-1.76-.62-2.64.44-3.7a4.91,4.91,0,0,1,2.12-1.32c1.14,0-.53-5-2.56-7.58a9.57,9.57,0,0,1-1.94-3.79c-.17-4.32-11-14.2-18-16.49-3.61-1.15-3.88-4-.61-8.11,2.21-2.82,4.41-6.44,13.4-22.48,10-17.63,26.1-41.26,33.77-49.47a108.59,108.59,0,0,0,7.32-9c2.38-3.17,5.11-6.7,6.08-7.94l1.76-2,6.7,2.29,6.7,2.29L825,56.63c5.91-2.82,7.85-4.5,13-11a4.17,4.17,0,0,0,.88-2.38,2.49,2.49,0,0,1,.88-1.85c.53-.26.88-1.41.88-2.38a4.08,4.08,0,0,1,1.33-2.82,1.48,1.48,0,0,0,.44-2.29c-.79-1.15-1.06-1.15-2.12.18a3.75,3.75,0,0,1-2,1.59c-.44,0-1.41,1-2,2.2-1.32,2.38-1.59,2.56-3.43,1.41-.88-.62-1-1.14-.18-2.65s.79-1.85-.36-1.85A1.49,1.49,0,0,1,831,33.2c0-2.29-1-3-2.38-1.85-1.59,1.41-1.41,2.38.62,3,1.32.44,1.76,1.32,1.76,3.44a6.86,6.86,0,0,0,1.15,4c.88,1,.71,1.06-.88.62s-1.94-.17-2.2,1.32c-.18,1.32-1.24,2.29-3.26,3s-2.65,1.23-2,1.68a2,2,0,0,1,1.06,1.32c0,1.68-4.41,2.2-16.93,1.85a1.49,1.49,0,0,1-1.59-1.32A2.12,2.12,0,0,0,805,48.41a3.12,3.12,0,0,1-1.32-2.65c0-1.15-.44-2.12-1-2.12s-.79-.79-.44-2.12a3.05,3.05,0,0,0-.79-3.17c-.79-.71-1.06-1.94-.7-3.61s.09-2.56-.53-2.56c-1.59,0-1.15-2.47,1.15-6.08,2.47-3.88,7.14-7.58,8.47-6.7.44.26.88,0,.88-.62a7.17,7.17,0,0,1,1.41-2.91c1.32-1.76,1.32-1.76,2.73,0,1,1.32,1.5,1.41,1.76.62.79-2,4.14-4.67,5.29-4.23.62.26,1.15.18,1.15-.27,0-1-3.17-1.85-6.17-1.76A46,46,0,0,0,809,11.9ZM764.67,95.31c.7,1.85-1.15,3.7-2.47,2.38-1.15-1.15-.44-3.79,1-3.79C763.7,93.9,764.32,94.5,764.67,95.31Z"/><path class="cls-1" d="M83.09,11.63a4.43,4.43,0,0,0-.59,2.65c0,2.29,1.85,2.73,3.53.71a3.9,3.9,0,0,1,2.29-1.32c1.94,0,1.41-1.5-.71-2.12C84.94,10.84,83.8,10.93,83.09,11.63Z"/><path class="cls-1" d="M74.1,15.42a1.61,1.61,0,0,0,.26,1.94c1.15,1.15,4.76,0,4.32-1.32S74.89,14.19,74.1,15.42Z"/><path class="cls-1" d="M822.42,15.33c.18.62.62,1.06,1,1.06,1.06-.09.79-1.32-.26-1.76C822.5,14.5,822.16,14.81,822.42,15.33Z"/><path class="cls-1" d="M817.14,20.45A1.86,1.86,0,0,0,818.73,22c1.94,0,1.59-2.56-.26-2.91C817.22,18.86,816.87,19.21,817.14,20.45Z"/><path class="cls-1" d="M833.45,20.27a1.33,1.33,0,0,0,2.2,1.5,1.68,1.68,0,0,0-1.06-2.82C834.24,18.95,833.71,19.57,833.45,20.27Z"/><path class="cls-1" d="M78.68,22.12c-.35.35.62,1.5,2,2.56,2.65,1.94,2.65,1.94.88,3.53s-2.38,4-1.15,4a6.37,6.37,0,0,0,2.2-1.41c1.41-1.41,1.59-1.32,2.12.09a1.75,1.75,0,0,1-.62,2.2c-.62.44-1,1-.71,1.23s1.32-.44,2.38-1.5l1.94-2.12-2.2-2.56c-1.23-1.41-2.12-3.35-2-4.32.18-1.32-.35-1.85-1.94-2A4.47,4.47,0,0,0,78.68,22.12Z"/><path class="cls-1" d="M539.21,24a6,6,0,0,0,2.21,3.62,7.37,7.37,0,0,1,2.2,2.64c0,.44.71,1.15,1.59,1.59,1.59.79,3.61,2.91,15.61,16.66A84.1,84.1,0,0,1,572.5,65.24c1.24,2.12,11.2,9.26,15.7,11.11a15.18,15.18,0,0,1,4.14,2.56c.79.71,3.35,3.09,5.55,5.2,3.53,3.35,4.23,3.7,4.94,2.47.79-1.41.09-2.82-3.79-7a5.67,5.67,0,0,1-1.59-3.26,2.49,2.49,0,0,0-2-2.2c-1.15-.26-3.53-1.85-5.38-3.53-1.85-1.85-3.79-2.91-4.5-2.65-1.59.62-1.76-.62-.18-2.2.88-.88.62-1.06-1.15-.79-1.5.18-2.2-.18-2.2-1.06,0-.7-.79-1.32-1.76-1.32a2.54,2.54,0,0,1-2.21-1.76c-.62-2.29-3.61-5.73-5-5.73-1.15,0-1.5-1-1.24-3.7.27-2.47-2.56-6-4.85-6-1.59,0-2.38-.79-3.35-3.09-.71-1.68-1.76-3.09-2.21-3.09s-1-.62-1-1.32A2.12,2.12,0,0,0,559.1,36c-2.29-.88-1.5-3.79,1.5-5.29,2.64-1.41,2.82-1.32,4.32.62,1.32,1.85,1.76,1.94,3.88,1s2.29-1,1.76.88c-.53,1.67-.44,1.85.53.88,1.59-1.5,5.29-1.32,7.59.26,1.59,1.15,2.29,1.15,3.7.27s2-.88,2.91,0a5.09,5.09,0,0,0,3,1.06,4.51,4.51,0,0,1,3.21,1.79c1,1.41,1.85,1.68,4,1.23s2.82-.27,2.82.88c0,.88.35,1.32.71,1.06s2.29.09,4.23.79c2.65.88,3.09,1.32,1.94,1.76-.88.35-1.41,1-1.15,1.41a1.41,1.41,0,0,0,1.59.27c1.59-.53,7.41,2.64,7,3.88a.85.85,0,0,0,.86,1.12,12.1,12.1,0,0,1,2,.35,14.19,14.19,0,0,0,2,.27,1.6,1.6,0,0,1,1.06,1.59c0,.79.62,1.23,1.59,1.06a3.8,3.8,0,0,1,3,1.5c1.14,1.41,1.67,1.5,2.56.71,1.41-1.41-1.23-5.56-3.62-5.56a1.58,1.58,0,0,1-1.76-1.76,1.56,1.56,0,0,0-1.67-1.76,2.43,2.43,0,0,1-2.16-1.8c-.26-1.24-1.24-1.76-2.73-1.76-1.24,0-2.29-.53-2.29-1.15-.09-1.41-3-3.35-7.94-5.38a65.09,65.09,0,0,1-6.26-2.82c-1.24-.62-2.56-1-2.91-.62s-1.5-.35-2.64-1.41c-1.76-1.68-2.47-1.85-3.88-1.06-1.06.53-2,.62-2.29.26s-2.12-.62-4.14-.44c-2.29.18-4.06-.09-4.41-.79s-3-1.15-5.82-1.32a55.21,55.21,0,0,1-8.64-1.06,40.11,40.11,0,0,0-8.55-1c-2.74,0-5.21-.35-5.47-.79a5.64,5.64,0,0,0-2.91-1.23,40.37,40.37,0,0,1-4.41-1.06C539.56,22.39,539.21,22.65,539.21,24Z"/><path class="cls-1" d="M821.37,28.82c0,1.15.53,1.59,1.5,1.41,2.12-.44,2.38-2.2.26-2.73C821.8,27.15,821.37,27.5,821.37,28.82Z"/><path class="cls-1" d="M93.05,33.15c0,1.85.53,1.85,6-.18,3-1.15,2.38-1.68-2-1.68C93.58,31.29,93.05,31.56,93.05,33.15Z"/><path class="cls-1" d="M824,37.91c0,.71.44,1.32.88,1.32s.88-.62.88-1.32-.35-1.32-.88-1.32S824,37.2,824,37.91Z"/><path class="cls-1" d="M372.21,45.58c-.88,3.35-.62,4.23,1.06,4.23,3.88,0,6.35,6.79,2.91,7.67-1.32.35-1.68,1.23-1.68,4.14l.09,3.7,5.56-5.38c8.73-8.29,8.55-12.34-.44-14.81C372.92,43.28,372.92,43.28,372.21,45.58Z"/><path class="cls-1" d="M424.59,53.42c-6.7,1.23-13.49,3.62-16.75,6.17a18.78,18.78,0,0,1-6.61,2.82c-9.08,1.32-14.81,2.47-16.31,3.26a11.6,11.6,0,0,1-4.23.88c-2.56,0-2.56.09-1.68,2.2s1.59,2.2,6.53,2.2c3,0,5.73-.44,6-.88s2.2-.79,4.14-.53c2.64.26,3.88,0,5.29-1.41a3.61,3.61,0,0,1,3.61-1.23c2.56.62,7-1.32,6.35-2.91-.35-.79.09-1.06,1.32-.7s1.76,0,1.76-.71,1-1.23,2.47-1.23a25.23,25.23,0,0,0,5-.62c1.5-.27,4.85-.62,7.49-.79s6.7-.44,9-.71,4.41-.09,4.67.35,1.24.26,2.21-.26c1.32-.88,2.38-.79,4.85.09,1.67.62,3.88.88,4.76.53a2.16,2.16,0,0,1,2.29.44c.35.53,1.41.44,3.09-.44,3.09-1.59,5-1.68,5.64-.26.26.88.79.71,1.67-.44,1.24-1.5,1.41-1.5,4.5.26,4,2.2,5.29,2.29,3.88,0-1.59-2.56-.27-3.09,2.47-1a9.19,9.19,0,0,0,4,1.85c1,0,1.67.35,1.67.88s.53.88,1.23.88,1.41.88,1.76,2c.35,1.68,1,1.94,4.67,1.85,2.29,0,4.76-.18,5.38-.18,1.85-.26.27-1.94-1.76-1.94-1.41,0-1.67-.44-1.24-2.12s-.09-2.47-2.82-4.32c-4.76-3.26-10.14-4.59-18.25-4.23-10.76.53-26.36.44-35.71,0A76.52,76.52,0,0,0,424.59,53.42Z"/><path class="cls-1" d="M629.5,55.81a8.57,8.57,0,0,0-1.94,2.47c-.88,1.68-.79,2,.71,2.38A2.38,2.38,0,0,1,630,63c0,1.59.27,1.76,1.24,1,1.5-1.23,5.82.44,5.82,2.2,0,.88.79,1.06,2.91.71,2.65-.53,2.73-.53,1.06.79s-1.76,1.41.71,2.29c1.32.53,2.38,1.32,2.38,1.76s1.24,1.23,2.64,1.76q2.65.92,2.65,2.65c0,1.23.62,1.94,1.76,1.94s2.29.18,2.91.27a3.08,3.08,0,0,1,1.76,1.09c.35.62,2,1.32,3.7,1.67s3.35.88,3.62,1.32a2.77,2.77,0,0,0,2.12.79,2.92,2.92,0,0,1,2.38,1.23,3.82,3.82,0,0,0,2.47,1.59c1.33.26,1.77,1,1.77,3.18a12.46,12.46,0,0,0,.18,2.82c.09,0,1.5-.79,3.09-1.76,4-2.47,5.2-2.29,4.94.62-.18,2,.09,2.56,1.94,2.73A4.24,4.24,0,0,1,685,95.28a2.56,2.56,0,0,0,2.09,1.22c.79,0,1.14.53.79,1.32-.35,1,.26,1.5,2,1.85a3.69,3.69,0,0,1,3,2.29c.35,1.32,1,1.59,2.38,1.15,1.59-.53,1.76-.35,1.23,1.68-.7,2.91,1.76,4.14,3.53,1.85,1.32-1.85,3.17-1.06,3.17,1.32a2.34,2.34,0,0,0,1.41,2.12,1.16,1.16,0,0,1,.81,1.42l0,.08a1.57,1.57,0,0,1-1.85.44,1.41,1.41,0,0,0-1.67.35c-.35.53,1,.88,3.08.88,2.47,0,3.79-.44,4.15-1.41a2,2,0,0,0-.27-2,10.43,10.43,0,0,1-2.12-3.09c-.71-1.41-3.53-4.32-6.17-6.61l-5.29-4.58c-2-2.29-10.67-7.85-12.26-7.85a5.58,5.58,0,0,1-3.7-2.12c-.88-1.15-4.14-3.09-7.14-4.32s-6.7-2.82-8.2-3.62a11.75,11.75,0,0,0-4.59-1.41,3.4,3.4,0,0,1-2.65-1.15c-.35-.71-2.12-2.12-3.79-3.35a24.78,24.78,0,0,1-4.67-4.14,5.24,5.24,0,0,0-2.73-1.94,5.23,5.23,0,0,1-2.74-1.76,5.42,5.42,0,0,0-2.64-1.76c-.62,0-1.32-.79-1.59-1.76a2.33,2.33,0,0,0-1.94-1.76c-1.06,0-1.32-.44-.88-1.76.44-1.5.18-1.76-2.38-1.76A9.43,9.43,0,0,0,629.5,55.81Z"/><path class="cls-1" d="M708.15,67.89a2.22,2.22,0,0,0,1.76,1.32c1.67,0,1.59-1.41-.18-2.12C707.8,66.3,707.62,66.39,708.15,67.89Z"/><path class="cls-1" d="M500.15,68.85a5.84,5.84,0,0,1-2.82.71c-3.09.09-2.73,1.85.35,1.85a4.09,4.09,0,0,0,3.53-1.59C502.18,68.41,501.39,67.71,500.15,68.85Z"/><path class="cls-1" d="M497.15,74.67c-1.85.62-2.91,1.5-2.91,2.56a4.54,4.54,0,0,1-1.41,2.91c-.79.79-1,1.41-.35,1.41s1.68-1.15,2.47-2.64,2.21-2.65,3.35-2.65a4.5,4.5,0,0,0,3-1.32C502.62,73.35,501.56,73.26,497.15,74.67Z"/><path class="cls-1" d="M500.15,79.79c-.35,1.41-.09,1.76,1,1.59,1.68-.35,2-2.56.53-3.09C501.12,78.11,500.41,78.82,500.15,79.79Z"/><path class="cls-1" d="M546.71,82.43a5.31,5.31,0,0,1-2.29,2.73c-1.68.88-1.68.88.09,3.17,1.41,1.76,1.59,2.56.71,3.53-1.41,1.67,0,2.82,3.88,3.09s4.94-.53,3.35-2.38-.44-2.82,1.41-1.32c1.14,1,1.5,1,2.11.09.71-1.23,4.41-.53,4.41.79,0,.35,1.06,1.32,2.29,2.2,1.76,1.15,2.47,1.23,3.53.35s1.41-.71,1.85.88c.44,1.85.88,1.94,3.88,1.5,2.12-.35,3.44-.18,3.44.35s.62.88,1.32.88,1.32-.44,1.32-.88c0-1.68,1.85-.88,2.83,1.32,1,2.47,2.47,2.91,2.47.88,0-.71.18-1.32.44-1.32s7,1.32,11.55,2.2a1.68,1.68,0,0,0,2.38-1.32,2.23,2.23,0,0,1,1.82-1.75c1.59,0,1.85-1.32.44-2.2-.44-.35-1.59,0-2.38.71-1.24,1.15-2.29,1.23-5.91.53a35.17,35.17,0,0,1-6.88-2.2c-1.27-.76-3.15-1.16-4-.76a2.17,2.17,0,0,1-2.3-.44c-.26-.44-2-.88-3.88-.88a10.28,10.28,0,0,1-5.46-1.68,44.79,44.79,0,0,0-5.2-3.17c-1.67-.79-5-2.64-7.5-4.06C551.11,80.23,547.5,80,546.71,82.43Z"/><path class="cls-1" d="M497.77,86.4c0,1.68.44,2.2,2,2.2s1.76-.18.44-1a1.83,1.83,0,0,1-1-2.1c.35-.7.09-1.32-.44-1.32S497.77,85.17,497.77,86.4Z"/><path class="cls-1" d="M503.32,91c-1.59.62-1.41,2,.18,2a3.19,3.19,0,0,1,2.21,1.76c.53,1,1.32,1.59,1.85,1.23s.53-.88-.09-1.67a3.36,3.36,0,0,1-.71-2.29C507,90.81,505.09,90.19,503.32,91Z"/><path class="cls-1" d="M503.32,98.5c-2.47,1.23-2.47,1.67.09,3.53,2,1.41,2.12,1.41,4.15-.71,1.76-1.85,1.85-2.38.79-3C506.68,97.25,505.79,97.25,503.32,98.5Z"/><path class="cls-1" d="M548.5,98.31a2.61,2.61,0,0,0,.18,2.12c.62,1.15,1,1.06,2.47,0s1.59-1.41.44-2.12C549.88,97.25,549.18,97.25,548.5,98.31Z"/><path class="cls-1" d="M235.19,100.16a2.52,2.52,0,0,0,1.5,1.5c.71.26,1.06-.09.79-.79a2.52,2.52,0,0,0-1.5-1.5C235.28,99.1,234.93,99.5,235.19,100.16Z"/><path class="cls-1" d="M539.83,103.33c-1,.88-.7,1.59,1,3.44a3.53,3.53,0,0,0,2.91,1.41c1.5-.26,2.82-3.44,2-4.76C545.21,102.5,540.62,102.45,539.83,103.33Z"/><path class="cls-1" d="M508.7,104.83c-.71,1.85-.09,4.32,1.23,4.76.62.18.88-.18.53-1.06-.61-1.59.36-1.76,2.29-.53,1.15.79,1.15,1.06,0,2-2.82,2.38-3.26,4.32-1.94,7.85.88,2.2,1.85,3.35,3,3.35,1.94,0,2.12-1.59.26-2.29-1.32-.53-1.94-7.41-.62-7.41a5,5,0,0,0,1.85-.79c1-.62.62-1.41-1.85-4C510,103.24,509.41,103,508.7,104.83Z"/><path class="cls-1" d="M501.3,106.68c0,.79.44,1.32,1,1.15a1.16,1.16,0,0,0,0-2.29C501.74,105.36,501.3,105.89,501.3,106.68Z"/><path class="cls-1" d="M744.5,106.68c-.62.79-2.21,2.65-3.53,4.06s-2.47,3.17-2.47,3.88-.35,1.32-.88,1.32a1,1,0,0,1-.88-.88c0-.53-.62-.88-1.32-.88-1.14,0-1.14.27-.26,1.76s.88,1.94-.09,2.56a4,4,0,0,1-2.73.35c-2.73-.71-2.82,1.41-.09,2.73,2.38,1.32,2.65,1.23,3.09-.18.26-.79,2.12-2.2,4-3.09,2.47-1.06,3.53-2,3.35-3s.71-1.85,2.73-2.56c4.76-1.59,5.64-4.5,1.85-6.53a1.91,1.91,0,0,0-2.69.28Z"/><path class="cls-1" d="M535,109.06c-1.59,1.59-1.32,3.7.7,4.94,1.5,1,1.76.88,1.76-.62a4.25,4.25,0,0,1,1.32-2.73,3.61,3.61,0,0,0,1.32-1.85C540.09,107.65,536.21,107.83,535,109.06Z"/><path class="cls-1" d="M535.42,118.32c-1.06,1.06-.62,3.62.71,4.14,1,.35,1.32-.18,1.32-2.12C537.45,117.79,536.66,117,535.42,118.32Z"/><path class="cls-1" d="M701.63,118.76c-1.5,1.5-1.33,3.35.35,3.35,1.06,0,1.32.62,1.06,2.64-.44,3-.09,3.17,3.17,1.41l2.38-1.23-2.2-1.76c-1.32-1-2.29-2.38-2.29-3.09C704.09,118.23,702.86,117.5,701.63,118.76Z"/><path class="cls-1" d="M726.67,124.4c-.53,1.32,3,5.64,4.5,5.64.44,0,1.23-1.23,1.76-2.64.88-2.38.8-2.65-.62-2.65a3,3,0,0,1-2.21-.88,1.93,1.93,0,0,0-3.43.53Z"/><path class="cls-1" d="M518.93,124.67a3.63,3.63,0,0,0,1.33,1.85c1.06.88,1.32.88,1.32-.26a2.36,2.36,0,0,0-1.32-1.85C519.5,124.14,518.93,124.23,518.93,124.67Z"/><path class="cls-1" d="M515.05,127.84c.35.71.88,1.06,1.32.79,1.23-.71.88-2.12-.53-2.12C515.05,126.5,514.79,127,515.05,127.84Z"/><path class="cls-1" d="M532.16,127.4c-1.67,1.06-.62,1.94,1.86,1.59,1.67-.18,1.76-.44.7-1.32A2.15,2.15,0,0,0,532.16,127.4Z"/><path class="cls-1" d="M709.39,127.31a3.86,3.86,0,0,0,1.41,1.94c1.15.88,1.5.88,2.21-.18,1.23-2,1-2.56-1.41-2.56C710.36,126.5,709.39,126.87,709.39,127.31Z"/><path class="cls-1" d="M712.91,131.72c0,.53,1,1,2.12,1s2.47.35,2.73.88a2.49,2.49,0,0,0,1.85.88c1.23,0,1.23-.18,0-1.32C717.94,131.37,712.91,130.31,712.91,131.72Z"/><path class="cls-1" d="M165.36,135.34a1.58,1.58,0,0,1-1.39,1.75h-.2c-2,0-4.94,5.38-4.23,7.76.44,1.23-.09,2.47-1.68,4.06a6.62,6.62,0,0,0-2.12,4.32c.18,2.2-1.32,6.35-2.64,7.14-.53.35-.71,1.68-.44,3,.35,1.85-.35,3.26-3.09,6.61-1.94,2.29-3.79,5.47-4.06,7a8.94,8.94,0,0,1-2.29,4.14c-1,.79-2.56,4.32-3.53,7.94s-2.64,7.32-3.53,8.29c-2.65,2.82-1.85,5.73.79,3.09,1.59-1.59,2.38-.09,1,1.67-1.5,1.94-3.44,5.29-3.44,6.08,0,.35.62.09,1.32-.53,1.76-1.5,2.91-.44,2.38,2.2-.62,3.53,1.23,2.56,2.47-1.32.88-2.56,1.68-3.53,3-3.61,1.06,0,1.32-.27.79-.53a1.73,1.73,0,0,1-1.15-1.59,3.72,3.72,0,0,0-1.32-2.2c-1.85-1.5-1.67-2.2,1.32-5.56,1.68-2,2.65-4,2.65-5.73,0-1.5.53-3.09,1.24-3.44a2.54,2.54,0,0,0,1.23-2c-.26-3.44.35-4.94,2.2-5.73,1.32-.62,2-1.76,2.2-3.88.35-3.7,2.65-7.41,4.23-6.79s1.5.35.26-2.47c-.79-1.68-.71-2.73.18-4.85.71-1.5,1.5-2.73,1.76-2.73.79,0,2.56-4.59,2.38-6.17-.26-3.17,1.32-6.88,3.44-7.85,1.76-.79,2.12-1.41,1.67-3.17a2.91,2.91,0,0,1,1.32-3.44c2.12-1.41,1.59-3.17-1.06-3.17a1.56,1.56,0,0,0-1.66,1.7Z"/><path class="cls-1" d="M618.5,143.5a4.16,4.16,0,0,0,3.08,1.5c1.76-.09,1.76-.18.09-.53a9.17,9.17,0,0,1-3.09-1.5C617.42,142,617.42,142.13,618.5,143.5Z"/><path class="cls-1" d="M506.06,169.2c-.7,1.94.27,2.91,1.59,1.59.79-.79.79-1.32,0-2.12S506.5,168,506.06,169.2Z"/><path class="cls-1" d="M459.86,171.4a8.18,8.18,0,0,1-.53,2.12,1.42,1.42,0,0,0,.88,1.76c1.06.44,1.41-.09,1.41-2,0-1.5-.35-2.65-.88-2.65A.87.87,0,0,0,459.86,171.4Z"/><path class="cls-1" d="M452.5,173c-1.06,1.06-.62,1.94.7,1.5.71-.35,1.32-.88,1.32-1.32C454.56,172.2,453.33,172.11,452.5,173Z"/><path class="cls-1" d="M520.26,174.58c0,1.23.26,2.2.7,2.2s.62-.35.62-.79a9.69,9.69,0,0,1,.53-2.2c.35-.88.09-1.41-.62-1.41S520.26,173.34,520.26,174.58Z"/><path class="cls-1" d="M486.93,176.5c-.88.79-.79,2,.09,2a6.81,6.81,0,0,0,2.47-1.32c1.67-1.23,1.67-1.23-.18-1.32A3.86,3.86,0,0,0,486.93,176.5Z"/><path class="cls-1" d="M474.84,182.5c0,.71.44,1.32.88,1.32s.88-.62.88-1.32-.35-1.32-.88-1.32S474.84,181.81,474.84,182.5Z"/><path class="cls-1" d="M487.19,191.33c-.88,1.06-.79,1.41.26,1.85,1.76.62,3.26-.26,3.26-1.94S488.6,189.65,487.19,191.33Z"/><path class="cls-1" d="M474.84,194c0,1.5.44,2.2,1.15,1.94a2.16,2.16,0,0,0,1-1.94,2.44,2.44,0,0,0-1-2C475.29,191.77,474.84,192.5,474.84,194Z"/><path class="cls-1" d="M505,192.74a1.19,1.19,0,0,0,2.29,0c.18-.53-.35-1-1.15-1S504.82,192.21,505,192.74Z"/><path class="cls-1" d="M454.13,197.06c-.35.53.53.88,1.94.88,1.94,0,2.21-.18,1.15-.88C455.5,196,454.83,196,454.13,197.06Z"/><path class="cls-1" d="M483.22,198.74a1.06,1.06,0,0,0,1.67,1.23c.79-.79.62-2-.26-2A1.93,1.93,0,0,0,483.22,198.74Z"/><path class="cls-1" d="M592.56,200.67a1.21,1.21,0,0,0-.09,1.41c.71.7,3.18-.44,3.18-1.5S593.26,199.44,592.56,200.67Z"/><path class="cls-1" d="M115.72,209.4c-3.88,1.94-6.52,2.29-8.82,1.32-1.06-.44-2.2-.09-3.61,1.24-1.76,1.59-2.38,1.76-3.7,1-2.12-1.23-7,.27-6,1.94.44.71.18.79-.88.44-2.38-1-8.47.26-8.47,1.67,0,1.59-3.17,1.59-3.79.09q-.4-1.06-4-.79c-2.82.26-3.61.79-4.06,2.38-.44,1.85-1,2-5.47,1.94-3.7-.09-5.11.26-5.73,1.32-.44.79-2.38,1.67-4.32,2-3.17.53-5.91,2.2-3.61,2.2,1.94,0,.79,1.41-2.38,2.82-1.85.88-6.08,4.14-9.44,7.32s-6.88,6-7.76,6.26-2.38,2.12-3.35,4.14l-1.94,3.61,1.94,1.24c2.38,1.67,2.38,4.06-.18,6.08-1.94,1.59-5,5.82-5,7,0,.35.44.18,1.06-.44a3.89,3.89,0,0,1,2.47-1.06,5.36,5.36,0,0,0,3.09-1.76,3.21,3.21,0,0,1,3.35-1.23c1.32.44,2.56-.35,5.11-3.17,2.91-3.17,4.32-4.06,7.23-4.32a30.71,30.71,0,0,0,4.85-3.88,85.84,85.84,0,0,1,9.26-7.14c3.09-2,4.94-3.79,4.67-4.5s.18-1,1.15-.7,2.82-.62,4.58-2.2a37.73,37.73,0,0,1,5-3.62,3.38,3.38,0,0,0,1.94-2.29q0-1.32,2.91-1.32A16.08,16.08,0,0,0,88,225.28a15.73,15.73,0,0,1,4.27-1.78c1.67,0,8.82-3.61,10.49-5.29,2.2-2.2,4-2.2,6.26.09s5.73,1.94,5.38-.7c-.18-1.41.44-2.29,2.47-3.35,2.82-1.41,2.82-1.41,2.2.62a4.62,4.62,0,0,1-1.41,2.29,1.71,1.71,0,0,0-.79,1.5c0,1.41,7,2.56,14.72,2.38,5.11-.18,7.58.79,5.55,2-1.23.71-.26,2.2,1.41,2.2.88,0,1.23-.71,1.06-1.94-.35-2.73,1.15-2.82,4.85-.35,2,1.41,3.79,1.94,5.11,1.68,1.68-.44,1.85-.27,1.5,1.32-.62,2.2.79,3.44,2.2,2,1.68-1.68,2.12-1.15,2.82,3.17.35,2.38,1.06,4.76,1.59,5.38a11.65,11.65,0,0,1,1.15,5,18.18,18.18,0,0,0,1.5,6.44c.79,1.76,1,3,.44,3.53s-.44,1.59.44,2.91a20.12,20.12,0,0,1,1.85,4.5c.35,1.41.88,2.47,1.32,2.47,1.67,0,2.91-8.29,1.59-10.32-1.32-1.85-2.12-6-1.5-7.76a3.07,3.07,0,0,0-.62-3,3.61,3.61,0,0,1-.88-2.91c.26-1,0-1.85-.71-2.12a1.67,1.67,0,0,1-.71-2c.26-1.14-.26-1.76-1.85-2.2-1.94-.44-2.2-.88-1.76-2.82.62-2.47-.62-3.88-3.44-3.88a5,5,0,0,1-3.26-2c-1.32-1.5-1.85-1.67-2.73-.88a2,2,0,0,1-2.65.18c-1.23-.62-1.5-1.5-1.06-3.53.53-2.91-.53-4.32-3.44-4.32a1.58,1.58,0,0,0-1.59,1.76c0,1.32-.62,1.76-2.2,1.76a3,3,0,0,0-2.73,1.32c-.62,1.41-3.44,1.76-4.32.53a6.68,6.68,0,0,0-3.09-1.41c-1.85-.44-2.65-1.15-2.65-2.29a1.58,1.58,0,0,0-1.32-1.68c-.71,0-1.32-.79-1.32-1.76,0-1.15.44-1.59,1.32-1.23,1.94.79,1.59-1.23-.35-2.29C120.74,207.29,119.6,207.5,115.72,209.4ZM64.31,228.71c.88,1,1.32,2.2,1,2.64-.88,1.59-2.2,1.06-2.2-.79a1.59,1.59,0,0,0-1.32-1.76c-.7,0-1.32-.44-1.32-.88C60.43,226.42,62.72,226.95,64.31,228.71Zm5.82-.79c0,.44-.53.88-1.23.88a2.48,2.48,0,0,1-1.85-.88c-.26-.53.26-.88,1.24-.88s1.84.35,1.84.88ZM59.28,230c-.35.79.18,1.5,1.23,1.85,1.5.53,1.59.79.71,1.94s-.88,1.41.18,2.12.79.79-.62.79a2.9,2.9,0,0,0-2.47,1.32,2.84,2.84,0,0,1-2.56,1.32c-1.15,0-4,1.23-6.26,2.64-4.41,2.82-7,2.82-4.41-.09a4.92,4.92,0,0,1,2.73-1.68c.62,0,1.15-.79,1.15-1.76,0-2.73,1.85-6,3.62-6.44s3.09.7,1.67,1.59c-.7.44-.62,1,.09,1.85,1.76,2.2,2.56,1.32,2.56-2.73,0-3.09.35-4,1.41-4,.89,0,1.19.57,1,1.28ZM42.8,244.59c0,1.76-1.15,3.61-2.2,3.61-1.85,0-2.47-1.68-1.32-3.09S42.8,243.35,42.8,244.59ZM49,246.35c0,1-2.29,1.94-3,1.23-1.06-1.06-.44-2,1.23-2,1,0,1.77.33,1.77.77Zm-12.34,3.26c0,.79-.44,1.24-1.06,1.06-1.59-.53-1.85-2.47-.35-2.47a1.39,1.39,0,0,1,1.4,1.38s0,0,0,0Zm2.47,5.47c.18.62-.26,1.06-1.06,1.06a1.39,1.39,0,0,1-1.41-1.37s0,0,0,0c0-1.5,1.93-1.23,2.46.35Z"/><path class="cls-1" d="M375.21,213.81c0,.44.62.88,1.32.88s1.32-.44,1.32-.88-.62-.88-1.32-.88S375.21,213.28,375.21,213.81Z"/><path class="cls-1" d="M577.57,220.87c-1.24,1.32-1.41,2-.62,2.82s1.15.62,1.5-.44a1.54,1.54,0,0,1,1.94-.88c1,.35,1.24.09,1.06-1.06C580.92,218.93,579.42,218.84,577.57,220.87Z"/><path class="cls-1" d="M387.91,224.75c-1.59,1.23-1.59,1.32-.09,1.85a3,3,0,0,0,2.82-.44C393.5,223.69,391.08,222.5,387.91,224.75Z"/><path class="cls-1" d="M361.37,232.06c-.71,1.94.27,2.29,3.7,1.5l3.17-.79-3.17-1C362.42,231,361.72,231,361.37,232.06Z"/><path class="cls-1" d="M445.5,240c-1.15,1.06-.62,2,1.14,2a1.59,1.59,0,0,0,1.76-1.32C448.39,239.38,446.5,238.85,445.5,240Z"/><path class="cls-1" d="M400.43,245.11c-1,3.79.44,4.94,3.35,2.82,1.32-1,1.5-1.5.62-3.09C403,242.2,401.13,242.38,400.43,245.11Z"/><path class="cls-1" d="M104.87,248.64c-.53,2.29-1.59,2.82-2.56,1.32-.79-1.32-4-1.06-4.5.44-.35.71-.88,1.32-1.32,1.32s-.79-.62-.79-1.32c0-1.76-.53-1.68-6.52,1.32-2.82,1.5-5.82,2.65-6.7,2.65a5.36,5.36,0,0,0-3.09,1.76,5.3,5.3,0,0,1-3.17,1.76,3.69,3.69,0,0,0-2.72,1.77A3.76,3.76,0,0,1,71,261.42c-.7,0-3.44,1.41-5.91,3.09s-5,3.09-5.55,3.09-.88.53-.88,1.23-1.59,2.2-3.53,3.26-3.7,2.73-4.06,3.62a4.6,4.6,0,0,1-2.2,2.47,3.71,3.71,0,0,0-1.68,3.17,2.92,2.92,0,0,1-1.5,2.73c-1.94.62-7.32,6.08-7.32,7.41,0,.44-1.06,1.85-2.38,3.09-2.29,2.2-2.38,2.2-.79,4.76s1.41,2.82-1.68,3c-1.15.09-1.85.79-2,2.29a7.92,7.92,0,0,1-1.68,3.7A3.93,3.93,0,0,0,28.81,311c.26,2.29-.09,3.35-1.32,3.35-1.68,0-4.94,4.14-4.94,6.26A5.88,5.88,0,0,1,20.79,324c-1.85,1.85-2.38,5.73-.88,6.61.71.44.62,1,0,1.76a8.51,8.51,0,0,0-1.41,3.28c-1.23,7.06-1.59,8.38-2.73,9.7s-1.15,1.76.71,4.14c1.15,1.41,2.56,2.65,3.17,2.65s2.12-1.41,3.53-3.26,3.53-4.41,4.85-5.82a11.5,11.5,0,0,0,2.47-3.36c0-1.41-2.82-1.85-4.58-.79-2.2,1.41-4.14.17-2.12-1.32,1-.71,1.32-1.59,1-2.29-.53-.88-.44-1,.53-.09A4.47,4.47,0,0,0,28,336.38a2.26,2.26,0,0,1,1.94,1.06c.35.88.62.88,1.59,0s.88-1.06.09-1.06c-.62,0-1.59-1-2.12-2.21S28,332,27.27,332c-1.23,0-2.91-3.44-2.91-5.91,0-.88.53-1.23,1.76-.88s1.76,0,1.76-1.15a2.62,2.62,0,0,1,1-2.2,3.78,3.78,0,0,0,.62-2.91c-.18-1.85.27-2.65,2.2-3.53,1.32-.62,2.38-1.85,2.38-2.73a4.24,4.24,0,0,1,1.32-2.73c.71-.62,1.15-1.41.88-1.76-.79-1.32,1.32-5.47,2.56-5,1,.35,1.15-.53.88-4.14-.35-4.41-.26-4.58,2-4.5,1.76,0,2.47-.53,2.91-2.2.53-2.12.53-2.12,1.68-.44,1,1.68,1.06,1.59.71-.62a4.08,4.08,0,0,1,1.23-3.88,4.7,4.7,0,0,0,1.67-2.73c0-.62,1-1.59,2.12-2a6.91,6.91,0,0,0,3.26-3.44c1.23-2.73,3.7-3.61,4.76-1.76.44.53,1.15.18,1.94-1s1.06-2.12.79-2.38-.53-.09-.53.44a1.21,1.21,0,0,1-1.39,1c-1.15,0-1.23-.35-.44-1.76s1.5-1.68,2.73-1.32,2.56-.18,4.5-2.12c1.59-1.5,3.44-2.73,4.14-2.73s2.12-1.15,2.91-2.65,2.2-2.56,3.09-2.56c5.2,0,10-1.32,10.4-2.82a6.09,6.09,0,0,1,2.47-2.73c2-1.06,8.91-1.23,11.46-.27.88.35,1.5.27,1.5-.35,0-1.67,3.79-2.73,4.85-1.41.53.62,2.47,1.06,4.41,1.06a24.42,24.42,0,0,1,6,.53c2.12.62,2.38.88,1.5,1.94s-.88,1.32.09,1.32a15.11,15.11,0,0,1,3.09.53c1.5.44,1.94,0,2.38-2,.53-3-.62-4.67-3.44-4.67a5.52,5.52,0,0,1-3.62-1.68c-2.2-2.29-8.64-5.38-11.2-5.38a2.5,2.5,0,0,0-2.81,2.14Z"/><path class="cls-1" d="M354.05,249.5a1.32,1.32,0,1,0,1.32-1.32A1.36,1.36,0,0,0,354.05,249.5Z"/><path class="cls-1" d="M318.78,252.17c0,.71.44,1.32.88,1.32s.88-.62.88-1.32-.35-1.32-.88-1.32S318.78,251.5,318.78,252.17Z"/><path class="cls-1" d="M445.75,252.17a1.32,1.32,0,1,0,1.32-1.32A1.36,1.36,0,0,0,445.75,252.17Z"/><path class="cls-1" d="M368.42,252.34c-1.59.53-1.41,3.79.09,3.79,1.94,0,3.44-2.29,2.12-3.26A2.68,2.68,0,0,0,368.42,252.34Z"/><path class="cls-1" d="M129.38,254.64c-.53.53-.7,2.12-.44,3.44.35,2.12.71,2.29,2.12,1.5s2.2-.44,4.06.88a7.56,7.56,0,0,0,3.53,1.85,2.3,2.3,0,0,1,1.76,1.41c.35,1,1.15,1.15,2.91.79,2.2-.53,2.47-.35,2,1.23s-.09,1.85,3.26,1.85,3.62-.18,3.35-2a2.45,2.45,0,0,0-2.2-2.2c-1.15-.18-2-.79-2-1.41s-2.12-2.65-4.76-4.5c-3.7-2.56-5.38-3.17-7.32-2.82a6.84,6.84,0,0,1-3.88-.35A1.85,1.85,0,0,0,129.38,254.64Z"/><path class="cls-1" d="M347,254.81c0,.71.44,1.32.88,1.32s.88-.62.88-1.32-.35-1.32-.88-1.32S347,254.11,347,254.81Z"/><path class="cls-1" d="M353.43,256.31a2.05,2.05,0,0,0,1.94,1.15,2.3,2.3,0,0,0,2-1.15c.18-.62-.53-1.06-2-1.06S353.17,255.69,353.43,256.31Z"/><path class="cls-1" d="M624.3,258.87c-.62.88.88,2.47,2.47,2.56,1.06,0,.71-1.5-.62-2.56C625.18,258.08,624.74,258.08,624.3,258.87Z"/><path class="cls-1" d="M325.83,263.28l-2.2,1.85,2.2-.62c2.73-.79,2.91-1,2.47-2.2C328.13,261.69,327.16,262,325.83,263.28Z"/><path class="cls-1" d="M16.79,269.36a3,3,0,0,1-2.2.88c-1.06,0-2.29,1.15-3.09,2.73-1.15,2.21-1.85,2.65-3.53,2.21s-2.47,0-3.88,2a9.25,9.25,0,0,0-1.85,3.88A2.27,2.27,0,0,1,1.36,283c-1.5.88-1,2.2,1.15,3,1.41.53,2.12.35,2.65-.53s1.5-1.15,2.91-.79c1.94.53,2.91-.35,4.06-3.44.09-.53,1.76-.79,3.61-.62,2.47.26,3.26,0,3.26-1.06a2.42,2.42,0,0,0-1.06-1.94c-.7-.44-.62-.88.27-1.59a11.56,11.56,0,0,0,2.29-2.88c.88-1.5.79-2.12-.53-3.26C18.2,268.22,17.58,268.13,16.79,269.36Z"/><path class="cls-1" d="M309.08,274.21c0,2.38.53,2.65,2.56,1.41,1.06-.7,1.06-1.06.18-2.2C310.14,271.39,309.08,271.65,309.08,274.21Z"/><path class="cls-1" d="M310,282.15c0,.71.44,1.32.88,1.32s.88-.62.88-1.32-.35-1.32-.88-1.32S310,281.44,310,282.15Z"/><path class="cls-1" d="M301.14,283c0,.71.44,1.32.88,1.32,1.59,0,1,2.2-.88,3.35-1.06.62-1.59,1.5-1.23,2s1.59-.09,3.09-1.59c2.73-2.73,3.26-4.67,1.23-4.67-.71,0-1.32-.44-1.32-.88a.83.83,0,0,0-.78-.88H302C301.58,281.71,301.14,282.32,301.14,283Z"/><path class="cls-1" d="M295.15,287.35c-.53,1.15-.71,2.38-.44,2.64.79.71,3.79-2.12,3.79-3.61C298.5,284.44,296.21,285.06,295.15,287.35Z"/><path class="cls-1" d="M297.62,295.73a10.83,10.83,0,0,0-.88,3.79c0,2.65-1.5,4.23-4,4.23s-3.26.88-2,2.47c.88,1,.79,1.41-.44,2-1.68,1-2,3.44-.53,3.44,1.23,0,7.23-6.35,10.23-10.85l2.29-3.35-1.85-1.68C298.59,294,298.59,294,297.62,295.73Z"/><path class="cls-1" d="M289.15,297c-.53,1.41,1,4.06,2.38,4.06s.88-3.26-.53-4.41C290,295.81,289.59,295.9,289.15,297Z"/><path class="cls-1" d="M501.74,298.9c-.53.79-2.47,1.41-5.11,1.5-4.59.09-9.44,2.56-9.44,4.76,0,.79-1.59,3-3.53,4.94s-3.79,4.41-4.06,5.47a5,5,0,0,1-3.1,2.93,6.38,6.38,0,0,0-3.7,3.7c-.53,1.41-1.67,2.82-2.56,3a2,2,0,0,0-1.59,1.68c0,1.59-6.7,4.06-11.29,4.14-4.32.09-9.17-2.65-19.31-10.85-3.26-2.73-6.7-4.94-7.49-4.94a25.38,25.38,0,0,0-5.36,1.27c-5.2,1.76-8.29,1.85-18.25.53-7.14-.88-9.7-.79-16.31.35-10.58,1.85-14.46,3.09-29.1,9.7a34.36,34.36,0,0,1-7.23,2.56,8,8,0,0,0-3.81,1.86c-3,3.61-20.63,9.7-32.18,11.11-7.94.88-7.94.88-14-1.76a48.26,48.26,0,0,1-9.17-5.47c-2.12-1.85-3.7-2.56-5.11-2.29-3,.53-4.41-1.5-2.38-3.53,1.76-1.76,2.64-11.73,1.06-11.73-.44,0-.62-1.06-.35-2.47.44-2,.35-2.2-.62-1.06a4.44,4.44,0,0,1-2.82,1.32c-1.5,0-1.76.62-1.85,3.79-.09,2.11.44,4.14,1.06,4.76,1.94,1.59,1.32,4.23-1.59,7-2.47,2.29-2.56,2.56-1,2.56a3.16,3.16,0,0,0,2.38-.88,1,1,0,0,1,1.36-.38l0,0c.53.27.26,1-.62,1.68-1.41,1-1.15,1.32,2.82,3.35a50.44,50.44,0,0,1,9.52,7.14c3.35,3.17,6,4.94,7.32,4.94a10,10,0,0,1,3.79.88c1.41.71,1.59.71,1.23-.44-.88-2.2,1.06-1.5,2.29.88,1.23,2.21,2.91,3.09,2.2,1.06a3.06,3.06,0,0,1,.44-2.38c.71-1.06,1.06-1.15,1.68-.17,1.23,2,11.29.88,12.17-1.24a2.2,2.2,0,0,1,2-1.24,3,3,0,0,0,2.29-1c.35-.62,1.94-.79,4-.53s3.44.09,3.44-.35.53-.79,1.23-.79c1.32,0,4.76-1.68,6.7-3.26.71-.62,2.47-2.12,3.88-3.35a9.05,9.05,0,0,1,5-2.2c1.32,0,2.64-.35,2.91-.79s1.59-.79,2.91-.79a4.23,4.23,0,0,0,3.61-1.85,4.56,4.56,0,0,1,3.79-1.85c1.76,0,2.56-.44,2.56-1.41,0-1.15.62-1.41,3.35-1,1.76.26,2.73.26,2.2,0-1.85-.71-1.32-2.29.53-1.76a7.76,7.76,0,0,0,4.5-1.32c3.53-2.12,5.64-1.5,5.11,1.41-.35,1.85-.09,2.12,2.91,2.12,3.26.09,3.35,0,2.91-2.73-.44-2.56-.35-2.64.79-1.23s1.32,1.32,1.76.26,1.5-1.23,4.67-1c2.29.27,4.58,0,5.2-.44a1.25,1.25,0,0,1,2,.27q.93,1.06,6.09.79c14.9-1,18.6-.35,20.45,3.18,1.15,2.2,1.68,2.64,2.56,1.76s1.59-.53,3.44,1.23A12.41,12.41,0,0,0,445.2,333a4,4,0,0,1,2.56,2.12c.88,2,4.5,2.65,6.53,1.06a1.54,1.54,0,0,1,2.18,0l0,0c2.38,1.94,10.84.09,11.64-2.56a2.7,2.7,0,0,1,2.29-1.68c.88,0,1.67-.44,1.67-.88s1-1.32,2.12-1.76a4,4,0,0,0,2.47-2.82,4.53,4.53,0,0,1,2.29-3c2.47-1.24,9-7.85,9-9.17,0-.44.62-.88,1.32-.88a2.12,2.12,0,0,0,1.85-1.32c1.5-3.88,8.29-8.55,8.29-5.73,0,1.41,2.38,1.06,3-.44.71-1.85,4.67-1.68,7.32.44a8.31,8.31,0,0,0,3.61,1.76,5.09,5.09,0,0,1,3,1.5c1,.79,1.59,1,1.59.44a1,1,0,0,1,.88-1.06.9.9,0,0,1,.89.91s0,.06,0,.09c0,.53,1,2.12,2.2,3.62a9.17,9.17,0,0,1,2.21,4.76c0,1.85.27,2,1.5,1.32s2.11-.26,4,1.94c1.41,1.5,2.47,3,2.47,3.44,0,.79,6.17,3.7,7.59,3.44a10.13,10.13,0,0,1,3.53.88,9.38,9.38,0,0,0,3.79.88,2,2,0,0,1,1.85.71c.35.7,1.41.7,3.53-.09,2.29-.71,3.09-.79,3.35,0,.44,1.5,2.82,1.32,2.82-.18,0-.88,1.5-1.41,5.12-1.67,7-.71,8.2-1,11.46-3a23.39,23.39,0,0,1,7.94-2.47,30.9,30.9,0,0,0,6.7-1.5,3.74,3.74,0,0,1,3.71.18,10.09,10.09,0,0,0,5.9.62c2.38-.35,4.23-.18,4.85.44.79.79,1.59.71,3.26,0a4.39,4.39,0,0,1,3.88-.26,5.1,5.1,0,0,0,3.44.35c1.32-.35,1.94-.09,1.94.88,0,2,2.73,2.64,4,.88,1-1.32,1.41-1.15,4.23,1.68,2.2,2.2,3.7,3.09,4.94,2.73,1.41-.35,1.68-.09,1.23,1.41s-.09,1.76,2,1.59c1.67-.09,2.55.26,2.82,1.32s-.18,1.32-1.5,1c-2.47-.62-2.29.44.35,2.91,2.21,2,2.91,3.88,1.41,3.88-.44,0-1-.53-1.24-1.15-.35-.79-.62-.79-1.59,0s-.79,1.41.35,2.73c2,2.2,1.85,4.67-.27,5.2-2.65.7-2.12,1.94.62,1.76,1.67-.09,2.47.27,2.47,1.23a5.35,5.35,0,0,0,1.59,2.91,5.35,5.35,0,0,1,1.5,2.73,2.24,2.24,0,0,0,1.32,1.68,2.19,2.19,0,0,1,1.06,2.38,2.86,2.86,0,0,0,1.15,2.56c.71.35,2.2,1.06,3.35,1.67a19.46,19.46,0,0,0,5.95,1.11c3.53,0,3.79.18,2.82,1.68-1.59,2.47-.09,2.91,2.82.79,3.71-2.56,6.53-2,7.23,1.32.35,1.41.61,2.12.7,1.5.09-1.23,1.85-1.5,1.85-.17,0,.53,1.24,2,2.73,3.35,3,2.64,4.67,8,3.44,11.28-.44,1.15-.62,4.5-.44,7.58a75.8,75.8,0,0,1,.35,11c-.17,3.53,1.15,10.93,2.29,13.22a11.15,11.15,0,0,1,1.32,3.88c0,.79,1.15,3,2.47,4.85a42.27,42.27,0,0,1,3.79,6.26c1.14,2.73,3.44,4.06,3.44,2a.91.91,0,0,1,.94-.88h.06c.53,0,.79.71.62,1.59-.35,1.23.71,2.12,4.67,4,2.91,1.32,5.2,2.73,5.2,3.26,0,1.23,2.91,1.15,4.23-.18.79-.79,1.76-.79,4.32.09,3,1.15,3.26,1.06,4.67-.79s1.76-1.85,3.53-.88,1.94.88,1.5-.79c-.35-1.41-.09-1.85,1.24-1.85,2,0,2.21-1.59.35-2.29s-.7-2.12,1.76-2.12a3.37,3.37,0,0,0,3.62-3.09,19.43,19.43,0,0,1,1.23-3.7c1.15-2.65,2.65-3.79,6.53-5,1.14-.44,1.32-.88.71-1.67-1.15-1.32.09-3.7,1.5-2.91.62.44,1.06-.35,1.15-2.29,0-1.59.09-3.53.18-4.23a2.08,2.08,0,0,1,1.67-1.59c1.85-.35,1.94-1.59.18-2.29-.7-.26-1.32-.09-1.32.35a.83.83,0,0,1-.78.88H735c-1.41,0-1.06-2.29.62-3.62,1.23-1.15,1.15-1.23-1.15-1.67-2-.35-2.64-1-2.82-2.91-.35-2.91-2.29-4-4.23-2.29-1.23,1.06-1.76.79-3.44-1.32-1.15-1.5-2.47-2.29-3-1.85s-2,0-3.17-.8a7.93,7.93,0,0,0-3.53-1.41c-.79,0-1.33-.79-1.33-1.94a5.7,5.7,0,0,0-1.5-3.53c-1.32-1.5-1.32-1.67.27-3.44,1.15-1.32,1.41-2.11.7-3.17-.88-1.41-.09-5.2,1.68-8,.44-.62.62-2.56.53-4.41a9.22,9.22,0,0,1,1.15-5.38c1.5-2.11,5.38-4.5,7.41-4.5a1.12,1.12,0,0,0,1.23-1h0c0-.53.62-.71,1.32-.44a4.46,4.46,0,0,0,3.09-.53c2.12-1.32,3.26-.35,1.76,1.5-1.41,1.67-.17,1.76,1.76,0,1.32-1.24,1.76-1.24,4.06,0,3,1.5,4.76,1.67,4.76.44,0-.53.71-.88,1.59-.88,1.41.09,1.41.09,0,1.24-2.12,1.59-2.12,4.06,0,3.44,2.47-.62,4.14,5.55,2.29,8.38-1.23,1.85-1.23,2.2,0,3.09a7.1,7.1,0,0,1,1.85,3.44c.53,2,.35,2.29-1.15,1.85a2.54,2.54,0,0,0-2.38.62c-.79,1.32,1.15,2.64,2.82,2,1.32-.53,1.59,2.82.26,3.7a1.13,1.13,0,0,0-.27,1.57v0c1,1.59.26,10.67-1,11.46-.71.44-.44,1.06.7,1.94a2.82,2.82,0,0,1,1.06,3.44c-.35,1.5-.18,2.29.44,2.29s.79,1.5.35,4.94c-.44,4-.26,5.2.88,6.53,1.67,1.85,1.15,3.53-1.15,3.53-1.23,0-1.15.17.26,1.23,2.12,1.5,1.15,4-1.5,4-1.94.09-2,.09-.35,1.32,1.41,1.06,1.5,1.59.71,2.38a4.81,4.81,0,0,0-1.06,3.13c0,1.23-.53,2-1.32,2-1.94,0-1.59,1.5.53,2,2.29.62,1.76,2.82-.79,2.82a4.33,4.33,0,0,0-2.47.71c-.35.35.18.62,1.24.62s1.94.27,1.94.62c-.09,1.15-3.35,4.67-4.23,4.67-.53,0-1.15.71-1.41,1.59-.79,2.29-6.09,4.5-8.11,3.44-1.15-.71-1.68-.62-1.94.26-.71,2.12-5.64,6.08-6.88,5.55-.71-.26-1.94.44-2.82,1.59-1.32,1.59-2.55,1.94-6,1.94a12.15,12.15,0,0,0-6.7,1.59,8.42,8.42,0,0,1-3.17,1.68c-.44,0-1.06.62-1.41,1.32a1.44,1.44,0,0,1-1.85.8,1.37,1.37,0,0,0-1.8.73l-.05.15c-.44,1.06-1.41,1.41-3.35,1.23-2.12-.18-2.64.09-2.47,1.15s-.71,1.59-2.47,2c-1.5.26-2.64,1-2.56,1.59.26,2.38-.18,3.35-1.41,3.35-.7,0-1.32.79-1.32,1.76A1.56,1.56,0,0,1,683,480c-1.32,0-1.76.79-2,3.53a14.24,14.24,0,0,0,.27,5c.35,1-.09,2.29-1.24,3.53-1.59,1.76-1.59,2-.35,2s1.5.79,1.5,3.08c0,2,.44,3.09,1.23,3.09,1.24,0,2.29,3.61,2.29,7.67,0,1.67.35,2,1.67,1.59a2.16,2.16,0,0,1,2.29.44,3.08,3.08,0,0,0,2.29.88c1.33,0,1.67.44,1.23,1.68-.26,1.06,0,1.85.88,2.2s1.32,0,1.32-.79c0-2,2.2-1.59,4.76,1.06,2.12,2.12,2.64,2.21,4.23,1.23,2.64-1.59,4.23.18,2.12,2.47-1.14,1.32-1.23,1.85-.44,2.38a1,1,0,0,0,1.5-.35c.71-2.12,2.12-1.06,1.59,1.23-.44,1.76-.26,2.38,1.23,2.73a2.44,2.44,0,0,1,1.85,1.94c.09.79.44-.18.79-2.12.88-4.5-.62-12.7-2.82-15-1.32-1.41-3.17-1.85-9.79-2.21l-8.11-.44-1.5-3.09c-1.41-2.91-1.94-9.08-1.68-19.57.18-4.06.27-4.23,4.76-6.7,9.7-5.47,28.31-14.55,32.19-15.61,1.06-.26,1.94-1,1.94-1.5s.44-.71,1.06-.53a3.52,3.52,0,0,0,2.64-1.23,5.28,5.28,0,0,1,3-1.59c2.11,0,14.46-10.23,14.46-12a4.87,4.87,0,0,1,1.15-2c1.94-2.2,4-9.08,4.14-12.87.09-1.94-.09-8.73-.35-15s-.71-20.81-1-32.18-.88-22.75-1.41-25.3c-.88-4.5-.88-4.5-5-5.47a93.43,93.43,0,0,0-10.93-1.32c-3.7-.17-7.23-.62-7.76-1-1.94-1.23-6.7.53-11.73,4.32-6.88,5.11-7.67,6.44-8.11,13.49-.18,3.26-.79,10-1.41,14.81-.88,7.41-.88,9.26.18,11.37a8.29,8.29,0,0,0,2.55,3.17c.71.35,2.65,1.23,4.23,2a15.23,15.23,0,0,0,4.94,1.5,17.86,17.86,0,0,1,9.88,3.7c2.29,2,4.5,8.91,3.09,9.35a15.28,15.28,0,0,0-3.53,2.47,10.87,10.87,0,0,1-3.35,2.12c-1.24,0-5.91,7.67-7.67,12.52-1.94,5.29-3,6.08-8.64,6.17-11.55.35-16.49-3.44-24.86-19.49-1.32-2.47-1.76-5.38-1.94-13.31-.09-5.56-.53-14.11-.79-19-1.32-20.37-1.15-19.93-6.44-21.69a15.34,15.34,0,0,1-4.67-2.29c-1.41-1.23-7.32-1.15-13.93.26-3.79.79-10.32-2.47-11.11-5.55a3.84,3.84,0,0,0-1.77-2.56c-.88-.35-1.06-1.06-.44-2.64a12.31,12.31,0,0,0,.18-5.47,20,20,0,0,1-.09-6.88,13.71,13.71,0,0,0-.79-7.85c-1.23-3.53-2.2-4.5-6.26-6.79-2.64-1.41-5.64-3.17-6.61-3.88a8.11,8.11,0,0,0-4.06-1.23,5.41,5.41,0,0,1-3.09-.79c-1.06-.88-9.79-1.94-10.49-1.23-1,1-6.26,1.06-10.23.18a69.37,69.37,0,0,0-10.14-1.23c-5.91-.35-6.44-.18-12.08,3.09-3.17,1.94-6.7,3.53-7.76,3.53a8,8,0,0,0-3.53.88c-.88.44-4.76.88-8.55,1a45.78,45.78,0,0,0-9.26,1c-4,1.5-9.17-1.23-15.43-7.94-3-3.26-5.55-6.17-5.55-6.52s-1.85-2.56-4.14-4.76c-2.91-3-4.94-4.23-6.79-4.32a20.23,20.23,0,0,1-5.2-1.15,8.31,8.31,0,0,0-4.5-.53c-1.41.35-2.2,0-2.56-.88C503.85,297.22,502.88,297.22,501.74,298.9Z"/><path class="cls-1" d="M778.6,301.1c-.26.44.27.88,1.32.88s1.59-.44,1.32-.88a1.43,1.43,0,0,0-2.65,0Z"/><path class="cls-1" d="M281.75,303.75c-.71.44-1,1.06-.62,1.41s1.15.18,1.68-.35C284.13,303.5,283.42,302.69,281.75,303.75Z"/><path class="cls-1" d="M277,309.57c-.62,1.67.09,3,1.59,3,.79,0,1.06-.79.7-2.2C278.84,307.89,277.78,307.5,277,309.57Z"/><path class="cls-1" d="M713.79,312.5c0,1.59,1.59,1.85,2.64.53.88-1.15.8-1.32-.79-1.32C714.68,311.68,713.79,312,713.79,312.5Z"/><path class="cls-1" d="M46.32,329.76c0,1.24.35,2.2.79,2.2s.53-1,.26-2.2-.53-2.2-.71-2.2S46.32,328.5,46.32,329.76Z"/><path class="cls-1" d="M51.26,329.94c-1,1-.53,2,.79,2,.71,0,1.32-.35,1.32-.79C53.38,330,52,329.23,51.26,329.94Z"/><path class="cls-1" d="M42.36,336.28c-.62,1.06,1.06,2.12,2.2,1.41s.35-2.2-.88-2.2A1.94,1.94,0,0,0,42.36,336.28Z"/><path class="cls-1" d="M62.37,337.34c-1.76.62-1.85,1.06-1.06,2.65l1.06,1.85L63.69,340C65.37,337.5,64.84,336.37,62.37,337.34Z"/><path class="cls-1" d="M254.15,337.78c-.7.71.09,2.12,1.23,2.12.44,0,.79-.62.79-1.32C256.18,337.25,255.12,336.81,254.15,337.78Z"/><path class="cls-1" d="M276.19,340.5a3.45,3.45,0,0,0-.62,2.2c0,2.29,2.12,1.5,2.47-.88C278.31,340,277.34,339.28,276.19,340.5Z"/><path class="cls-1" d="M64.84,342.81A3.55,3.55,0,0,0,66.6,345c1.59,1,1.76.88,1.76-1.15,0-1.59-.44-2.2-1.76-2.2C65.63,341.66,64.84,342.19,64.84,342.81Z"/><path class="cls-1" d="M65.72,348.72a.88.88,0,0,0,.88.88h0c.44,0,1.23.79,1.85,1.85.79,1.5.62,2.21-.88,3.79a7,7,0,0,0-1.85,4.26A5.86,5.86,0,0,1,64,363.29c-1.94,1.76-2,2.12-1,3.88,1.06,1.59,4.5-.26,4.5-2.47,0-1.76,2-3.88,2.91-3,.71.62,3.26-1.41,3.26-2.56,0-.53-1-.62-2.2-.35C69,359.4,69,359.4,70.2,354c.79-3.35.71-4.06-.62-5C67.75,347.66,65.72,347.5,65.72,348.72Z"/><path class="cls-1" d="M74.1,350.39a1.07,1.07,0,0,0,.4,1.41,1.8,1.8,0,0,0,2.64-1.41C77.18,349.33,74.8,349.33,74.1,350.39Z"/><path class="cls-1" d="M78.07,357.45a1.79,1.79,0,0,0,2.73,1.32c.71-.35.62-.79-.18-1.32C79,356.5,78.07,356.5,78.07,357.45Z"/><path class="cls-1" d="M117,359.3c-.09,2,1.32,4,2,2.73.35-.53.26-1-.26-1s-1.06-.71-1.23-1.59S117,358.33,117,359.3Z"/><path class="cls-1" d="M125.68,361.42a5.34,5.34,0,0,0,1.32,1.41c1.06.88,1.32.88,1.32-.35a1.38,1.38,0,0,0-1.32-1.41C126.3,361.06,125.68,361.24,125.68,361.42Z"/><path class="cls-1" d="M101,363.27c0,.79.53,1.06,1.32.79s1.06-.88.79-1.32C102.4,361.5,101,361.86,101,363.27Z"/><path class="cls-1" d="M638.85,368.91c0,.79,3.62,2,4.23,1.41.18-.18.09-.71-.26-1.24C642.11,367.94,638.85,367.76,638.85,368.91Z"/><path class="cls-1" d="M58.32,372.08c-1.85,2.82-1.76,3.09.79,3.09,1.23,0,2.2.35,2.2.88s.79.88,1.85.88c1.41,0,1.67-.35,1.15-2-.62-2.12-2.91-5-3.88-5C60.08,369.88,59.11,370.85,58.32,372.08Z"/><path class="cls-1" d="M56.9,378.17a1.39,1.39,0,0,0,1.37,1.41h0c1.5,0,1.23-1.94-.35-2.47C57.34,376.93,56.9,377.37,56.9,378.17Z"/><path class="cls-1" d="M160,593.22c1.23-.88,1.23-1.06-.18-1.67-1.15-.44-1.5-1.15-1.15-2.64.26-1.06.18-2.29-.35-2.56-1.23-.79-1.06-1.85.53-3.44,1.23-1.32,1.23-1.41-.44-1.41-2.47,0-3.17-1.59-1.5-3.44,1.85-2,1.85-3.7,0-3-1.23.44-1.23.26-.26-1.41.71-1,1.59-1.85,1.94-1.85s.09-.61-.62-1.41c-1.76-1.67-1.85-6.88-.09-8.29,1.32-1.06,1-5.64-.62-7.67-.44-.62-1-4.14-1.06-8a29.92,29.92,0,0,0-1.32-8.9,4.47,4.47,0,0,1-.44-3.44c.79-1.94.53-4-1-6.88a9.92,9.92,0,0,1-.7-5.38c.44-2.38.18-3.35-1-4s-1.41-1.5-1-3.26a15.62,15.62,0,0,0-.79-6.35,36.86,36.86,0,0,1-1.41-10.32c0-4.85-.35-6.52-1.32-6.88s-1.32-1.94-1.32-5.56c0-3.09-.53-5.73-1.41-7a4.27,4.27,0,0,1-1-3.18c.62-1.59-2.65-3.35-7.76-4-2.65-.35-4.32-1-4.23-1.67.26-1.15-3.61-2.38-4.94-1.59-.44.35-4.58.09-9.08-.44-8.29-1-13-2.82-13-5,0-.71-1.15-1.68-2.64-2.21-2.86-1-3.32-2.05-1.32-2.87.7-.35,1.15-.88.88-1.23-.62-1-5.73-.8-5.73.18,0,1.59-1.67.53-1.94-1.32-.18-1.32-.79-1.85-1.94-1.67s-1.5-.09-1.15-1.06S90.62,451,89,451c-1.76,0-2.2-.44-2.2-2.21,0-1.24.44-2.2,1-2.2s.71-.35.35-.8a1.07,1.07,0,0,1,.44-1.41c.44-.26.88,0,.88.71,0,1.59,6.17,5.55,9.88,6.35a55.84,55.84,0,0,1,7.67,2.73,24.32,24.32,0,0,0,6.79,2.12,3.64,3.64,0,0,1,2.56.88c.44.71,1,.62,1.85-.09s1.5-.62,2.56.44c1.59,1.59,3.35,1.76,5.55.71,1.59-.79,7.67.88,6.7,1.76-.27.35.35.35,1.41.09,1.41-.35,2,0,2.38,1.32a3.44,3.44,0,0,0,1.94,2.29,27,27,0,0,0,8-.35,52.92,52.92,0,0,1,5.47-.35c3.7-.09,5.64-.62,7.76-2.2s3.09-1.77,3.79-1.06c1.41,1.41,2.2,1.23,2.82-.79a2.62,2.62,0,0,1,2.82-1.76c2.91,0,2.2-2.12-.88-2.47-2.2-.26-2.29-.44-2-5.38.18-2.82.53-5.55.88-6.08.88-1.41-1-2.11-4-1.5-2.12.53-2.65.35-2.38-.53a3,3,0,0,1,2.56-1.5c3.35-.53,4-1.76,1.41-2.91-1.32-.62-2.38-1.59-2.38-2.21a2.28,2.28,0,0,0-1.32-1.59,5.51,5.51,0,0,1-2.24-2.5,7.77,7.77,0,0,0-3.7-3.08c-1.59-.71-3.44-1.5-4.14-1.94-3.62-2.29-9-4.41-9.7-4a3.14,3.14,0,0,1-2.47-.53c-1.32-.79-2.38-.79-4.58,0s-3.17.71-4.14,0c-.62-.62-1.41-.79-1.76-.53s-1,.09-1.5-.62a8.8,8.8,0,0,0-4-1.76l-3.09-.53,2.2,2.29,2.12,2.38-1.94-.53c-1.15-.26-2.29-.09-2.56.35-.79,1.32-2.12.88-2.12-.62,0-.88-.53-1.24-1.32-.88s-1.32.09-1.32-.35-1.06-.17-2.38.53c-3.09,1.59-4.32,1.59-4.94,0-.26-.7-2.73-1.41-6.79-1.76-6.08-.62-6.35-.7-5.91-2.82s-.71-3-1.32-1.15c-.26.71-1.68.44-4.23-.88-9.43-4.59-12.34-6.79-12.34-9.26,0-.71-.53-1.23-1.06-1.06s-.88.09-.44-.09c2-1.15-1.76-6.44-4.58-6.44-2,0-2.64-3.09-.71-3.79.71-.35.62-.53-.26-.53-1.67-.09-3.79-4.67-3-6.61.44-1.06,0-1.67-1.32-2A2.33,2.33,0,0,1,64,382.17c0-1.68-.71-1.85-3.7-1.06-1.67.44-2.73,2.65-1.59,3.35.53.35.88,2,.88,3.79a12.23,12.23,0,0,0,5.2,9.52,4.41,4.41,0,0,1,1.85,2.47,5.05,5.05,0,0,0,1.68,2.64,8.44,8.44,0,0,1,2.2,3.53c.71,2.73,8.11,8.82,13.84,11.37a23.17,23.17,0,0,1,6.88,4.5c3.35,3.61,7.67,4.23,29.18,4.41l19.84.18,6,2.82c5.11,2.38,5.91,3.09,5.47,4.5s0,1.94,1.94,2.38a13.86,13.86,0,0,1,3.53,1.41c.62.53,1.15.35,1.41-.35.27-.88.62-.88,1.5-.09s1,1.32.09,2.38-.62,1.59,1.23,3c2,1.67,2.12,1.76.44,2.21-1.5.35-1.76,1.24-1.76,4.85,0,5.47-1.32,6.88-6.7,7.76-3.35.44-5.82,0-15.34-3.17-10.14-3.35-11.9-3.7-16.49-3.17-5.47.61-5.29.7-21.87-8-1-.53-3.35-1.59-5.29-2.47a14.6,14.6,0,0,1-4.58-3c-.53-.88-3.26-3.26-5.91-5.29-4.76-3.7-4.94-3.7-9.7-3.17-3.7.53-5.2,1.15-6.17,2.73-1.76,2.65-1.06,4.23,2.65,6.61,1.67,1,3,2.21,3,2.65a8.69,8.69,0,0,0,2.2,3.08,23,23,0,0,1,3.44,4.59c1.59,3,7.23,8.9,10.49,11,1.32.88,2.38,2.12,2.38,2.82a1.28,1.28,0,0,0,1.23,1.32,8.85,8.85,0,0,1,3.79,2c5.73,4.76,10.4,6.52,18.43,7.14,12.52,1.06,20,2.21,22,3.62,1.67,1.06,2,2.38,2.47,9,.79,11.64,3.09,26.54,4.94,32a60.45,60.45,0,0,1,2.12,12.35c.35,4.14,1.41,11.46,2.38,16.31,1.85,9.44,3.53,31.3,2.56,32.45-.35.44-.26,2.56.18,4.85m133.85,32.45c15.25-.71,60.22-.88,62.34-.18,2.29.71,5.55-.79,5.55-2.56,0-.71-1.23-3.35-2.73-5.91-2.2-3.7-2.73-5.64-2.73-9.35,0-5.73,1.94-8.82,12-19.84l7.14-7.76,12.78.18c7,0,17.64.09,23.54,0,6.26,0,11.82.35,13.23,1,2.82,1.15,24.25,1.85,40.38,1.32,7.41-.26,9.26-.79,9.26-2.82,0-1.76-5-3.09-11.46-3-5.73.09-31.39-.79-40.65-1.32a49.17,49.17,0,0,1-10.14-2c-8.47-2.91-20.63-3.26-24.42-.79-1.59,1.15-3.7,1.32-9.52,1-25.92-1.41-26.72-1.59-29.36-6.35-3-5.47-3.44-7.23-4.14-15.25a71.76,71.76,0,0,1,3.62-28c.88-2.73,2.29-7.85,3.09-11.2,1.85-7.32,2.29-8,6-8.73,11.46-2.12,15.17-3.09,15.43-4,.79-2.47,12.87-21.69,17.55-28,2.82-3.88,6.17-8.46,7.32-10.32s3.09-3.53,4.06-3.79c1.15-.27,2.64-2.21,4-4.94,1.15-2.38,2.65-4.85,3.44-5.38a18.76,18.76,0,0,0,3.35-5.12c2-4.14,7.49-8.73,10.4-8.73,1.85,0,7.4-3.35,7.4-4.5,0-.44,1.06-1.06,2.47-1.32a24.11,24.11,0,0,0,5.29-2.29c2-1.24,5.82-2,12.61-2.73,9.43-.88,9.7-.88,11,1a4.32,4.32,0,0,0,2.91,1.94c1.76,0,4.5,2.64,4.5,4.32,0,.62.71,1,1.59.79a4.94,4.94,0,0,1,2.38.26,9,9,0,0,0,4-.18c1.67-.26,2.38-.62,1.59-.7-2.21-.18-5.12-3.26-5.12-5.38a2.37,2.37,0,0,0-1.06-2.12c-6.09-1.67-8.64-2.73-8.64-3.35,0-.35-1.32-.71-3-.71s-3.35-.44-3.62-.88-1.59-.62-2.82-.35c-1.41.35-2.56.18-3.09-.62-.71-1-.71-.88-.35.35.44,1.5.09,1.59-3.17,1.41a16.72,16.72,0,0,0-7.23,1.23c-3.88,1.76-4.94,1.85-4.94.62a.81.81,0,0,0-.74-.88h-.05c-.44,0-.71.71-.62,1.5.09,1.15-.44,1.5-1.94,1.32a2.09,2.09,0,0,0-2.47,1.15,1.82,1.82,0,0,1-2.35,1.05l-.12-.05c-1.94-.44-5.82,2.12-5.82,3.79a1.12,1.12,0,0,1-1.23,1h0a4.31,4.31,0,0,0-2.65,1.85c-1,1.5-1.76,1.76-4.06,1.23-3-.62-5.2,1.15-5.29,4.23,0,.88-1.23,3.17-2.82,5a23.32,23.32,0,0,0-3.79,6.26,7.47,7.47,0,0,1-4.23,4.59c-1.76.88-3.26,2.29-3.26,3.09-.09,2.47-3.17,5.55-5,4.94-1.15-.35-1.32-.27-.35.35,1.41,1.06-.18,4.58-2.12,4.58-.7,0-1.5,1.23-1.85,3.08a13.44,13.44,0,0,1-4,6.35c-1.85,1.85-3.44,4-3.44,4.67s-1.76,3.26-3.88,5.64-3.7,4.76-3.44,5.47,0,1.24-.62,1.24-2,1-3.09,2.11-2.56,2.12-3.17,2c-3.62-.26-8.64,1.5-9,3-.26,1-.79,1.67-1.23,1.59a4,4,0,0,0-4.76,4.67.72.72,0,0,1-.73.71H340c-.53,0-1.32.88-1.76,1.94a29,29,0,0,1-1.67,3.35,13.57,13.57,0,0,0-1.41,3.7c-.26,1.41-1.06,2.47-1.85,2.47-1,0-1.15.53-.79,1.85s.18,1.94-1.32,2.29-1.76,1-1.41,2.56a3.52,3.52,0,0,1-.79,3.35,4.5,4.5,0,0,0-1.32,2.56c0,1.68,2.65,6.79,3.53,6.79.35,0,1,.62,1.23,1.5.71,1.77-2.82,5.82-4.5,5.2a.78.78,0,0,0-1.15.79c0,.62.88,1.32,2,1.5,1.76.26,1.94.79,1.94,5.2,0,4,.26,4.85,1.32,4.49s1.15-.17.26.8c-1.76,1.85-1.41,3.35,2.47,11.11,3.09,6.09,4.06,7.32,6.26,7.76,1.41.35,2.82,1.15,3,1.76.35.88,1.23,1,3.26.35s3.09-.44,4.32.62a3.15,3.15,0,0,0,3,.88c1-.35,1.32-.18,1,.7a2.31,2.31,0,0,0,.53,2.21c.79.79.53,1.15-.88,1.5-1.15.35-1.76,1-1.41,1.76s-.09,1.23-1,1.23-1.41.71-1.41,1.85a2.38,2.38,0,0,1-1.67,2.29c-1.06.26-1.5,1-1.23,1.67s0,1.23-.53,1.23-1,.79-1,1.76-.35,1.76-.88,1.76-.88.62-.88,1.32a1.38,1.38,0,0,1-1.41,1.32c-1.06,0-1.32.62-1,2.38a12.22,12.22,0,0,1-.44,5.29c-.88,2.38-.79,3.09.53,4.5,2.64,3,.09,8.2-2.65,5.47-.62-.62-1.68-.35-3.17.88a8.13,8.13,0,0,1-8.64.88c-1.15-.62-1.85-.62-2.2,0a1,1,0,0,1-1.32.44c-.35-.27-4.06-.62-8.29-.79-6.08-.27-7.58-.09-7.58.88,0,1.76-2.65,1.59-4-.26-1-1.32-1.5-1.32-3.17-.53-2.56,1.32-12.87,1-15.52-.44M86.09,440.68A21.56,21.56,0,0,0,86,443.5c0,1.41-.53,2.2-1.32,2.2-1.32,0-1.94-4.41-.71-5.64C84.68,439.36,86.18,439.8,86.09,440.68Zm80.85,15.43c.18.62-.26,1.06-1.06,1.06a1.39,1.39,0,0,1-1.41-1.37s0,0,0,0C164.5,454.26,166.42,454.5,166.94,456.11Zm-25.39,6.39c0,.44-.62.8-1.32.8-1.32,0-1.76-1.06-.79-2C140.14,460.61,141.55,461.4,141.55,462.5Zm196.19,50.4a22,22,0,0,1-1.76,3.88,13,13,0,0,0-1.5,4.41c-.18,2-.71,2.56-2.47,2.56-2.29,0-2.38-.26-1.23-5.29.62-2.47,5.11-7.41,6.79-7.49C338,511,338,511.84,337.74,512.9Z"/><path class="cls-1" d="M742.63,390.69c-.71.71.26,3,1.23,3s1.06-2.38,0-3A1.06,1.06,0,0,0,742.63,390.69Z"/><path class="cls-1" d="M143,411.94a20.63,20.63,0,0,1-1.06,2.65c-.26.62-.09,1.15.35,1.15s1.32-1.23,1.85-2.64.53-2.65.18-2.65S143.31,411.15,143,411.94Z"/><path class="cls-1" d="M473.08,417.14c0,1.23.26,1.23,1.32.35a5.39,5.39,0,0,0,1.32-1.41c0-.18-.62-.35-1.32-.35A1.38,1.38,0,0,0,473.08,417.14Z"/><path class="cls-1" d="M503.06,422c-2.12,1.59-2.12,1.67-.35,1.67,2,0,4.41-2.21,3.26-2.91C505.5,420.5,504.21,421,503.06,422Z"/><path class="cls-1" d="M507.56,424l-2.21,1.23L509,427.1a14.8,14.8,0,0,1,4.23,2.73,3.65,3.65,0,0,0,2.56.88,4.75,4.75,0,0,1,3.17,1.32,8.94,8.94,0,0,0,4.41,1.85c2.91.44,3.44,1,3.88,3.35a24.2,24.2,0,0,1,.62,4.23,2.34,2.34,0,0,0,.88,2c.44.35.53,2.12.26,4-.44,2.82-.26,3.53,1.32,4.32s1.94.79,2.38-.35c.26-.7.88-1.06,1.41-.79a1.41,1.41,0,0,1,.35,1.67c-.44,1.32,2.21,4.85,3.79,4.85.53,0,.88.88.71,1.94-.18,1.59,1,2.56,6.35,5.38,7,3.62,11.64,6.61,12.61,8.11,1.23,2,11.55,15.25,15.78,20.28,5.11,6.09,14,21.43,14,24.16a4.78,4.78,0,0,1-2.2,3.26c-1.23.79-2.21,1.94-2.21,2.56,0,2.56-9.35,5.91-16.31,5.91-1.67,0-3.35.35-3.61.79s-1.59.79-3,.79a5.64,5.64,0,0,0-3.7,1.23,6.6,6.6,0,0,1-2.91,1.5c-2.64.53-3.61,5.38-1.85,9.08.79,1.67,2.12,3.26,3,3.53,1.77.62,4.06,5.38,3.44,7-.26.71-1.85,1.5-3.44,1.85a50.33,50.33,0,0,0-11.46,3.61,10.14,10.14,0,0,1-4,1.23c-1.76,0-5.56,3.44-5.56,5,0,1.15,3.09,4,4.06,3.61,1.41-.35,10.32,2.12,14.9,4.14,6.44,2.82,11.73,3.53,13.67,1.76a10.61,10.61,0,0,1,5.2-1.76,13.6,13.6,0,0,0,4.67-1.06c2.73-1.68,7.67-2.91,12.17-2.82,4,0,5.38.44,7.85,2.56s2.82,2.73,1.85,4a45.23,45.23,0,0,0-3.17,5.73c-1.94,4.14-5.47,9.35-12.17,17.63-1.76,2.21-3.17,4.41-3.17,5s-.79,1.5-1.76,2a3.19,3.19,0,0,0-1.76,2.21,2.68,2.68,0,0,1-1.41,2c-1.76,1-4.06,7-3.44,9.08.79,2.47,4.41,3.79,7.32,2.65,4.32-1.85,11.11-9.79,12.08-14.28.88-4.06,3.62-5.29,10.14-4.67,3.08.26,21.07.7,40,.88s35.71.26,37.3.35a5,5,0,0,1,4.23,2l1.47,2.07,2.21-2.56c1.58-1.85,2.11-3.09,1.67-4.41-1.06-3.09-.7-6.09.79-7.23a3.19,3.19,0,0,0,1.41-1.68c0-1.5-2.82-3.79-4-3.35s-1.06.79.26,2.2c1.5,1.68,1.5,1.76,0,2.91a4.14,4.14,0,0,0-1.5,3c0,2.38-.26,2.29-3.17-.35s-3.88-2.82-3.88-.44c0,2.12-3.09,2.47-3.88.35-.71-1.94-2.2-.7-1.67,1.41s-1.15,2.29-3.88.44c-1.06-.71-2.12-1-2.38-.53-.71,1.06-7.41,1.06-8,0s-4-1.06-4,.09c0,1.41-2.38,1.06-3-.44-.62-1.67-4.06-1.67-6.35,0s-3,1.68-3-.26c-.09-1.32-.18-1.32-1.41.26s-1.32,1.68-1.76-.26c-.35-1.06-.88-1.68-1.32-1.41a1.06,1.06,0,0,0-.26,1.41c.35.53-.09.7-1.15.35a7.2,7.2,0,0,0-4.23.35c-1.76.71-2.73.62-3.61-.09s-2.91-.79-5.38-.53c-2.29.27-4.76,0-5.64-.53-1.23-.79-1.94-.62-3.17.44-2.12,1.94-6.61,1.5-7-.53-.35-2.65-1.24-2.73-1.24-.26,0,2.73-2,3.26-3.44.79-.88-1.41-1.06-1.41-2.29.18-1.41,1.85-3.44,1.41-4.85-1.15-.79-1.5-.7-1.85.44-1.85s1.33-.53.88-1.85a2.36,2.36,0,0,1,1.06-3c.88-.7,1.24-1.32.79-1.32s.09-1,1.24-2.21c1.67-1.76,1.94-2.73,1.41-5.73-.44-2.73-.18-4,.88-5.11,1-.88,1.14-1.5.44-1.76a2.16,2.16,0,0,1-1-2c0-.88-.44-1.68-.88-1.68a6.34,6.34,0,0,1-2.91-2,8.54,8.54,0,0,0-3.08-2c-.62-.09-1.68-.18-2.47-.26s-1.06-.53-.79-1c1-1.5-.44-2.82-1.76-1.76a2,2,0,0,1-2.21.44c-.44-.26-1.76.09-2.82.79a9.43,9.43,0,0,1-4.76,1.41c-1.59,0-3,.53-3.26,1.06-.18.7-.71.79-1.15.35s-.35-1,.35-1.15c.53-.26,1.06-.79,1.06-1.23,0-1.41-2.38-.8-4.5,1.23-1.23,1.06-2.82,1.85-3.7,1.68a1.89,1.89,0,0,0-2,1.06,2.5,2.5,0,0,1-2.29,1.41c-1.32,0-1.59-.44-1.15-1.76.53-1.67.27-1.76-2.91-1.23a10.17,10.17,0,0,1-6.35-.88c-1.59-.71-3.17-1.15-3.62-.88-1.59,1-.7-1.41,1.15-3.18a6,6,0,0,1,5.11-1.59c2.29.18,3-.09,2.82-1a3.78,3.78,0,0,1,.88-2.65,35.84,35.84,0,0,0,2.82-4.67c1.5-3,1.5-3.35.18-4.67a4.81,4.81,0,0,1-1.41-2.29c0-.44-.7-.79-1.5-.79-1.32-.09-1.24-.26.35-1.15s1.68-1.41,1.06-2.64a3.29,3.29,0,0,0-2.12-1.5c-.7,0-1.32-.35-1.32-.79,0-1.85,1.85-1.85,5.38-.09l3.62,1.85-.62-1.76c-.71-2.29,1.59-3.44,3.61-1.77,1.23,1,1.59.88,2.65-.53a5.87,5.87,0,0,0,1.23-2.29c0-.35.79-.44,1.85-.18a3.85,3.85,0,0,0,3.61-1.5c1.23-1.32,2-1.67,2.29-1.06.44,1.5,2.56,1.32,3.17-.26.27-.79,1.68-1.85,3.17-2.29,2.74-1,3.62-2.56,1.32-2.56a1.28,1.28,0,0,1-1.32-1.23,3.92,3.92,0,0,1,1.32-2.29,3.71,3.71,0,0,0,1.32-2.2,5.42,5.42,0,0,1,1.76-2.65l1.76-1.59L592,513c-1.94-1.94-1.94-2-.26-3.88s1.59-1.76-.62-1.23c-2,.53-2.38.26-2.82-2.12a10.52,10.52,0,0,0-2.56-4.5l-2-1.94,2-1.32c2.56-1.76,2.47-2.91-.18-2.91-2,0-3.35-1.85-3.53-4.85a11.49,11.49,0,0,0-2.47-3.44c-1.41-1.41-2.47-3.26-2.47-4.14s-.53-1.68-1.14-1.68-1.59-1.23-2.12-2.65-1.5-2.65-2-2.65c-.88,0-.88.27,0,1.32s.79,1.41-.44,1.85a3.24,3.24,0,0,1-4.41-3.17,2.78,2.78,0,0,0-1.85-2.64,13.78,13.78,0,0,1-4-3.26,21.42,21.42,0,0,0-4-3.44,4.92,4.92,0,0,1-2-2.65c-.53-2.91-1.85-4-3.79-2.91-1,.53-2,.62-2.29.26s-.09-.79.53-1c1.41-.53,1.41-2.91-.09-2.91a3.53,3.53,0,0,0-2,.88c-1.23,1.23-4.23-1.23-6.08-4.85-.7-1.5-1.32-2-1.32-1.23a2.32,2.32,0,0,1-1.76,1.94c-1.94.53-3.26-.71-1.76-1.59.62-.35.71-1.67.44-3.17-.53-2.2-.35-2.56,1.32-2.56,1.15,0,1.76-.44,1.59-1.06a2,2,0,0,0-1.67-1.15c-2.38,0-6.17-3.26-5.64-4.85q1.06-3.57-3.17-5.29c-2.64-1.15-3.17-2.12-1.67-3.09,1.15-.7,1.15-2.2-.09-2.2a13.4,13.4,0,0,1-3.7-1.23c-2.56-1.14-13.58-4.94-14.11-4.94A23.08,23.08,0,0,1,507.56,424Z"/><path class="cls-1" d="M466,425.07c0,1,1.15,2.38,2.47,3.35,2.56,1.68,4.59,5.11,4.59,7.67a2.46,2.46,0,0,0,1.59,2,12.43,12.43,0,0,1,3,1.59c1.68,1.23,3.53.53,11.46-4.76a9.12,9.12,0,0,1,3.62-1.59,6.93,6.93,0,0,0,3.17-1.67,11.47,11.47,0,0,1,4.5-2.29,7.34,7.34,0,0,0,3.53-1.76c.79-1,.35-1.5-2.29-2.65-2.91-1.15-3.35-1.23-4.23,0-1.32,1.85-12.17,3.88-12.7,2.38-.53-1.67-1.94-1.24-1.94.62,0,3.17-1.06,4.5-3.44,4.5a5.51,5.51,0,0,0-3.46,1c-.62.62-1.06.71-1.06.35s.71-1.23,1.5-1.85c1.24-1,1.32-1.32.35-2.47a2.37,2.37,0,0,1-.53-2.38c.27-.44-.17-.88-1.23-.88-.88,0-1.85-.35-2-.79s-1.76-1.06-3.53-1.41C466.5,423.58,466,423.66,466,425.07Zm22,5.64c-1.67,1.15-2.64,1.15-2.64,0,0-.53.88-.88,2-.88,1.65,0,1.74.18.68.89Z"/><path class="cls-1" d="M735,442c0,1.15,3.17,3.79,3.71,3.18.35-.27-.18-1.23-1.15-2.21C735.66,441.13,735,440.86,735,442Z"/><path class="cls-1" d="M552.62,443.24c.53,1.59,2.47,1.85,2.47.35a1.39,1.39,0,0,0-1.37-1.41h0C552.88,442.18,552.44,442.62,552.62,443.24Z"/><path class="cls-1" d="M719.61,449.06a1.13,1.13,0,0,0,.44,1.5c1.32.88,2.21-.26,1.06-1.41C720.5,448.5,720,448.5,719.61,449.06Z"/><path class="cls-1" d="M449.72,450.12a2.49,2.49,0,0,0,1.85.88c.7,0,1.23-.44,1.23-.88s-.79-.88-1.85-.88S449.5,449.59,449.72,450.12Z"/><path class="cls-1" d="M285.8,456c-1,1-.53,2,.79,2,.71,0,1.32-.35,1.32-.79C287.92,456.11,286.5,455.32,285.8,456Z"/><path class="cls-1" d="M569.72,456.11A2.44,2.44,0,0,0,570,458c.53.88.88.8,1.23-.26C571.75,456.29,570.5,454.88,569.72,456.11Z"/><path class="cls-1" d="M270.9,458.67c-1.06,1.06-.62,1.94.71,1.5.7-.35,1.32-.88,1.32-1.32C272.93,457.88,271.69,457.79,270.9,458.67Z"/><path class="cls-1" d="M634.88,459.73c3,1.85,3.88,1.68,2.21-.35a4.51,4.51,0,0,0-3-1.32C632.5,458,632.59,458.23,634.88,459.73Z"/><path class="cls-1" d="M264.64,459.73c-1.68.62-1.59.71.35,1.23,2.29.62,3.79,0,3.09-1.23C267.5,458.85,266.93,458.85,264.64,459.73Z"/><path class="cls-1" d="M277.34,459.82c0,.44.62.88,1.32.88s1.32-.44,1.32-.88-.62-.88-1.32-.88S277.34,459.29,277.34,459.82Z"/><path class="cls-1" d="M501.21,461.23a46.34,46.34,0,0,1-3.88,3.35c-2.38,1.94-2.47,2.29-1.5,4.41a5.66,5.66,0,0,0,2.55,2.91c1.86.71,6.09,5,7.41,7.58.88,1.5,1.15,1.59,2.29.35s1.23-1.67-.09-4.23a12.33,12.33,0,0,1-1.41-4.06c0-1.68,1.59-1.41,2,.35.35,1.23.44,1.15.53-.35.09-2.65,1.41-3.27,4.5-1.85,2.82,1.23,3.53,2.47,1.32,2.47-.71,0-1.32.35-1.32.88s.53.62,1.23.35a1.41,1.41,0,0,1,1.76.44c.44.61,1.23.61,2.73-.09,2.64-1.15,5.64-.27,4.15,1.23a6.17,6.17,0,0,0-1.06,3.7c0,4.94-.88,6.53-2.91,6a10.54,10.54,0,0,1-3-1.23c-.71-.53-1.32-.26-2,1a3.43,3.43,0,0,1-2.64,1.85c-1.85,0-2.38,1.32-.88,2.21a1.66,1.66,0,0,1,.88,1.23c0,1.23-4,5.38-5.11,5.38a1.07,1.07,0,0,0-1.06,1.06c-.09.62-.88.18-1.76-1-1.41-1.67-2-1.85-3.09-1a3.52,3.52,0,0,1-3,.44c-2-.62-3.44,1.15-1.5,1.85,2.12.79,1.68,2-.53,1.5-2.38-.62-5.91-2.91-4.5-2.91a4.82,4.82,0,0,0,2.47-1.41,6.73,6.73,0,0,1,4.06-1.59c3-.09,3.17-1,.79-4.06-1.59-2.12-1.67-2.12-2.91-.53-.79,1.06-1.67,1.41-2.38,1s-2.29.62-4.5,3.08c-2.73,3-3.79,3.62-5.38,3.09a13.85,13.85,0,0,0-7.58,0c-1.59.35-2.21.09-2.47-1.06-.79-2.91-8.55-5.47-10.49-3.44q-3.31,3.18,2.12,3.18c2.12,0,3.88.53,4.59,1.41,1.06,1.32,1,1.41-.79.88s-1.94-.35-1.94,1.76c0,2.29-.09,2.38-1.23.79a2,2,0,0,0-2.66-1l-.16.08c-2.29,1-4.76.88-7.67-.35a15.16,15.16,0,0,0-3.44-1,47.1,47.1,0,0,1-8.65-2.42,5.06,5.06,0,0,0-2.21-.26,2.19,2.19,0,0,1-1.76-1.15,4.48,4.48,0,0,0-3.62-1.15c-2.29.17-2.56-.09-2.29-2.21a3.78,3.78,0,0,0-.62-2.91c-1.15-.7-1.23-4.58-.18-5.29a1.07,1.07,0,0,1,1.41.44c.88,1.41,2,1.06,3.09-1,.71-1.23.71-2.12.09-2.91s.09-1.06,4.06-1.06c4.67.09,5-.09,5.91-2.38,1-2.56,2.2-3,3.88-1.32.88.88,1.5.88,2.91,0,2.11-1.32,5.2-.62,5.2,1.23a6.21,6.21,0,0,1-2,3.26c-1.59,1.5-1.94,2.56-1.5,4.58.27,1.76.71,2.29,1.15,1.5a3.62,3.62,0,0,1,2.55-1.06c1.41,0,1.68.44,1.24,1.94a22.17,22.17,0,0,0-.53,2.64c0,.44-.79.7-1.76.7-2.38,0-2.21,1.24.44,2.47s3.09.53,3.44-3.79a9.09,9.09,0,0,1,.88-3.7,6.18,6.18,0,0,0,.53-2.91,12.92,12.92,0,0,1,2.12-5.55c2.38-3.44,2.2-4.14-1-4.14-1.06,0-2-.44-2-.88a8.28,8.28,0,0,0-2.29-3.09c-2-1.94-2.91-2.12-7.58-1.76-3.7.26-6,1.06-8,2.56-1.76,1.41-4.94,2.56-8.47,3.08-3.17.53-6.08,1.32-6.52,1.77-.88.88-2.47,4.94-6.17,15.78-1.41,4.14-1.68,5.9-1,7,1.14,1.77,10,4.85,18.43,6.35a62.82,62.82,0,0,1,10.14,2.82c16.75,7.23,28.65,8.2,39.33,3.35a86.09,86.09,0,0,1,13-4.5c7.14-1.76,8.64-2.65,19-11.82,7-6.17,9.44-14.11,5.64-18.34a20,20,0,0,1-3-4.5c-1-2-2.2-2.91-5.38-3.7-2.29-.53-4.32-.8-4.58-.53s-1.24-.18-2-.88C510.73,460.34,502.8,459.55,501.21,461.23ZM517,489.8c-1.15,1.76-2.56,2.2-3.71,1.15-.26-.35.35-1.15,1.41-1.76,2.92-1.6,3.54-1.42,2.3.61Zm-28.66,8.29c.62,1.67-1.59,3.53-3.35,2.82a1.77,1.77,0,0,1,.26-3.44c2.57-.71,2.66-.62,3.1.61Zm-10.85.88v1.15c0,.44-1,1.15-2.11,1.67-1.85.88-2.29.8-2.82-.44-.35-1-.7-1.06-1-.35-.44,1.15-2.91,1.59-2.91.53,0-1.76,2.91-3.53,5.73-3.35,1.71.08,3.13.43,3.13.79Zm6,3.35c-.53,1.59-2.47,1.85-2.47.35a1.39,1.39,0,0,1,1.37-1.41h0c.8,0,1.24.44,1.08,1Z"/><path class="cls-1" d="M559.67,463.34c1.32,2.12,2.91,2.38,2.12.35a13.76,13.76,0,0,1-.53-1.76c0-.18-.62-.35-1.32-.35C558.79,461.58,558.79,461.84,559.67,463.34Z"/><path class="cls-1" d="M416.3,469.25c-1,1-.53,2,.79,2,.71,0,1.32-.35,1.32-.79C418.41,469.34,417,468.5,416.3,469.25Z"/><path class="cls-1" d="M645.9,473.92c-1.06.62-1.06,1.06-.26,1.85,1.32,1.32,2.29.62,1.85-1.32C647.31,473.5,646.87,473.31,645.9,473.92Z"/><path class="cls-1" d="M499.89,483.18c-.79,1.67-.79,2.38.18,3.17,1.94,1.59,3.79.27,3.7-2.64C503.68,480.36,501.3,480,499.89,483.18Z"/><path class="cls-1" d="M504.65,488.38c-.53,2.47,1.76,4.06,3,2.12,1.06-1.68.44-3.7-1.15-4.06C505.5,486.27,504.91,487,504.65,488.38Z"/><path class="cls-1" d="M445,490.76a2.52,2.52,0,0,0,1.5,1.5c.71.26,1.06-.09.79-.79a2.51,2.51,0,0,0-1.5-1.5C445.13,489.71,444.78,490.06,445,490.76Z"/><path class="cls-1" d="M48.09,491.56c-1.06.71-.79.88,1.15.88,1.32,0,2.38-.44,2.38-.88C51.61,490.41,49.85,490.41,48.09,491.56Z"/><path class="cls-1" d="M53.82,492.26c1.23,1.23,5.55,1.67,5.91.61.18-.53-1.32-1-3.26-1.15C54.17,491.56,53.2,491.73,53.82,492.26Z"/><path class="cls-1" d="M65,494.38c-3.26,2-3.61,3.79-.88,4.5a4.57,4.57,0,0,0,2,.35c0-.09.71-1.41,1.59-3C69.69,492.7,68.72,492,65,494.38Z"/><path class="cls-1" d="M451.92,493.32c0,.44.62.88,1.32.88s1.32-.44,1.32-.88-.62-.88-1.32-.88S451.92,492.79,451.92,493.32Z"/><path class="cls-1" d="M84.24,494.64a1.32,1.32,0,1,0,1.32-1.32A1.36,1.36,0,0,0,84.24,494.64Z"/><path class="cls-1" d="M79,496.41c0,.71.44,1.32.88,1.32s.88-.62.88-1.32-.35-1.32-.88-1.32S79,495.7,79,496.41Z"/><path class="cls-1" d="M696.16,520.21c-.62.79-1,1.59-.7,1.76s1-.09,1.59-.88,1-1.59.71-1.76S696.78,519.42,696.16,520.21Z"/><path class="cls-1" d="M692.28,526.3c.61,1.68,3.35,1.94,2.82.26a3,3,0,0,0-1.85-1.32C692.19,525.06,691.93,525.33,692.28,526.3Z"/><path class="cls-1" d="M705.5,527.36c-1.14,3.09-.62,4.85,1.41,4.58,1.59-.18,1.94.18,2,1.85a2.8,2.8,0,0,0,1.23,2.56c1,.35,1.15-.27.62-2.56a7.23,7.23,0,0,0-1.32-3.44,6,6,0,0,1-1.32-2.47C707.36,525.59,706.3,525.33,705.5,527.36Z"/><path class="cls-1" d="M698.63,532.74c-.88.18-1.59.79-1.59,1.23,0,1.23,1.76,1,3.18-.53C701.63,532.12,701.36,532,698.63,532.74Z"/><path class="cls-1" d="M702.42,540.14c2.47,2.65,4.32,2.82,4.32.26,0-.71-.88-1.23-2.2-1.23s-2.21-.44-2.21-.88-.53-.88-1.23-.88S700.83,538.38,702.42,540.14Z"/><path class="cls-1" d="M698.5,543.23c-.79.88.17,2.12,1.59,2.12.79,0,1.06-.53.79-1.32C700.39,542.61,699.42,542.35,698.5,543.23Z"/><path class="cls-1" d="M697,550c0,1.59,2.12,3.44,2.91,2.65,1.06-1,.71-1.94-1.15-2.91C697.39,549,697,549,697,550Z"/><path class="cls-1" d="M696.16,558.57c0,3.18,2.47,3.7,4.14.88,1-1.41.88-1.85-.53-2.65C697,555.4,696.16,555.75,696.16,558.57Z"/><path class="cls-1" d="M691.75,560.69c0,.62,1,1.41,2.2,1.59,2.56.53,2.65.44.8-1.41C693.07,559.1,691.75,559,691.75,560.69Z"/><path class="cls-1" d="M806,562c-.26.44.09,1,.79,1.32s1.32,0,1.32-.79C808.14,561.13,806.73,560.77,806,562Z"/><path class="cls-1" d="M691.22,575.06c-.26.88-1,2.47-1.41,3.53a5.56,5.56,0,0,0-.35,3.53c.62,1.5.71,1.5,1.94-.09a7.43,7.43,0,0,0,1.23-3.7,3.48,3.48,0,0,1,.88-2.56c1.32-.79,1.06-2.2-.44-2.2A2.17,2.17,0,0,0,691.22,575.06Z"/><path class="cls-1" d="M512.76,591.5c-3.61,1.41-7.23,1.94-14.55,2.12-10.4.26-16.31,1.59-23.89,5.11-4.67,2.2-4.85,2.2-9.87.88-2.73-.79-6.7-1.85-8.82-2.21a29.31,29.31,0,0,1-5.29-1.67c-1.94-1.06-3.26-1.15-19.13-1.32-9.17-.09-14.37.27-16.93,1.15-3.17,1.06-4.5,1.06-10.58-.35-3.79-.79-8.64-2-10.76-2.73-5.29-1.68-5-1.68-7.58,2.29-1.67,2.65-2.91,3.62-5.38,4.06-1.68.26-3.35,1.06-3.62,1.76s.71,3.53,2.12,6.35c2.12,4.5,3.44,5.91,8.55,9.35,3.35,2.21,6.26,4.06,6.44,4.06a19.5,19.5,0,0,1,3.26,2.2c2.47,1.85,3.09,3.09,3.53,6.7.35,2.64.26,4.94-.26,5.55s-1.5,4.23-2.29,8-1.85,7.5-2.38,8.11a1.8,1.8,0,0,0-.26,1.94,43.18,43.18,0,0,1,.79,7.58c.18,3.7.62,7,.88,7.23s-.24,1.57-1.24,2.84c-1.94,2.73-2.29,5.73-.79,6.7.62.35.79,1.85.44,3.88-.62,4.14.53,5.73,10,13.58,4.32,3.61,7.76,5.82,9.08,5.82a18.13,18.13,0,0,1,5.82,1.76,22.3,22.3,0,0,0,8.11,1.85c2.56.09,4.85.62,5.38,1.32,1.41,1.67,6.88,1.59,7.5-.09.53-1.32-3.53-6-5.38-6.17a29.86,29.86,0,0,1-3.35-1.15c-2.91-1.23-4.32-.71-3.53,1.23a2.67,2.67,0,0,1-1.15,2.56c-2.12,1.5-3,1-2.38-1.41.44-1.5.17-1.76-1.59-1.5s-2-.09-1.85-1.41-.09-1.59-2.38-1.15c-2.64.53-2.73.44-2.29-1.85.26-1.32.18-1.85-.09-1.32-.88,1.94-3,1.23-5.38-1.5-1.76-2.11-2.47-2.47-3.44-1.67s-1.68.71-3-.53a5.36,5.36,0,0,1-1.76-3.09,3.55,3.55,0,0,0-1.23-2.56,8.85,8.85,0,0,1-1.94-3.88,6.7,6.7,0,0,0-1.94-3.79c-1.06-.79-1.06-1.15-.18-1.68.71-.44,1.59-.09,2.29.8,1.59,2.2,3,1,3-2.65,0-2.12-.44-3-1.32-3-1.5,0-1.85-3.09-.44-4,.7-.44.62-1-.09-1.85s-.71-1.32.44-1.77a2.06,2.06,0,0,0,1.41-1.76c0-.62-.53-1-1.23-.71-1.94.79-2.65-1.41-1-3.17a4.67,4.67,0,0,0,1.15-4c-.26-1.23-.09-2.2.35-2.2s.71-.53.44-1.23c-.53-1.23.53-5.11,2.29-9.08.44-1.06.62-4.14.35-6.88-.44-4.5-.35-4.85,1.41-4.94s1.85-.09-.18-.88c-1.59-.62-1.94-1.32-1.67-2.91s0-2.29-1.23-2.56c-.88-.26-1.59-.09-1.59.44s-.35.62-.79.35c-1-.62-.18-4,.88-4a.79.79,0,0,0,.79-.79h0c0-.53-1.67-1.23-3.61-1.59-2.2-.44-4.06-1.41-4.67-2.47a28.49,28.49,0,0,0-3.79-4.5c-1.85-1.76-2.91-3.62-2.91-5,0-1.94.53-2.38,3.26-2.91a12.72,12.72,0,0,1,5.82.35,7.07,7.07,0,0,0,3.88.44,2.15,2.15,0,0,1,2.47,1c1,1.23,1.32,1.32,2.29.26a10.85,10.85,0,0,1,3.79-1.85c2.29-.53,2.47-.44,1.41.79-1.59,1.94-.35,2.82,1.59,1.06a6.3,6.3,0,0,1,4-1.5,3.83,3.83,0,0,0,2.82-.88c.26-.44,3.7-.62,8-.35,4.85.26,7.94.09,8.73-.53s1.94-.53,4.32.88c2.91,1.59,3.26,1.59,3.79.35s.62-1.32,1.67,0c.88,1.23,1.41,1.32,2.91.53,1.68-.79,1.85-.7,1.85,1.32,0,1.23.44,2.2.88,2.2a.88.88,0,0,0,.88-.88h0c0-.53.62-.88,1.32-.88s1.32.44,1.32,1,.53.62,1.06.26c1.94-1.23,7.23-.26,9.26,1.59,1.76,1.67,2,1.67,2.56.35.79-2,2.64-1.76,4.23.53l1.41,1.94v-1.94c0-1.5.53-1.94,2.2-1.94,1.24,0,2.21-.35,2.21-.79,0-.71,3.09-1.67,7.5-2.29,1-.18,3.53-.71,5.73-1.32,3-.7,4.41-.7,5.91.09,1.67.88,2.29.79,3.53-.26,2.2-1.94,4-2.38,5.73-1.41,1.06.53,2.47.26,4.32-.71s3-1.15,3.7-.44a3.14,3.14,0,0,0,5-.79c1-1.85,3.88-2.38,4.85-.88a3.82,3.82,0,0,0,2.73.88c1.14,0,2.11.26,2.11.62s1.06,1.15,2.29,1.76c1.76.8,2.29.8,2.64-.17.79-1.85,8.2-1.41,9.26.62s-.79,2.29-2.64.44c-1-.88-1.15-.53-.62,1.85.35,2,.18,2.82-.62,2.65-1.23-.18-5.73,4-8,7.41-.88,1.41-2.12,2.47-2.74,2.47s-1,.71-.7,1.76c.35,1.32,0,1.77-1.15,1.77-1.32,0-1.67.61-1.67,3.08,0,1.85.62,3.53,1.32,4s1,1.06.62,1.41-.09,1.23.53,1.94,1.06,3.09,1.06,5.29c0,2.38.53,4.14,1.15,4.41s1.06,1.5,1.06,2.91c0,1.67.44,2.56,1.32,2.56s1.32,1,1.32,3.44c0,1.94.35,3.7.79,4s1.15,2.65,1.41,5.29c.44,3.26,1.06,4.85,1.85,4.85,1.59,0,.88,3.44-1.59,7.76-.88,1.59-1.41,3.35-1.15,3.79s-.62,1.06-2.12,1.32c-1.85.35-2.73,1.06-2.73,2.12,0,1.59-4.23,5-5.55,4.59-.44-.09-1.94.79-3.44,2a10,10,0,0,1-3.35,2.21c-.44,0-1.06.79-1.33,1.85s-1.14,1.59-1.76,1.32c-1.76-.62-6.08,3.44-5.47,5.11.79,1.94-1.24,2.82-2.47,1.15-1.59-2.12-2-1.85-2.38,1.32-.27,2.64-.53,2.91-3.53,3.17-2.12.18-3.35.71-3.35,1.5a2.24,2.24,0,0,1-1.32,1.68,2.11,2.11,0,0,0-1.32,1.76c0,1.5-1.94,2.29-5.82,2.29-2.82,0-2.91.09-1.94,1.76a3.68,3.68,0,0,0,2.29,1.76c1.76,0,12.26-5.2,13.49-6.7a3.17,3.17,0,0,1,2.11-1.23,5.41,5.41,0,0,0,2.65-1.76,5.35,5.35,0,0,1,3.09-1.77c.79,0,3.44-2,5.91-4.41s4.76-4.41,5.11-4.41c.53,0,5-3.26,16-11.9,3.35-2.65,4.58-4.14,4.58-5.82a5.61,5.61,0,0,1,1.41-3.44c1.59-1.32,1.5-7.85-.18-9.52a4.78,4.78,0,0,1-1.15-2.91,1.58,1.58,0,0,0-1.32-1.68c-1,0-1.23-.62-.79-2.11.26-1.15.09-2.38-.44-2.64s-1-1.94-1-3.53a7.38,7.38,0,0,0-.61-3.53c-1-1-2.91-7-2.91-9.17a10.79,10.79,0,0,0-1.23-4.41c-.62-1.32-1.94-3.88-2.82-5.73l-1.67-3.35,2.73-2.38a95.45,95.45,0,0,1,14-10.32c7.76-4.5,8.64-7.85,3.35-13l-3.35-3.17-10.14-.09c-5.55-.09-11.73-.44-13.66-1C518.4,589.25,518.5,589.25,512.76,591.5Z"/><path class="cls-1" d="M805.5,626.9a3.86,3.86,0,0,0,2.38,1.32c1.14,0,1.14-.26.26-1.32a3.85,3.85,0,0,0-2.38-1.32C804.61,625.58,804.61,625.85,805.5,626.9Z"/><path class="cls-1" d="M407.13,633.61a1.19,1.19,0,0,0,2.29,0c.18-.53-.35-1-1.15-1S407,633.07,407.13,633.61Z"/><path class="cls-1" d="M813.43,635.28c0,1.68.26,1.85,1.06,1.06s.79-1.32,0-2.11S813.43,633.61,813.43,635.28Z"/><path class="cls-1" d="M298.68,637.57a2.73,2.73,0,0,0,1.41,1.94c.79.27,1.15-.18.88-1.23a2.73,2.73,0,0,0-1.41-1.94C298.76,636.07,298.41,636.5,298.68,637.57Z"/><path class="cls-1" d="M407.83,675c-1.32.88-1.32.88,2.2.88.26,0,.44-.26.53-.62C410.65,674.17,409.24,674.08,407.83,675Z"/><path class="cls-1" d="M472.5,679a2.42,2.42,0,0,0,.53,2.38c.71.71,1,.35,1-1.41C474,677.34,473.35,676.9,472.5,679Z"/><path class="cls-1" d="M455.45,682.5c0,.7.44,1.32.88,1.32s.88-.62.88-1.32-.35-1.32-.88-1.32S455.45,681.75,455.45,682.5Z"/><path class="cls-1" d="M451.21,695.33a1.19,1.19,0,0,0,2.29,0c.17-.53-.35-1-1.15-1S451,694.8,451.21,695.33Z"/><path class="cls-1" d="M470.62,696.5c.09.88.7,1.5,1.14,1.5,1.33-.09,1.06-2.12-.26-2.56C470.7,695.15,470.35,695.59,470.62,696.5Z"/><path class="cls-1" d="M448.39,699.21a1.38,1.38,0,0,0,1.41,1.29c1.23,0,1.23-.26.35-1.32a5.3,5.3,0,0,0-1.41-1.32C448.57,697.88,448.39,698.5,448.39,699.21Z"/><path class="cls-1" d="M324.77,702c-2.56.35-3.17,1.5-1.5,2.56.53.26,1.85-.26,2.82-1.32s1.68-1.76,1.5-1.76A23.91,23.91,0,0,1,324.77,702Z"/><path class="cls-1" d="M445.22,705c-.79,1.41,2.73,4.67,4.41,4,2.12-.79,1.76-3.88-.53-4.5C446.28,703.88,445.93,703.88,445.22,705Z"/><path class="cls-1" d="M453.42,707.94a18.43,18.43,0,0,0,.09,3.7c.35,2.64.62,2.91,2.47,2.47,1.5-.35,2.12-.18,2.12.79,0,1.23,2.47,2.82,3.26,2,.26-.26.18-1.67-.18-3.17-.44-2.21-1-2.73-2.29-2.38-1.76.44-2.38-1.5-.79-2.47a1.66,1.66,0,0,0,.88-1.32C459,706.5,453.77,706.88,453.42,707.94Z"/><path class="cls-1" d="M465.32,707.67a1.19,1.19,0,0,0,2.29,0c.17-.53-.35-1-1.15-1S465.14,707.14,465.32,707.67Z"/><path class="cls-1" d="M476.34,708.11c-.79.88,1.06,3,2.64,3s1.06-3-.71-3.35A2.67,2.67,0,0,0,476.34,708.11Z"/><path class="cls-1" d="M482.78,711.9c0,1.94,2.12,2.47,4.41,1,1.59-1,1.15-1.41-2-2.21C483.13,710.14,482.78,710.32,482.78,711.9Z"/><path class="cls-1" d="M479,713.5c-1.15,1.06-.62,2,1.15,2a1.59,1.59,0,0,0,1.76-1.32C481.9,712.87,480.05,712.34,479,713.5Z"/><path class="cls-1" d="M469.11,716.4a1.81,1.81,0,0,0,1.41,2.65c1.06,0,1.06-2.38,0-3.09A1.07,1.07,0,0,0,469.11,716.4Z"/><path class="cls-1" d="M325,725.75c0,1.23.26,1.23,1.32.35a5.33,5.33,0,0,0,1.32-1.41c0-.18-.62-.35-1.32-.35A1.38,1.38,0,0,0,325,725.75Z"/></g></g></g></g></svg>