<svg xmlns="http://www.w3.org/2000/svg" viewBox="0 0 759.27 643.29"><defs><style>.cls-1{fill:#fff;}.cls-1,.cls-2{stroke:#fff;stroke-miterlimit:10;stroke-width:8px;}.cls-2{fill:none;}</style></defs><title>home-logo-white</title><g id="Layer_2" data-name="Layer 2"><g id="Layer_1_copy" data-name="Layer 1 copy"><path class="cls-1" d="M93,368.23a5.25,5.25,0,0,1-.25-.7c-.57-3.17-1.53-3.75-4.53-2.77a1.71,1.71,0,0,1-1.2,0c-2.92-1.56-5.82-3.15-8.7-4.8a3.78,3.78,0,0,1-1.68-2.38c-.73-2.39-1.42-4.87-3.57-6.51-.73-.56-1.5-1.07-2.22-1.59.46-2.28.36-3-1-3.6A3,3,0,0,1,68,342a2.78,2.78,0,0,0-1.2-3.23,4.54,4.54,0,0,1-2.36-3.34c2.53-2.7.45-5.14-.54-7.46a16.31,16.31,0,0,0,3.05-2.2,12.68,12.68,0,0,0,1.53-2.91A26.46,26.46,0,0,0,71.94,321a3.57,3.57,0,0,0,1.62-3.76c-.36-1.49-1.59-1.93-2.93-2.16-.06,0-.1-.1-.24-.26.17-.82.37-1.72.53-2.62a5.43,5.43,0,0,0-5.61-6.53,3,3,0,0,0-1.85,5.46c.43.34.88.65,1.45,1.07a10.75,10.75,0,0,0-2.92,6.3,2.59,2.59,0,0,1-.84,1.46c-1.54,1.39-2.5,3-1.92,4.79a28.35,28.35,0,0,0-2.69,2.53,7.57,7.57,0,0,0-2,5.72c.12,1.31-.5,2.79.56,3.87s-.2,2.69.62,3.88a2.28,2.28,0,0,1,.3.57,8.34,8.34,0,0,1,.66,2.23,13,13,0,0,0,5.1,10.08,7.93,7.93,0,0,1,1.3,1.65c.65.94,1.26,1.91,1.89,2.86.47.72.94,1.43,1.42,2.14a28.77,28.77,0,0,0,2.67,3.88,38.77,38.77,0,0,0,10.86,7.74,25.6,25.6,0,0,1,5.39,3.52,12.72,12.72,0,0,0,6.63,3.37,68,68,0,0,0,8.16.85c9.37.23,18.74.31,28.12.47a5.6,5.6,0,0,1,2.11.26c2.62,1.16,5.2,2.43,7.88,3.71-.36,2.84,1.24,4,3.61,4.62a4.12,4.12,0,0,1,.42.1c1.62.58,3.29,1.08,3.7,3.13a2.07,2.07,0,0,0,.53.88c-.26,1.73-.49,3.06-.64,4.4-.11.93-.14,1.87-.17,2.8a2.65,2.65,0,0,1-2.33,2.67,12.85,12.85,0,0,1-7.25-.27c-4.13-1.25-8.25-2.57-12.37-3.87-3-1-6.14-1.71-9.35-1.2a14.06,14.06,0,0,1-8.94-1.7c-5.11-2.65-10.31-5.16-15.44-7.77a13.12,13.12,0,0,1-2.49-1.69c-2.31-2-4.57-4-6.85-5.95-4.35-3.8-9.18-3-13.8-.95-4.23,1.88-4.69,6.91-1.07,9.7a18.63,18.63,0,0,1,5.11,5.12A12.77,12.77,0,0,0,72,395.37a26.39,26.39,0,0,1,2.09,2.75A38.63,38.63,0,0,0,84,408.87a5.74,5.74,0,0,1,1.9,2.26A5.24,5.24,0,0,0,87.87,413c1.24.83,2.69,1.38,3.86,2.28a26.25,26.25,0,0,0,12.5,5.54c2.35.33,4.73.5,7.09.8,4.29.55,8.58,1,12.85,1.74,3.22.53,3.36.85,3.67,4,.54,5.38,1,10.77,1.67,16.13A96.38,96.38,0,0,0,132.76,460a33.85,33.85,0,0,1,1.07,5.29c.71,5.14,1.14,10.32,2,15.42a213.91,213.91,0,0,1,3,26c.11,2.06-.18,4.15-.27,6.23a9.55,9.55,0,0,0,.38,4.3c.94.13,2,0,2.38.38,1.25,1.56,3.11,2.7,3.12,5.17,0,2.1,1.6,3.18,3.68,2.88l1,1.42c2.39-2,2.32-3.15,0-5.29l-.51-4c1.54-2.18,2.12-3.42-1-5.38,1-1.28.49-2.93.9-4.24a5.12,5.12,0,0,0-.93-5,3.3,3.3,0,0,1,.07-3.88,7.24,7.24,0,0,0,.62-7.61,23.46,23.46,0,0,1-1.56-8.42,29.86,29.86,0,0,0-1.39-8.5,3.76,3.76,0,0,1,0-1.86,8.32,8.32,0,0,0-.5-5.5,10.52,10.52,0,0,1-1-6.49,4.39,4.39,0,0,0-1.19-3.79,2.23,2.23,0,0,1-.59-1.48,21.65,21.65,0,0,0-1-7,25,25,0,0,1-.77-4.46c-.21-2.37-.19-4.76-.41-7.12a5.47,5.47,0,0,0-.89-3c-1.23-1.33-1.29-2.8-1.28-4.39a13.61,13.61,0,0,0-1.71-7.48,2.24,2.24,0,0,1-.34-1.22c.13-2.25-1.18-3.56-3-4.26a49,49,0,0,0-5.81-1.57,3.93,3.93,0,0,1-2.47-1.11c-1.41-1.69-3.37-2.05-5.47-2a37.91,37.91,0,0,1-5.8,0c-3.28-.41-6.53-1-9.77-1.71a4.41,4.41,0,0,1-2.22-1.21,46.75,46.75,0,0,1-3-3.86l.36-1.46c2.94.83,5.77,1.63,8.59,2.44a2.93,2.93,0,0,1,1,.47,3.42,3.42,0,0,0,3.08.5,1.92,1.92,0,0,1,1.36.2,6.18,6.18,0,0,0,6,.59,3.23,3.23,0,0,1,3.47.46,4.3,4.3,0,0,0,3.56,1.27c1.16,2.71,3.4,3.37,6,3.21,1-.06,2-.09,3-.18,2.66-.22,5.31-.48,8-.67A12.45,12.45,0,0,0,149,410c.4-.28.85-.51,1.21-.73,3.15,1.36,4,1,6-2.17a3,3,0,0,1,.41-.12c.21,0,.43,0,.65-.06,1.8-.34,2.82-1.25,3-2.67a3.37,3.37,0,0,0-2.25-3.35c-.63-.29-1.3-.5-2.09-.8.15-1.72.28-3.37.44-5a4.29,4.29,0,0,1,.34-1.68c1.26-2.17-1.28-3.87-.68-6,.09-.33-.22-.82-.45-1.17a2.63,2.63,0,0,0-.9-.91,6.37,6.37,0,0,1-2.89-2.77c-.25-.47-.85-.76-1.27-1.15a5.73,5.73,0,0,1-1.17-1.23,9.78,9.78,0,0,0-4.86-4.11,36,36,0,0,1-4.42-2.25c-3.55-2.25-7.61-2.92-11.57-3.89a4.05,4.05,0,0,0-2.54.19c-2.34,1.13-4.41.12-6.31-.85-4.07-2.08-8.53-2-12.91-2.66l2.28,2.6-5.56,1.6c-1.17-1.31-3-1.62-4.89-1.93S94.81,368.44,93,368.23ZM417.62,431l.8-3.16a10.58,10.58,0,0,0,.56-2.29,10,10,0,0,1,1.81-5.24,16.58,16.58,0,0,0,1.1-1.86c1.18-2.54.24-4.5-2.54-4.9A3.43,3.43,0,0,1,417,412c-1.36-1.7-2.89-3.4-5.18-3.64-4.29-.45-8.56-.21-12.29,2.26a18.34,18.34,0,0,1-7.2,2.73c-1.2.21-2.38.57-3.59.75a6,6,0,0,0-5.09,4.4c-1.67,4.76-3.38,9.5-5,14.26a11.74,11.74,0,0,0-.54,2.53,4.51,4.51,0,0,0,2.29,4.76,15.47,15.47,0,0,0,2.91,1.42,97.72,97.72,0,0,0,9.91,3,97.41,97.41,0,0,1,16.13,4.75,68.92,68.92,0,0,0,11,3.26c7,1.51,13.92,1.3,20.57-1.59a87.92,87.92,0,0,1,13.68-4.66,18.84,18.84,0,0,0,7.42-3.38c3.53-2.85,7-5.73,10.37-8.82a17.6,17.6,0,0,0,5.35-9.22,9.44,9.44,0,0,0-1.93-8.72,11.87,11.87,0,0,1-1.93-2.85,8.27,8.27,0,0,0-6.22-4.85c-1.26-.28-2.55-.43-3.82-.67a5.78,5.78,0,0,1-1.81-.52,16,16,0,0,0-9.18-1.9,6.4,6.4,0,0,0-3.26,1,55.19,55.19,0,0,0-5.42,4.63,3.63,3.63,0,0,0-.91,4.17,8.16,8.16,0,0,0,3.81,4.78,14,14,0,0,1,4,3.64c-2.21.62-3.16,2.14-4,3.85a5.84,5.84,0,0,1-3.81,2.75,8.52,8.52,0,0,0-3.89,2.15c-.94.9-1.77,1.9-2.73,2.77a2.38,2.38,0,0,1-1.49.64c-2.42-.08-4.85-.27-7.48-.43C425.2,432.32,421.81,431.19,417.62,431Z"/><path class="cls-1" d="M755.27,31.7A11.92,11.92,0,0,0,753.19,36,25.65,25.65,0,0,1,742,49.82a94.08,94.08,0,0,1-9.49,4.67,3.47,3.47,0,0,1-2.25-.06c-2.88-.91-5.73-1.93-8.6-2.9-.4-.14-.81-.24-1.32-.39-.52.63-1,1.22-1.52,1.83-4.34,5.39-8.66,10.79-13,16.16A290.08,290.08,0,0,0,684.35,100c-3.78,6.13-7.21,12.48-10.9,18.67-2.47,4.15-5.12,8.18-7.66,12.28-.47.76-.8,1.61-1.23,2.48a11.83,11.83,0,0,0,1.17.63c5.66,2.18,10.19,5.92,14.17,10.38a12.65,12.65,0,0,1,3.28,6,10.55,10.55,0,0,0,1.31,2.46,45.78,45.78,0,0,1,2.48,5c1.06,2.89.62,3.87-2,5.49-.11.07-.17.22-.07.08.09,2.39.1,4.53.28,6.65a9.47,9.47,0,0,0,.82,2.44c.64,1.67,1.31,3.34,2,5a27.35,27.35,0,0,0,1.33,3.19,30.24,30.24,0,0,1,3.85,14c.12,4.39.4,8.79.25,13.18-.07,2-.24,3.92.49,5.86a11.2,11.2,0,0,1,.48,3,30.69,30.69,0,0,0,1.23,6.33,54.41,54.41,0,0,1,1.13,6.81c.6,3.55,1.22,7.1,1.88,10.64a7.12,7.12,0,0,0,4.92,5.35c3.78,1.36,4.77,4.32,5.38,7.65a6.53,6.53,0,0,1-.86,5,2.87,2.87,0,0,0-.34,1.64,20.21,20.21,0,0,0,1.34,6.06,57.91,57.91,0,0,1,2.44,9.38,130.47,130.47,0,0,1,2.29,23c0,4.85,1.2,9.56,2.23,14.28.89,4.08,1.64,8.2,2.24,12.32a15.06,15.06,0,0,1-.14,5.14c-.57,2.76-3,3.64-5.27,1.95a8.51,8.51,0,0,1-3.57-5.89,47.7,47.7,0,0,0-2.31-9,5.86,5.86,0,0,0-2.63-2.71c-2.48-1.4-3.82-3.5-5-6a94.84,94.84,0,0,0-4.91-9.12c-1.64-2.8-3.49-5.47-5.17-8.25-1.58-2.62-2.81-5.31-2.33-8.57.17-1.14-.41-2.39-.64-3.59q-.66-3.38-1.32-6.76c-.12-.64-.15-1.3-.33-1.91-.92-3.1-1.88-6.19-2.82-9.29-.25-.83-.49-1.66-.74-2.49a6.89,6.89,0,0,0-5.49-5.2c-1.4-.29-2.74-.9-4.15-1.19s-2.69-.29-4-.44c-1.62-.18-3.23-.39-5.17-.63a9.75,9.75,0,0,1-5,5.93c.85,1.85.06,3.39-.71,5a39.33,39.33,0,0,0-3.47,9.95,30.23,30.23,0,0,1-5.46,11.66,6,6,0,0,1-1.43,1.3,209.69,209.69,0,0,0-20.44,17c-1.16,1.08-2.19,2.29-3.3,3.43a15.62,15.62,0,0,1-1.72,1.63c-2,1.5-4.3,1.73-6,.53a5.77,5.77,0,0,1-2.54-5.82,17,17,0,0,1,.94-3.09c.52-1.57,1-3.16,1.62-4.68a13.31,13.31,0,0,1,1.45-2.36c.32-.46.92-.82,1-1.31.66-2.5,1.3-5,1.73-7.57a4,4,0,0,0-.72-2.41c-1.26-2.11-2.59-4.14-3-6.63-.12-.67-.77-1.23-1-1.89a9.72,9.72,0,0,1-.83-3.27,3.79,3.79,0,0,0-.69-2.54,22.83,22.83,0,0,1-3.1-6.85c-.62-2.06-1.47-4.15-3.6-5.37a5.76,5.76,0,0,1-1.8-2.09c-1.45-2.42-3.29-4.17-6.31-4.2a1.6,1.6,0,0,1-.84-.14c-2.63-1.85-6-1.46-8.8-3-2,1.93-4.07,1.39-6.11.12a11.08,11.08,0,0,0-6.36-1.51,95.76,95.76,0,0,1-10.33-.86c-9.61-.9-19.11-2.73-28.77-3.4a94.11,94.11,0,0,1-24.17-4.41,36.3,36.3,0,0,0-16.2-1.95c-3.7.45-7.36,1.33-11,2.13-3,.64-5.86,1.46-8.81,2.15-1.4.33-2.72.57-3.65,2-.52.77-1.69,1.07-2.43,1.73-2.91,2.59-5.75,5.25-8.65,7.84a33.22,33.22,0,0,1-2.74,2.06c-.23.17-.66.18-.76.38-1.39,2.78-4.46,3-6.76,4.28a15.56,15.56,0,0,1-5.14,1.5,3.84,3.84,0,0,1-4-2,21.09,21.09,0,0,0-4.17-4.62,54,54,0,0,1-4.83-5.24,23.85,23.85,0,0,0-7.18-5.8c-3.56-1.89-7.07-3.88-10.55-5.91a11.45,11.45,0,0,0-5.42-1.28c-8.71-.39-17.43-.67-26.15-1a8,8,0,0,0-4.52,1.13,4.47,4.47,0,0,1-3.29.42c-2.19-.72-4.26-.37-6.4-.05-3,.45-6,.66-9.08-.47-1.14,1.83-2.92,2.07-4.9,1.94a4.49,4.49,0,0,0-2.3.37,10.14,10.14,0,0,1-5.45,1,12.75,12.75,0,0,0-4,.67c-4,1.06-8,2-12,2.75-7.14,1.37-14.33,2.52-21.47,3.9a30.74,30.74,0,0,0-13.48,6,7.42,7.42,0,0,1-6.43,1.84,1.74,1.74,0,0,0-.64.07c-.06,0-.12.08-.33.23a10.9,10.9,0,0,1,.7,1.35,2.12,2.12,0,0,1-1.73,3.06,7.35,7.35,0,0,0-4,1.92c-1.49,1.24-2.91,2.58-4.35,3.89a11.91,11.91,0,0,1-2.07,1.89c-2.09,1.12-3.19,3.05-4.47,4.87a43,43,0,0,1-8.85,9.71,2.1,2.1,0,0,0-.76,2.66c1.51,3.42.74,6.78,0,10.17-.15.69-.39,1.36-.64,2.22,2.6.24,4.38,1.78,6.29,3.2a36.26,36.26,0,0,0,10.32,5.36,10.68,10.68,0,0,0,3.82.41c7.7-.4,15.06-2.42,22.27-5,2-.71,3.87-1.57,5.77-2.43a8,8,0,0,0,2.4-1.44,13.62,13.62,0,0,1,6.47-3.25,36.08,36.08,0,0,0,5-1.92c5.86-2.59,11.66-5.36,17.92-6.91,6.52-1.61,13.08-3,19.87-2.41,3.16.29,6.31.67,9.46,1a20,20,0,0,0,8.74-.92c1.36-.45,2.78-.75,4.16-1.18a4.6,4.6,0,0,1,4.13.62c1.85,1.25,3.66,2.56,5.46,3.87,3.08,2.26,6.13,4.56,9.21,6.81,4.08,3,8.42,2.94,12.91,1a3.13,3.13,0,0,0,1.94-1.58,2,2,0,0,1,.78-1c1.83-.85,2.52-2.61,3.61-4.11a17.52,17.52,0,0,1,3.26-2.74,10.81,10.81,0,0,0,1.74-1.5c1.46-1.86,2.78-3.83,4.27-5.68a16.16,16.16,0,0,0,2.71-4.1,7.05,7.05,0,0,1,2.58-2.78,12.74,12.74,0,0,1,6.71-2.14c1.81-.1,3.48-.3,4.9-1.75,1.22-1.24,2.78-1.07,4.06.19a2.94,2.94,0,0,0,2.23,1,21.12,21.12,0,0,1,3.81.67,24,24,0,0,0,3.35.79,9.37,9.37,0,0,1,5.68,2.36,44,44,0,0,1,6.63,7.08,44.81,44.81,0,0,0,9.48,9.72,14,14,0,0,0,3.22,1.73,4.44,4.44,0,0,0,2.52.27A51.57,51.57,0,0,1,502,284.49a53.81,53.81,0,0,0,6.79-1.06c3.83-.67,7-2.53,10.24-4.42a13.49,13.49,0,0,1,8.47-2q6.44.7,12.87,1.48a11.42,11.42,0,0,0,6.17-.44,5.14,5.14,0,0,1,2.13-.21c3.1.09,6.2.27,9.07,1.66a1.47,1.47,0,0,0,.62.18c3,0,5.5,1.47,8,3a35.32,35.32,0,0,0,3.77,2.12c4,1.91,6,5.24,6.82,9.42a30.54,30.54,0,0,1,.21,4.93c0,2.22,0,4.45.08,6.67,0,.79.17,1.58.15,2.37a8.21,8.21,0,0,0,1.11,5.16,7.7,7.7,0,0,0,8.52,4.29c2.77-.41,5.57-.63,8.37-.84a8.37,8.37,0,0,1,5.51,1.51,12.53,12.53,0,0,0,3.55,1.52,6.69,6.69,0,0,1,5.2,6c.41,3.21.83,6.44,1,9.67.42,7.56.69,15.12,1,22.69.1,2.23.21,4.47.44,6.69a9.57,9.57,0,0,0,.8,3.12,60,60,0,0,0,6.85,11.24c4.26,5.4,10,6,16.22,5.13a3,3,0,0,0,1.63-1.23,13.87,13.87,0,0,0,1-2.14c1.41-2.83,2.76-5.7,4.29-8.47a10.52,10.52,0,0,1,4.81-4.79,22.62,22.62,0,0,0,3.93-2.93c-.69-5.44-3.55-6.84-7.84-7.55a34.65,34.65,0,0,1-9.6-3.11,8.89,8.89,0,0,1-5.25-8.07,46,46,0,0,1,.39-6.46c.53-5.74,1.11-11.48,1.66-17.22a10.86,10.86,0,0,1,3.75-7.33,41.17,41.17,0,0,1,9.18-6.44,11,11,0,0,1,7.92-.92c2.76.71,5.72.6,8.58,1s5.7.81,8.54,1.3a5.1,5.1,0,0,1,4.45,4.64,71.92,71.92,0,0,1,.91,7.72c.39,9.29.66,18.59,1,27.89s.64,18.88.9,28.32A28.19,28.19,0,0,1,672,393.93c-3.13,5.33-7.87,8.75-12.8,12a57.17,57.17,0,0,1-6.21,3.34c-10.48,5.09-21.22,9.64-31.34,15.45-3.68,2.11-3.32,1.1-3.37,5.65,0,4.24.34,8.49.7,12.72a16,16,0,0,0,1.2,3.62c2.67.17,5.12.3,7.56.48,1.51.11,3,.25,4.51.49a6.71,6.71,0,0,1,5.54,4.29,23.29,23.29,0,0,1,1.42,14,17.52,17.52,0,0,1-1.63,3.4c.26,1.1.69,2.48.9,3.89.44,3-.6,4.08-3.47,4a17.37,17.37,0,0,1-1.13,4c-.81,1.45-2.45,1.24-3.64,1l-2.46,3.16c2,2.59,2,3.14.34,5.81,2,2.66,2,4.46-.46,6.71a3.24,3.24,0,0,0-1.26,3.57,4.27,4.27,0,0,1,0,1.29c-.13,2.17-.15,2.19-2.3,2.9a25.21,25.21,0,0,1-.33,2.89,24.5,24.5,0,0,1-.91,2.57c-.18.52-.59,1.2-.41,1.56,1.3,2.57.11,4.73-1,6.92-.46.94-1,1.84-1.53,2.77a.67.67,0,0,0-.11.4c.41,2-.7,3.2-1.88,4.55a3.17,3.17,0,0,0-.29,2.64c1.14,3.28-.16,5.73-2.32,8-1,1.1-2,2.27-3.15,3.62-.8-1.07-1.59-2-2.21-3a3.75,3.75,0,0,0-3.57-1.89q-19.58-.12-39.15-.38c-8.65-.12-17.3-.33-26-.52-1.87,0-3.74-.29-5.61-.27-2.49,0-2.94.56-3.82,2.94a26.16,26.16,0,0,1-11.11,13.38,7.06,7.06,0,0,1-6.06.57c-3.42-1.09-5-3.68-4.21-7.18.6-2.69,1.52-5.27,3.69-7.19a4.36,4.36,0,0,0,.65-1.08,6.34,6.34,0,0,1,1-1.63c3.05-2.62,4.51-6.42,7.11-9.41a80.47,80.47,0,0,0,6.82-9.46c1.66-2.6,2.95-5.43,4.43-8.22a6.64,6.64,0,0,0-5.4-2.69,23.38,23.38,0,0,0-10.88,2.27c-1.44.71-3.19.79-4.79,1.19a9.13,9.13,0,0,0-3.06.91c-2.56,1.83-5.32,1.68-8.1,1.07a42.68,42.68,0,0,1-6.16-2c-4.37-1.69-8.74-3.33-13.47-3.78-2-.19-4.82-2.8-5.09-4.79a4.07,4.07,0,0,1,.47-2.46,9.41,9.41,0,0,1,6.55-4.86,7.2,7.2,0,0,0,1.86-.51A47.12,47.12,0,0,1,497.16,489a11.65,11.65,0,0,0,1.47-.52,4.78,4.78,0,0,0-2-3.43,10.28,10.28,0,0,1-4-10.86,5.47,5.47,0,0,1,3.8-4.33,4.41,4.41,0,0,0,1.54-.75,7.31,7.31,0,0,1,4.57-1.69,2.71,2.71,0,0,0,1.26-.21c1.94-1.22,4.11-1.19,6.27-1.32a25.91,25.91,0,0,0,9-2.19,4.3,4.3,0,0,0,2.32-2.1,9.54,9.54,0,0,1,2.26-2.55c1.24-1.13,1.31-1.14.63-2.73-.37-.86-.77-1.71-1.21-2.53a106.38,106.38,0,0,0-11.69-17.89c-4.16-5.07-8.06-10.36-12.12-15.51a10.24,10.24,0,0,0-2.51-2.33c-2.56-1.61-5.21-3.08-7.83-4.58-1.44-.83-2.93-1.55-4.32-2.45-.83-.54-2-1.22-2.15-2-.52-2.41-2.7-3.46-3.86-5.31a2.72,2.72,0,0,0-1.51-1c-3.39-.9-4.58-2.44-4.33-5.88.1-1.44.35-2.84-.56-4.17a4.34,4.34,0,0,1-.34-1.67c-.23-1.41-.45-2.82-.69-4.3a19.13,19.13,0,0,1-2.64-.61c-1.2-.46-2.35-1.06-3.5-1.63-.45-.22-.84-.75-1.27-.76-2.25,0-3.92-1.21-5.58-2.53a20.31,20.31,0,0,0-3-1.63,10.27,10.27,0,0,1-5.57,3,.51.51,0,0,0-.2.08c-2.85,2.26-6.45,3.08-9.48,5-1.94,1.24-3.91,2.45-5.94,3.53a5.29,5.29,0,0,1-6.1-.32,4.41,4.41,0,0,0-1.14-.62,5,5,0,0,1-3.52-4.45A6.87,6.87,0,0,0,420,381a7,7,0,0,1-3.18-5.31c-2-.11-3.37-.88-3.94-3a2.88,2.88,0,0,0-1.82-1.64,8.1,8.1,0,0,1-4-2.4,2.42,2.42,0,0,0-1.65-.7,69,69,0,0,0-14.56,1.82c-1.51.4-2.85,1.38-4.32,1.95a16.66,16.66,0,0,0-5.68,3.29,13.37,13.37,0,0,1-6.35,3c-3.13.7-5.24,3-6.84,5.62a47.15,47.15,0,0,1-4.7,7,18.25,18.25,0,0,0-2,3.56c-1.18,2.17-2.42,4.23-4.84,5.34a5.73,5.73,0,0,0-2,1.95c-6.88,9.62-13.76,19.24-19.71,29.47a29.41,29.41,0,0,0-2,3.59,4.85,4.85,0,0,1-3.65,3c-3.15.74-6.32,1.43-9.48,2.13a16.1,16.1,0,0,1-2.34.43,2.89,2.89,0,0,0-2.82,2.49c-2,7.59-4.21,15.13-6,22.76-1.58,6.74-1.32,13.61-.25,20.43a22.52,22.52,0,0,0,3.4,8.13,3.5,3.5,0,0,0,2.68,1.64c3.57.45,7.14.93,10.73,1.22,4.17.33,8.35.47,12.53.71a11.48,11.48,0,0,0,5.64-1,16.08,16.08,0,0,1,5.42-1.27,38.09,38.09,0,0,1,15,1.51c6.26,2.08,12.69,2.54,19.18,2.72,9.87.27,19.75.51,29.62.86a39.54,39.54,0,0,1,6.18.91,6.5,6.5,0,0,1,2.34,1.07,3.6,3.6,0,0,1-.18,6.14,7.46,7.46,0,0,1-3.26,1c-5.69.27-11.38.56-17.07.55-6,0-12-.25-17.94-.55-2.5-.12-5-.74-7.48-1-3.51-.31-7-.6-10.56-.65-9.3-.11-18.61,0-27.91-.16a5.88,5.88,0,0,0-5.21,2.2c-3,3.61-6.22,7-9.3,10.54a27.55,27.55,0,0,0-2.45,3.3,11.43,11.43,0,0,0-.54,11.92c.86,1.74,1.9,3.4,2.71,5.17,1.65,3.59.08,6.47-3.82,7.13a11,11,0,0,1-2.16.08c-4.75-.15-9.51-.47-14.26-.44-13,.06-26,.27-38.94.41h-2.38c0-1.54-.05-3-.08-4.37,0-.76.35-1.55-.38-2.24-.18-.17-.05-.8.11-1.14.42-.9.94-1.77,1.41-2.62,2.17.17,4.23.4,6.31.48a14.71,14.71,0,0,0,6.58-.83c1.7-.73,3.23-.1,4.5,1.27a7.62,7.62,0,0,1,5-1.29c2.74.11,5.48.22,8.21.39a10.32,10.32,0,0,0,4-.23,4.84,4.84,0,0,1,2.86.57,4.69,4.69,0,0,0,4.74-.37c1.67-1.2,3.36-2.12,5.71-1.61a4.53,4.53,0,0,0-.46-1c-1.61-1.73-1.67-3.64-1.05-5.84a15,15,0,0,0,.4-4.47c-.05-1.7.19-3,1.81-4.05a6.64,6.64,0,0,0,1.93-2.51A37.85,37.85,0,0,0,313,514.6c.06-.13.08-.32.19-.38,1.86-1.13,2.37-3.28,3.67-4.82.64-.75,1.15-1.62,1.8-2.54a11.32,11.32,0,0,1-1.67-1,2.73,2.73,0,0,0-2.8-.5c-1.88.53-3.7.59-5.08-1.25a3,3,0,0,0-1.52-.72,6.53,6.53,0,0,1-3.75-2.75,57.58,57.58,0,0,1-5.87-11.77,13.12,13.12,0,0,1-.39-3.18c0-.28.09-.57.06-.84-.29-2.35-.6-4.69-.94-7.32-.21-.11-.71-.36-1.19-.64a3.35,3.35,0,0,1-1.95-3.54c.22-1.4,1-2.14,2.86-2.41a2.17,2.17,0,0,0,1.72-1.19c-1.19-2.18-2.33-4.08-3.28-6.07a4.91,4.91,0,0,1,.6-5.49,2.88,2.88,0,0,0,.66-2.39,3.59,3.59,0,0,1,1.59-3.75c.38-.26.46-.93.7-1.4.39-.75.61-1.8,1.23-2.15a4.31,4.31,0,0,0,1.76-2.53c1.11-2.64,2.14-5.34,4.07-7.56a3.77,3.77,0,0,0,.61-1.34,5.56,5.56,0,0,1,4-3.94,4.34,4.34,0,0,0,2.09-1.34A9.76,9.76,0,0,1,319,429c3.38-.17,5.18-2.29,6.83-4.78.87-1.32,1.77-2.63,2.76-3.86a25.45,25.45,0,0,0,3.74-5.51,15.39,15.39,0,0,1,3-3.93,12,12,0,0,0,3.35-5.69,4.47,4.47,0,0,1,3.43-3.64,12.77,12.77,0,0,1-.56-1.27,2.24,2.24,0,0,1,2.14-3.15c2-.13,2.59-.42,2.92-2.07a5.92,5.92,0,0,1,3.43-4.19,8.07,8.07,0,0,0,3.9-4.37,29.18,29.18,0,0,1,3.22-5.1,11.07,11.07,0,0,0,2.23-4.6,5.49,5.49,0,0,1,5.75-4.54c.71,0,1.43.14,2.31.23,1.31-1.76,3.53-2.61,4.94-4.52a6.86,6.86,0,0,1,4.86-2.56,3.29,3.29,0,0,0,2.26-1,2.2,2.2,0,0,1,1.12-.63,3,3,0,0,0,2.13-1.54c.85-1.35,2.1-1.57,3.58-.79.65.34,1.19.74,2,.35a18.1,18.1,0,0,1,8.25-1.71,8.17,8.17,0,0,1,.52-.91c1-1.3,2-1.57,3.32-.61a3.3,3.3,0,0,0,2.17.58,19.72,19.72,0,0,1,3.33.56c.76.15,1.51.41,2.28.49a9.4,9.4,0,0,1,4.41,1.49,14.63,14.63,0,0,0,4.83,1.79c2.32.52,3.73,1.71,4.05,4.13a3.57,3.57,0,0,0,2.4,2.84c2.4,1,2.54,1.23,2.26,4a13.4,13.4,0,0,0,1.89.74,2.9,2.9,0,0,1,2.5,2.83,9.32,9.32,0,0,0,.68,2l.42-.09c.11-.69.2-1.38.34-2.07.53-2.57,2.65-3.45,4.87-2.08a2.93,2.93,0,0,0,1.73.59,56,56,0,0,0,5.69-1.24,6.72,6.72,0,0,0,1.61-1c.48-.31,1-.85,1.47-.83,1.64.06,2.58-1.11,3.77-1.86a11.44,11.44,0,0,1,2.51-1.22,2.35,2.35,0,0,1,2.74.78c.6.83,1.4.82,2.21,1.08,4.24,1.39,8.45,2.88,12.66,4.34,1,.33,1.88.74,2.85,1,2.44.65,3.14,1.73,2.65,4.24a5.17,5.17,0,0,0,0,.68c.6.39,1.22.75,1.78,1.19a5.24,5.24,0,0,1,2.18,4c.13,2.45.6,3,3,3.62a5.89,5.89,0,0,1,1.61.57,3,3,0,0,1,.74,4.92,8.76,8.76,0,0,1-.72.65c2.83,1.12,2.84,4.45,5.29,5.82.43-.16.88-.36,1.36-.49a3.34,3.34,0,0,1,4.23,1.65,3,3,0,0,0,1.14,1.17,4.59,4.59,0,0,1,2.81,3.34,4.63,4.63,0,0,0,2,2.7c1.15.85,2.12,1.94,3.2,2.9.86.76,1.75,1.49,2.64,2.22s2,1.6,3.23,2.63c-.23,0,0,0,.17,0,2.37-.67,3.53-.31,4.75,1.72.81,1.34,1.35,2.83,2.86,3.65a2.15,2.15,0,0,1,.83,1.46,6.82,6.82,0,0,0,2.1,3.69c1.27,1.39,2.45,2.84,2.58,4.86a4,4,0,0,0,.43,1.14c5,1.38,5.64,3,2.55,6.54l2.62,4.8c1.21.12,2.87-.32,3.61,1.33.67,1.49-.2,2.62-1.3,3.86l3.3,3.89c-2,2.05-4.59,3.64-5,6.91,1.71,2.42,1.32,4.23-1.59,5.6a8.37,8.37,0,0,0-3.58,2.61,3.06,3.06,0,0,1-3.29,1.17,2.86,2.86,0,0,0-2.37.46,28.2,28.2,0,0,1-3.91,1.51c-1.93,2.5-1.93,2.5-5,2.74.26.77.52,1.51.76,2.26s.39,1.34.7,2.41l-5.8-2.87a2.34,2.34,0,0,0,.16,3.56c1.63,1.61,1.64,3.44.69,5.36q-1.05,2.13-2.26,4.18a9,9,0,0,0-1.48,3.3c-.22,1.5-1.26,2.21-3,2.32-1.1.07-2.21,0-3.78,0a4.24,4.24,0,0,0,3.32,1.36,16.76,16.76,0,0,0,2.8-.2,4,4,0,0,1,3.92,1.06,11.54,11.54,0,0,0,6.08-2.51c1.68-1.38,3.73-1.9,5.67-.05a1.77,1.77,0,0,0,1.39.31,8.22,8.22,0,0,0,2.62-.9c2-1.23,4.27-1.15,6.41-1.6,1.84-.39,2.79,1.13,3.22,2.26,1.67,1,3,1.85,4.31,2.7.9.58,1.78,1.2,2.62,1.86a5,5,0,0,1,1.32,1.37c.59,1,1,2.18,1.53,3.28a2.45,2.45,0,0,1-.47,2.82,3.5,3.5,0,0,0-.9,3.38,7.45,7.45,0,0,1-1.7,7,13,13,0,0,0-2.05,3.45,5.31,5.31,0,0,0,0,2h3.7c1.63-2.2,4.05-2.7,5.49,1.58a2.45,2.45,0,0,0,2.74-.61,4.62,4.62,0,0,1,4.86-.59,9.8,9.8,0,0,0,3.81.4c2.11-.13,4.17-.26,6.14.7.19.09.47.24.6.17,1.58-.84,3.6-.26,5-1.62a2.64,2.64,0,0,1,2.65-.44c.73.19,1.51.18,2.25.34s1.75.47,2.87.77c3.35-1.29,4.73-1.24,7.57.45a6.7,6.7,0,0,1,5.92.32,5.88,5.88,0,0,0,4.17.16,5.14,5.14,0,0,1,4.33,0,16.13,16.13,0,0,1,3.05-2.34c.63-.28,1.61.23,2.74.44.68-.6,1.53-1.86,3-1.41a28.74,28.74,0,0,1,3.58,1.65l.86-1.24c-2.23-3.53-.58-5.2,2.94-5.78a19.58,19.58,0,0,0-.13-2.46,8,8,0,0,1,.5-4.66c.26-.6.52-1.19.76-1.79,1.05-2.62,1.07-2.65,3.18-3.84-.35-2.09-.67-4.11-1-6.13a2.74,2.74,0,0,0-.51-.91c-1.84-2.76-.79-5.06,2.51-5.48a.85.85,0,0,0,.26-.08l2-3c-1.54-3.3-1.43-4.19.8-6.09-1.24-3-.93-4,2-5.88l-.68-2.18c-2.33-.73-3.22-1.65-3.13-3.24s1.21-2.69,3.32-3.21a31.58,31.58,0,0,1,3.35-.47l2.08-5.29a3.41,3.41,0,0,1-2.12-3.18c0-.26-.63-.54-.83-.69l-3.3,4.72a13,13,0,0,1-.08,3.26c-.15.6-1,1.19-1.71,1.44a3.93,3.93,0,0,1-4.81-2.59c-.72-2-.06-3.1,2.15-4l2.16-4.57c-.3,0-.75,0-1.19,0a3.12,3.12,0,0,1-3.12-2.24c-.46-1.74-1.73-2.16-3.19-2.27-2.69-.2-3.53-1-3.67-3.7,0-.93-.08-1.87-.21-2.8a3.39,3.39,0,0,0-1.39-2.53c-1.51-1.08-1.48-2.86-1.52-4.56l-.68-.51c-1.62-1.23-2-2.54-.7-4a5.11,5.11,0,0,0,1.23-4.51,18.69,18.69,0,0,1,.33-4.93,2.8,2.8,0,0,1,.9-1.89c1.94-1.09,2.65-3.31,4.52-4.55-.27-2.26,1.11-3.38,3.07-4a2,2,0,0,0,1.56-1.27,2.78,2.78,0,0,1,2.91-1.82c1.32,0,2.6.12,3.39-1.26a1,1,0,0,1,.53-.35c2.64-.78,4.82-2.44,7.2-3.7a13,13,0,0,1,6.28-1.31c1.8,0,3.36-.27,4.62-1.79a4.07,4.07,0,0,1,2.41-1.29c2.34-.3,3.72-1.78,4.88-3.55,1.35-2.06,2-2.4,4.24-1.78a4.67,4.67,0,0,0,4.76-1.62c.83-1.12,1.8-2.14,2.8-3.31a6.26,6.26,0,0,1-.78-2.55c.09-.87,1-1.65,1.63-2.66-.67-1.54-.39-2.94,1.37-4.18.73-.51.9-1.82,1.28-2.67-2.07-3.24-1.88-4.16,1-5.43-1.09-2.58-1-2.83.93-4.72-1.23-2.33-.83-4.85-.6-7.35a4.82,4.82,0,0,0-.38-2.67,7,7,0,0,1-.26-3.81c-.43-.47-.88-.92-1.28-1.43a2.82,2.82,0,0,1-.33-3.41c1.39-2.44,1.26-5.12,1.08-7.78-.08-1.26-.34-2.51-.54-3.92-3.14-1.69-3.5-5,.32-6.93-.22-.29-.41-.58-.65-.84-1.47-1.63-1.69-2.76-.54-4.66a4.71,4.71,0,0,0,.33-4.43c-1.67-.23-3.19-.76-3.67-2.71-.06-.25-.51-.46-.82-.6-1-.45-2-.86-2.81-1.21a20.16,20.16,0,0,1-3.66,1.56c-1.36.29-2.21-.78-2.83-2.07-2.29,1-4.49,1.81-6.57,2.87a4.24,4.24,0,0,0-2.32,4.32,12.83,12.83,0,0,1-1.54,7.28,4.88,4.88,0,0,0-.35,4.36,5.31,5.31,0,0,1-.27,2.9,5.63,5.63,0,0,1-.92,1.52l1.77,4.16c.91.46,1.93,1,3,1.49.32.16.69.42,1,.37,2.44-.39,3.91,1.07,5.4,2.83,1.59-.57,3.24-1.07,4.86,0s1.85,2.83,2.37,4.49c.61.15,1.17.25,1.71.42a2.69,2.69,0,0,1,2.25,2.77,2.17,2.17,0,0,0,.5,1.3c2,2.44,1.81,3.89-.92,5.5-.12.07-.23.18-.6.47,0,.71,0,1.63,0,2.55-.1,1.52-.23,3-1.57,4.1a1.55,1.55,0,0,0-.48,1.08,2.89,2.89,0,0,1-2.27,3.06c-3.52.84-5.06,3.21-5.67,6.55a5,5,0,0,1-3.47,3.91c.08,1.64-.32,3-1.88,3.83a1.57,1.57,0,0,0-.53.86c-.83,2.37-1.64,2.77-4,1.94l-1-.34c-.3.37-.6.78-.95,1.13a3.71,3.71,0,0,1-4,1,19.1,19.1,0,0,1-1.85-.58,2.78,2.78,0,0,0-2.64.15c-2.66,1.42-4,1.06-6.33-1.05a16.64,16.64,0,0,0-2.94-1.77l-4.83-2.83a2.8,2.8,0,0,0-.94-.47c-2.12-.27-3.2-1.76-4.17-3.42-1.2-2-2.41-4.09-3.67-6.11a17.51,17.51,0,0,1-2.47-5.47c-.41-1.81-1.36-3.49-1.81-5.3a39.3,39.3,0,0,1-1.26-11.13,70.5,70.5,0,0,0-.26-7.56,27.25,27.25,0,0,1,.51-8.37,7.27,7.27,0,0,0-1.7-6.47c-1.1-1.33-2.14-2.84-4.15-3.2-.64-.11-1.2-1.12-1.63-1.82a12.1,12.1,0,0,1-.8-2.27c-1,.54-1.9,1-2.77,1.42a16.24,16.24,0,0,1-2.94,1.28,2.6,2.6,0,0,1-3.32-2.23,7,7,0,0,0-.21-.93,16.42,16.42,0,0,0-1.67-.3,17.66,17.66,0,0,1-7.24-2.66,3.94,3.94,0,0,1-2-3.18,2.39,2.39,0,0,0-.89-1.86,3.36,3.36,0,0,1-.81-1c-1-1.8-2-3.61-3-5.43-1.84-.26-3.87-.19-4.36-2.47-.45-2.06,1.17-2.87,2.85-3.74-1.87-2.09-3.05-4.2-.76-6.56-.93-1.67-1.82-3.27-2.72-4.86a2.46,2.46,0,0,0-.62-.83c-1.76-1.22-3.54-2.41-5.49-3.72l-.93.39a3.87,3.87,0,0,1-4.73-1,2.88,2.88,0,0,0-2.21-1.06,4.74,4.74,0,0,1-1.68-.34,2.89,2.89,0,0,0-2.49.12,5.12,5.12,0,0,1-4.57-.06,5.61,5.61,0,0,0-2.72-.29c-2.31.14-4.6.29-6.8-.74a2.91,2.91,0,0,0-1.66,0c-2.26.46-4.49,1-6.75,1.44a17.67,17.67,0,0,0-6.47,2.3,15.48,15.48,0,0,1-6.33,2c-1.36.19-2.72.37-4.08.44a3.89,3.89,0,0,0-3.35,1.49,3,3,0,0,1-3.75.79,18.28,18.28,0,0,1-1.7-.88,19.61,19.61,0,0,1-2.31.62,5.2,5.2,0,0,1-2.12,0c-2.06-.59-4.07-1.32-6.11-2a16.75,16.75,0,0,0-2.31-.49,17.59,17.59,0,0,1-7.13-2.94,6.28,6.28,0,0,1-1.28-1.43c-.66-.85-1.28-1.73-1.91-2.6a1.81,1.81,0,0,0-1.87-.72c-2.25.21-3.19-.41-3.38-2.59s-1.41-3.57-2.57-5.12a1.39,1.39,0,0,0-.44-.47c-1.74-.79-3.5-1.53-5.24-2.33-1.17-.54-2.32-1.14-3.47-1.72a23.52,23.52,0,0,0-2.09-1.09,1.54,1.54,0,0,0-1.73.46c-2.15,2-3.19,2.13-5.91.76a9,9,0,0,0-3.45,3.64,5.13,5.13,0,0,1-2.33,2.45,3.93,3.93,0,0,0-1.27,1.1,36.37,36.37,0,0,1-8.07,7.77,3.6,3.6,0,0,0-1.23,1.67,6.38,6.38,0,0,1-3,3.51,9.5,9.5,0,0,0-1.31,1.06c-.05,0-.07.13-.12.18-1.4,1.4-3.44,1.8-4.77,3.47-1.21,1.51-3.37,1.84-5.3,2.18a9.66,9.66,0,0,1-5.54-.26,2.59,2.59,0,0,0-2,.15,6.21,6.21,0,0,1-7.47-2.23,4.46,4.46,0,0,0-1.1-1c-1.71-1-3.45-2-5.45-3.21-2,.79-3.55-.26-4.55-2.31a3.68,3.68,0,0,0-3.38-2.3c-3.45-.09-6.91-.11-10.36-.1-2,0-4.1.45-6,.08a25.09,25.09,0,0,0-7.44-.37,3,3,0,0,1-1.08-.07c-2.06-.56-3.32.62-4.2,2.15a3.5,3.5,0,0,1-3.33,1.93c-.65,0-1.3,0-1.95,0-3.15-.05-3.87-.6-4.69-3.76-1.52,1.06-3.51,1.09-4.73,2.77-.4.55-1.52.66-2.34.78a8.25,8.25,0,0,1-2-.23,5.18,5.18,0,0,1-4.37,2.22,4,4,0,0,0-1.82.95c-.76.53-1.38,1.38-2.21,1.67a43.68,43.68,0,0,1-7,1.95,8.24,8.24,0,0,0-4.25,1.89,22.93,22.93,0,0,1-3.31,2.78,83.75,83.75,0,0,1-8,4.08,7.21,7.21,0,0,1-3.19.15,5.54,5.54,0,0,0-2.87.53c-1.56.72-3,1.66-4.46,2.45a15.83,15.83,0,0,1-8.63,1.43c-.43,0-.85-.12-1.39-.2-.15.33-.29.64-.44.93-.92,1.78-2.54,2.27-4.08,1-1.8-1.52-4-1.84-6.12-2.3a11.14,11.14,0,0,1-4.54-1.83c-1.38-1-2.7-2.16-4-3.32a43.51,43.51,0,0,0-9.09-6.57,31.68,31.68,0,0,1-2.63-1.85,5.68,5.68,0,0,0-1.49-.71c-2.25-.67-2.84-2.43-1.36-4.3.58-.73,1.35-1.31,2-2s1-1.37,1.51-2.06c-2.32-2.83-2.18-6-1.72-9.18a3.26,3.26,0,0,1,2.67-2.79c2-.5,2-.51,2.14-2.41a2.88,2.88,0,0,1,.24-1,8.09,8.09,0,0,0,1.07-4.43c-.08-1.29,1.24-2.27,2.81-2.56.84-.15,1.69-.23,2.66-.36.15-1,.24-1.83.42-2.66.48-2.26.83-4.63,3.6-5.37A.54.54,0,0,0,271,258c.93-2.25,2.9-2.59,5.16-2.66.61-3.13,2.76-4.38,5.8-4.44.25-1.31.44-2.51.73-3.68a4.46,4.46,0,0,1,2.59-3.19,6.89,6.89,0,0,0,3.52-4.68c.6-2.32,1.24-2.68,3.68-2.2a3.32,3.32,0,0,0,1.78-.37c2.15-.92,4.28-1.78,6.7-.76.57-.82,1.06-1.61,1.65-2.33a3.13,3.13,0,0,1,4.16-1.14,1.8,1.8,0,0,0,1.81-.18,18.45,18.45,0,0,0,2.39-1.82c1.6-1.5,2.68-1.71,4.36-.45a2.71,2.71,0,0,0,2.2.56c2.85-.44,5.68-1,8.59-.56.43.07.93-.28,1.4-.43a58.23,58.23,0,0,0,6.1-1.92,5.1,5.1,0,0,1,2.56-.26,4.69,4.69,0,0,0,3.74-1c.74-.59,2-.52,3.18-.77,1.65-2.57,3.23-3,6.25-1.76a3,3,0,0,0,1.59,0c3.25-.6,6.48-1.4,9.83-1,2.27.28,4.54.62,7,1a11.61,11.61,0,0,1,4.64-3.89c2.42-1.33,3.33-1.18,5.41.77a4.74,4.74,0,0,1,4.31.21,2.69,2.69,0,0,0,1.45.15c1-.08,2-.3,3-.33s1.86.09,2.93.16c.17-.4.34-.85.55-1.28a3.07,3.07,0,0,1,5.17-1,12.84,12.84,0,0,1,1.11,1.33c1.14,1.38,2.25,1.53,3.67.49,1.75-1.28,3-1.33,4.69,0a1.88,1.88,0,0,0,1.73.5,11.17,11.17,0,0,1,2.16,0c2.09-1.79,3-1.76,5.23-.08a10.93,10.93,0,0,0,3,1.58,9,9,0,0,1,4.14,2.61,6.75,6.75,0,0,0,2.09,1.41c3.32,1.72,6.71,3.32,10,5.12a10.29,10.29,0,0,1,2.43,2.36c1.07,1.21,2.2,2.29,3.92,2.38a3.5,3.5,0,0,1,3.29,2.4,10.82,10.82,0,0,0,4.82,5.23c2-.64,3.68-1.13,5.33-1.79a7.14,7.14,0,0,0,1.88-1.38Q456.89,239,459,237a3.39,3.39,0,0,0,1-1.29,5,5,0,0,1,2.66-3c1.14-.61,2.4-1,3.51-1.66a19.44,19.44,0,0,0,4.27-2.87c1.51-1.55,3-1.86,4.83-.93a4.22,4.22,0,0,0,.7.2,12.18,12.18,0,0,1,6.16-2.27,4.13,4.13,0,0,0,2.83-1.4,4.47,4.47,0,0,1,4.7-1.42c.84.19,1.69.35,2.53.55a5,5,0,0,0,3.71-.29c1.36-.68,2.91-.9,4.2-1.9a2.15,2.15,0,0,1,2.78.4,7.15,7.15,0,0,1,.91,1.09l4.46-1a2.41,2.41,0,0,1,2.83-1.12c1.92.67,1.65,2.49,1.92,4.11,1.88.37,3.45,1.62,5.53,1.48.74-.05,1.5.88,2.32,1,2.4.42,4.83.67,7.24,1,1.27.17,2.56.26,3.81.53,2.32.5,4.61,1.14,6.92,1.64a1.9,1.9,0,0,0,1.35-.32c2.38-1.74,3.15-1.72,5.39.27.26.23.55.42.92.7.47-.55.84-1.07,1.3-1.5,1-1,2.38-1.17,3.27-.12s2.36,1.19,3.63,1.72c.55-.52,1.05-1,1.6-1.49a2.51,2.51,0,0,1,3-.39,2.54,2.54,0,0,1,1.16,2.61c-.06.61-.14,1.21-.2,1.78.25.07.36.13.38.11,1.91-2.1,4-2.16,6.36-.75a5.35,5.35,0,0,0,4.76.46c1-.39,2.4-.05,3.59.09,1.78.22,3.56.5,5.31.85,1.26.25,2.49.66,4,1.07a2.8,2.8,0,0,1,1-.57c.75-.14,1.89-.43,2.24-.07,1.75,1.88,4.44,1.5,6.37,2.88a5.4,5.4,0,0,0,1.64.51,29.19,29.19,0,0,1,9.45,4.12,4.45,4.45,0,0,0,1.78.61,11,11,0,0,1,7.57,5.27,4,4,0,0,1,.77,2c0,1.87,1.06,3.2,1.85,4.72,1.67,3.19,3.28,6.41,4.78,9.69a7.8,7.8,0,0,1,.9,5.23c-.1.41.35,1,.67,1.45,1.88,2.48,3.2,5.11,2.81,8.37a5,5,0,0,0,.4,1.88c.36,1.24.71,2.49,1.18,3.68a10,10,0,0,0,1.22,1.76c1.34-1.37,2.52-2.43,3.51-3.66a7.72,7.72,0,0,0,1.47-2.8c.76-2.93,1.74-3.45,4.46-2.08,1.11-.71,2-1.5,1.83-3.08a2.23,2.23,0,0,1,.74-1.71c2.12-1.62,2.19-4.21,3.16-6.36A12.36,12.36,0,0,0,645,264c.29-1.49.51-3,2.09-3.82a1.14,1.14,0,0,0,.5-.64c.6-2,1.65-3.94,1.63-6.21a8.91,8.91,0,0,1,1-3.67,3.32,3.32,0,0,1,2.94-2c2,0,3.55-1.05,5.13-2a11.31,11.31,0,0,0,2.26-1.67c1.5-1.58,3.71-1.41,5.43-2.39,1.75.7,3.62.14,5.37.47.92.17,1.69,1.18,2.76,2a3.79,3.79,0,0,1,4.19,1.79,1.67,1.67,0,0,0,.87.52,8.37,8.37,0,0,1,1.44.42,7.11,7.11,0,0,0,4.82,1.28c1.37-.18,2.33,1,2.28,2.57a6.27,6.27,0,0,0,.91,3.32c1,1.95,1.43,4.22,2.62,6.16.23.38.11,1,.16,1.62l1,.13a2.88,2.88,0,0,1,2.71,2.64,4.85,4.85,0,0,1-.1,2.75c-1.07,2-.43,3.88.15,5.82.49,1.64.73,3.29,1.91,4.71.54.65.45,1.89.47,2.86a10.73,10.73,0,0,1-.42,2.22c1.37.79,2.61,1.68,2,3.53,1.48,1.93.82,5,3.64,6.46a18.77,18.77,0,0,0,.42-3.12c-.15-4.61-.46-9.18-2.2-13.58a28,28,0,0,1-1.09-5.71c-.19-1.14-.34-2.28-.44-3.43a3,3,0,0,0-1.74-2.69c-2.06-1.12-2.11-3.08-.47-5.18-.18-1.19-.32-2.32-.54-3.44a6.1,6.1,0,0,0-.51-1.35c-.21-.45-.71-.91-.65-1.31.22-1.62-.77-2.5-1.75-3.49a10.06,10.06,0,0,1-2.67-5.33c-.19-1-.39-1.94-.57-2.79a19.83,19.83,0,0,1-3.28.26,1.84,1.84,0,0,1-1.23-1.07c-1.1-3.16-1.72-4,.84-6l-.57-9.07c-1.33-.83-1.85-2.34-1.66-4.35a14.71,14.71,0,0,0-.64-4c-.36-1.84-.82-3.67-.06-5.64l-5.71-5.86,6.28-1.4c-1.28-1.38-2-2.78-1.2-4.58.15-.35-.26-.93-.42-1.41a9.55,9.55,0,0,1-.47-5.51,4,4,0,0,0-.06-2.11c-.68-2.12-1.5-4.19-2.3-6.39a8.61,8.61,0,0,1-1-.27c-2.12-.84-2.85-2.38-2-4.48a2.13,2.13,0,0,0,.11-2,10.28,10.28,0,0,1-.41-9.18,1.16,1.16,0,0,0,0-.42c-3.2-3.95-3.21-4-.85-7.43l-1.41-5c-.28-.13-.67-.29-1-.47a2.6,2.6,0,0,1-1.59-2.59c.06-2.23-.76-3.82-3-4.61a8.24,8.24,0,0,1-2.72-1.71c-1.36-1.24-2.46-2.79-4.37-3.33a1,1,0,0,1-.5-.4,13,13,0,0,0-3.94-4.42,2.79,2.79,0,0,1-.8-2.14c.08-3.23.27-6.47.52-9.69.14-1.8,1.4-2.92,3-3.83-1-1.56-1.48-3.22-.09-4.57a30.11,30.11,0,0,1,4.06-2.82c-.49-2.46.76-4.4,3-5.84a5,5,0,0,0,1.58-2.44c.82-1.78.18-3.48.37-5.44l-2.34.8c-.37,2.21-1.87,3.39-3.72,4.2a7.06,7.06,0,0,0-4,3.41c-.26.57-.43,1.17-.68,1.74a26.53,26.53,0,0,1-2.15,4.64,7.34,7.34,0,0,1-3,2.21c-2.6,1.16-5.06,2.79-8.09,2.7a5.06,5.06,0,0,1-1.29,0c-2.29-.74-4.57-1.52-6.84-2.33a1.74,1.74,0,0,1-.63-.57c-1.18-1.42-2.34-2.85-3.54-4.31-1.56.45-3,1.48-4.6.52s-1.39-2.69-1.34-4.2c-2.92-2.61-2.77-4.31.64-7.95-2-2.34-2.08-2.67-.5-5.14l-.91.24c-2.39.59-4-.17-4.77-2.43-.28-.78-.45-1.49-1.4-1.69a1.08,1.08,0,0,1-.69-.49c-.85-1.85-2.51-2.58-4.26-3.23a1.63,1.63,0,0,1-.92-.87c-.4-1.37-1.72-1.89-2.54-2.85a1.92,1.92,0,0,0-1.06-.65c-2.13-.3-3.62-1.3-3.94-3.77-1.2.67-2.17,1.26-3.18,1.77-2.18,1.09-3.66.23-3.86-2.22-.06-.79,0-1.58,0-2.2-1.24-.94-2.27-1.82-3.4-2.55-.52-.33-1.29-.26-1.81-.59-2-1.3-4.42-1.64-6.61-2.52a3.59,3.59,0,0,1-1.29-.77,3.44,3.44,0,0,0-2.72-1A3.88,3.88,0,0,1,579.53,68c-.14-.5-.78-.89-1.26-1.26-1-.78-2.07-1.5-3.11-2.25-.23-.17-.41-.51-.65-.55-2.16-.36-3.16-2.36-4.85-3.4-.44-.27-.68-.9-1-1.38-.47-.76-1.14-1.19-2-.79-1.1.53-2.26,1-3.21.06a14.37,14.37,0,0,1-1.76-3,3.16,3.16,0,0,1-2.11-3.68c-.95-.7-1.78-1.36-2.66-1.93a14.77,14.77,0,0,0-1.69-.8c-.82-.4-2-.6-2.38-1.25a3.2,3.2,0,0,0-2.8-1.64,3.5,3.5,0,0,1-3.29-2.33c-.67-1.56-2.21-2-3.74-2.08-2.91-.2-3.45-.6-4.06-3.55-1.57-.6-3.86.24-4.74-2-2.34.45-4.24,0-5.7-1.89a3.27,3.27,0,0,0-1.47-.75c-.47-.17-1-.14-1.46-.34a4.72,4.72,0,0,0-4.06-.23c-.82.34-2.06-.22-3.08-.51-.61-.17-1.1-.72-1.7-.91a3.64,3.64,0,0,0-3.48.37c-1.58,1.13-2.11,1-3.61-.25-.21-.18-.43-.53-.63-.53-1.95.09-3.22-1-4.29-2.57l-1.52.87a2.15,2.15,0,0,0,.14.53c1.44,2.13,2.92,4.24,4.31,6.39a2.64,2.64,0,0,0,1.51,1.38,7.58,7.58,0,0,1,5.89,7.75c0,.21,0,.43,0,.78a13.2,13.2,0,0,1,5.17,5.8,2.76,2.76,0,0,0,1.06.92A11.71,11.71,0,0,1,523.22,54a3,3,0,0,0,1.87.83c1.68.2,2.14.77,2.52,2.45a2.19,2.19,0,0,0,.6,1.25c2.39,1.7,4.32,4,7.24,5a3.55,3.55,0,0,1,2.32,2.93,5.46,5.46,0,0,0,1.53,2.78A32.44,32.44,0,0,1,542,72.62a4.39,4.39,0,0,1,.06,5.26,2.57,2.57,0,0,0-.4,1.56c.13,1.28,0,2.3-1.55,2.7.24.69.44,1.22.61,1.76a3,3,0,0,1-1.44,3.85A4.64,4.64,0,0,0,537.67,89a3.83,3.83,0,0,1-4.46,1.79c-2.61-.53-5.22-1-7.77-1.54-1.94,2.45-3.73,2.86-6.47-.62A4.94,4.94,0,0,1,514.7,88c-.37-.28-1.09-.16-1.64-.11-1.81.15-3.63.41-5-1.31a1,1,0,0,0-.75-.33c-2.83,0-4.63-1.7-6.37-3.58a2.08,2.08,0,0,0-.35-.25c-1.64.34-2.36,1.69-3.22,2.89,1.36,3.32-.69,5.58-4.89,6.36a26.8,26.8,0,0,1-1.11,3.49,3.78,3.78,0,0,1-3.74,2.46,1.93,1.93,0,0,0-1.79.92,6.21,6.21,0,0,0-1.42,5.7,5.89,5.89,0,0,1-1,5.7,4.41,4.41,0,0,0-.65,2.77c.06,1.87-.52,2.88-2.32,3.28a3.56,3.56,0,0,1-1.5.12c-1.69-.39-2.65.77-3.72,1.67a1.73,1.73,0,0,0-.39,1.12c-.06.82-.41,1.49-1.2,1.56a3,3,0,0,1-1.68-.59c-.72-.45-1.33-1.06-2-1.57-1.42-1.09-3-2.08-3.42-3.79a20.23,20.23,0,0,1-3.21,1.28,2.59,2.59,0,0,1-1.75-.66c-1.6-1.21-1.64-3-.22-5.54-4.43-2.25-6-5.69-5-11l-2-3.34c-2,2.28-3.54,2.71-5.07,1.38s-1.36-3.51.46-5.72c-.95-1-1.92-2.37-1.11-3.77a15.22,15.22,0,0,1,2.85-2.86,8,8,0,0,1-1.87-1.47,9,9,0,0,1-.87-2.41c-3.74-1.06-4.88-4.39-2.59-7.66.37-.53.72-1.08,1.08-1.63l-.39-.3c-.43.51-.82,1.05-1.3,1.51a10.13,10.13,0,0,1-1.67,1.35,2.39,2.39,0,0,1-2.84-.2,2.16,2.16,0,0,1-.79-2.71c1-2.18,2.23-4.26,3.49-6.63a6.67,6.67,0,0,1-.84-1.67,8.74,8.74,0,0,1,.07-2.25c-1.3,0-2.59.05-3.88,0a3.46,3.46,0,0,1-3.22-1.85c-.88-1.94-2.55-2.76-4.36-3.45l-1.09-.42c-1.65,2.05-3.59,1.66-5.6.61-.89-.46-1.79-.91-2.82-1.43-1.62,1.45-3.37,2.27-5.25.2a10.47,10.47,0,0,0-1.41.5,8.27,8.27,0,0,1-5.77.77c-2.23-.42-4.55-.45-6.76-1.17a2.64,2.64,0,0,0-1.62.28,4.92,4.92,0,0,1-3.77.16,5.71,5.71,0,0,0-2.34-.2q-7,.57-14,1.24c-1.58.15-3.15.37-4.71.65a4.78,4.78,0,0,0-1.69.76c-1.54,1-3,2.15-4.57,3.11a8.09,8.09,0,0,1-5,1.14,2.67,2.67,0,0,0-2.37.67,6.28,6.28,0,0,1-5.4,1.64,9.22,9.22,0,0,0-4,.52c-3.2,1.05-6.56.82-9.86.43a4.15,4.15,0,0,1-3.28-2.55c-.3-.65-.6-1.3-1-2.15L336,62.44c0-3.89-.34-7.37,0-10.86a4,4,0,0,1,2.55-3.23,2.19,2.19,0,0,0-1.8-2.4c-3-.78-3.45-1.45-3.38-4.53,0-.21,0-.43,0-.73-1.23-.79-2.49-1.58-3.71-2.42a3.43,3.43,0,0,1-1.49-3c0-.56.06-1.12.1-1.84-1.56.7-3.18.87-4.19,2.3a1.63,1.63,0,0,1-1.12.59c-1.85.08-3.21,1.15-4.66,2.11a14.71,14.71,0,0,1-2.13,1c-1,.44-2,.85-2.94,1.28a13.06,13.06,0,0,1-1.76.81,15.55,15.55,0,0,0-6.94,4c-2.15,2.11-3.12,2.18-5.66,1-1.84.62-3.63,1.17-5.37,1.83a3.21,3.21,0,0,0-1.26,1.06,5.22,5.22,0,0,1-4.13,2c-1.34.07-2.68.29-4,.48a1.11,1.11,0,0,0-.7.42c-1.34,2.07-3.46,2.55-5.66,2.55a4.38,4.38,0,0,0-3.68,1.77,10.38,10.38,0,0,1-2.46,2.09,4.43,4.43,0,0,1-5.27.09c-1.63.56-3.13,1-4.58,1.59a2.48,2.48,0,0,0-1.31.93,4.37,4.37,0,0,1-3.68,2.32c-2.3.31-4.57.58-6.52,2a7.49,7.49,0,0,1-1.63.54,16.35,16.35,0,0,0-2.11,1c-1.05.61-2.08,1.27-3.08,2a4.48,4.48,0,0,0-1.2,1.11,5.89,5.89,0,0,1-2.85,2.18,27.78,27.78,0,0,0-4.3,2.38c-.34.21-.41.87-.57,1.33-.66,1.8-1.42,2.37-3.36,2.4-1.53,0-2.77.36-3.55,1.91-.66,1.3-1.36,1.62-3.59,2.44-.12.31-.26.7-.42,1.09-.83,2-1.88,2.49-3.92,1.77-.78-.27-1.36-.4-2,.44.81,1.68,2.4,3.61.1,5.23-1.91,1.36-3.53.06-4.74-1.1l-4.9,1.38a4.2,4.2,0,0,1-3,2.55c-.2,0-.51.18-.54.32-.38,1.71-1.86,2.08-3.11,2.91a36.51,36.51,0,0,1-3.79,1.9,18.66,18.66,0,0,0-4.3,3.19c-2.16,2.09-2.08,2.17-4.85,2.38-.43.52-.87,1.09-1.36,1.61a2.41,2.41,0,0,1-2.75.75,3.81,3.81,0,0,0-2.5-.06,5.36,5.36,0,0,1-4.51-1,3.64,3.64,0,0,0-3-.71,9.29,9.29,0,0,1-3,.12A7.33,7.33,0,0,1,169,104.6c-.85-.51-1.54-1.29-2.39-1.77-1.88-1.07-3.86-2-5.72-3.05a37.85,37.85,0,0,1-3.26-2.45c-.39-.29-.82-.52-1.22-.8a12.28,12.28,0,0,1-1.53-1.15c-1.17-1.15-2.3-2.34-3.14-3.21l-4.49.29a3.46,3.46,0,0,0,.9.66,5.68,5.68,0,0,1,4.08,4.57,12.42,12.42,0,0,0,2.73,5.52c1.16,1.28,2.38,2.52,3.51,3.83a10.45,10.45,0,0,1,1.71,2.47,3.23,3.23,0,0,1,.17,2.26c-.42,1-1.1,1.93-.53,3.13a1,1,0,0,1-.21.8,5.53,5.53,0,0,0-1.18,3.79,3.91,3.91,0,0,1-1.23,2.4,2.58,2.58,0,0,0-.88,2.45,3.47,3.47,0,0,1-1.95,3.78c-2.06,1-2.66,2.8-2.7,4.8a11.86,11.86,0,0,1-3,8.09c-1.13,1.25-1.8,2.83-.68,4.54a2.07,2.07,0,0,1,.16.4c1.09,2.87.29,4.17-2.89,4.48a7.16,7.16,0,0,0-1.41,3.91,5.79,5.79,0,0,1-3,5,1.81,1.81,0,0,0-.92,2,5.23,5.23,0,0,1-1.55,4.53,2.08,2.08,0,0,0-.58,1.33c-.06,2.77-1.43,4.93-3.13,7-.37.44-.71.9-1.06,1.36.92,1.43,1.83,2.78,2.67,4.18.74,1.22.38,3-.93,3.27-2.1.48-2.35,2-2.91,3.81,3.67.71,4.8,3.15,4.38,6.5a10,10,0,0,1,2.92.27,12.8,12.8,0,0,1,2.35,1.82,4.32,4.32,0,0,0,1.47.81c4.15,1,4.75,1.67,5.06,6,1.66.78,3.12,1.79,3,4,1.71,1.77.87,4.41,2.19,6.39.52.77.38,2.09.27,3.14a9.26,9.26,0,0,0,.9,5c1.77,3.76,1.08,7.47-.54,11a3.21,3.21,0,0,1-2.11,1.6,3.29,3.29,0,0,0-2.79,2.33c-.34.89-.88,1.08-1.77,1.22-2.16.34-4.32.48-6.4,1.52a8.9,8.9,0,0,1-7,.11c-.83-.29-1.31-1.48-2.13-2s-2.17-.38-2.73-1c-1.49-1.71-3.81-2-5.39-3.47a1.6,1.6,0,0,0-1.37-.13,3.68,3.68,0,0,1-3.73-.55,4.18,4.18,0,0,1-4.65.81,2.77,2.77,0,0,0-.85-.12c-2.14,0-3.64-.84-3.73-3.29-3.15-.36-6.37.3-9.19-1.64a8.27,8.27,0,0,0-.74.82,2.89,2.89,0,0,1-3.56,1.26,17.29,17.29,0,0,0-7.29-.38,3.22,3.22,0,0,0-2.76,1.79A4.35,4.35,0,0,1,83.38,233a45.58,45.58,0,0,1-6.33,1.23,3.32,3.32,0,0,0-3,1.67A6.45,6.45,0,0,1,70.31,239a7.75,7.75,0,0,0-2,1.24c-.52.38-.92.93-1.46,1.28a11.48,11.48,0,0,0-4.16,4.42c-1.05,2-2.33,2.19-5.16,1.36a10.11,10.11,0,0,1-4.59,4.91c-.32.15-.46.69-.68,1A9.76,9.76,0,0,1,51.11,255a3.36,3.36,0,0,0-1,3.29c.36,2-.49,2.82-2.55,3.15a10.52,10.52,0,0,0-1.93.77c-.67.25-1.34.47-2.16.75.05,1,.14,2.11.16,3.18,0,1.88-.17,3.61-2.34,4.39a1.88,1.88,0,0,0-.79,1.54,4.37,4.37,0,0,1-1.26,3.54,2,2,0,0,0-.56.9c-.42,2.46-2,3.9-4.32,5,.76,2.66-1,4.66-1.75,6.94-.25.8-1.36,1.34-2.27,2.17.39.37.84.77,1.26,1.2.8.8,1.59,1.62,2.39,2.42a11.85,11.85,0,0,0,1.48,1.45c1.54,1.08,1.56,2.15.79,3.87-2,4.44-5.7,7.54-8.47,11.36a11.83,11.83,0,0,1-2.3,2.27,3,3,0,0,1-3.63.17,12.37,12.37,0,0,1-4.39-5,2.87,2.87,0,0,1,.23-3.28c1.67-1.94,1.76-4.36,2.29-6.65.13-.56.15-1.15.32-1.7a10.65,10.65,0,0,0,.57-5.83,6.1,6.1,0,0,1,1.59-5.22,8,8,0,0,0,1.6-3.22,10.56,10.56,0,0,1,5.34-6.59A7,7,0,0,1,31.1,271a4.19,4.19,0,0,0,.69-1.79,4.91,4.91,0,0,1,3-3.85c-.13-.43-.24-.83-.36-1.22a3.65,3.65,0,0,1,1-4,31.7,31.7,0,0,0,3.54-4.57,34.45,34.45,0,0,1,5.46-5.48,3.64,3.64,0,0,0,1.54-2.4A5,5,0,0,1,48,244.31a4.06,4.06,0,0,0,1.21-1.19,11.12,11.12,0,0,1,4.47-4.28,5.41,5.41,0,0,0,2.65-2.71,3.49,3.49,0,0,1,1.52-1.43c1.54-.92,3.13-1.76,4.71-2.61,1.9-1,3.81-2,5.72-3,.19-.1.5-.1.58-.24,1.65-2.85,5.36-2.66,7.37-5A2.76,2.76,0,0,1,77.8,223c3.11-.56,5.78-2.18,8.58-3.5.78-.37,1.58-.7,2.39-1,.4-.15.9-.4,1.24-.28,2.34.79,4.67-.68,7,.14,1.93-3.1,4.62-3.13,7.61-2.07a26.56,26.56,0,0,1,8.28,4.57,7.37,7.37,0,0,0,2.27,1.1c1.26.45,2.55.8,4.18,1.3a4.91,4.91,0,0,1,4.7-.42,5.66,5.66,0,0,0,2.35.07,7.63,7.63,0,0,1,4.38.9,25.32,25.32,0,0,1,8,6.19,3.64,3.64,0,0,0,1,.78c.91.56,1.84,1.08,2.82,1.65,1.44-1.8,4.17-.6,6-2.27a11.1,11.1,0,0,0-1.53-4.1,5.06,5.06,0,0,1-.69-4.13,2.62,2.62,0,0,0-.15-1.65,20.71,20.71,0,0,1-1.55-7.14,7.26,7.26,0,0,0-.36-1.91c-.75-2.24-1.54-4.46-2.37-6.83-2.26.17-3.88-.8-4.25-3.15l-5.38-2.39c-.75,1.63-1.93,2.84-4.07,2.48-2-.33-3-1.59-3.39-3.56-5.41-.3-10.88.23-16.15-2-3.31,2-6,.4-8.53-2a11.08,11.08,0,0,0-1.19.72,29.32,29.32,0,0,1-10.49,5.41c-1,.27-1.86.77-2.81,1.09-2.1.71-4.21,1.42-6.35,2a2.61,2.61,0,0,0-1.58.89A13.8,13.8,0,0,1,75.33,206c-1.19.93-2.45,1.77-3.67,2.67a9.22,9.22,0,0,1-1.9,1.42c-3.46,1.3-5.72,4.24-8.7,6.21s-5.56,4.34-8.3,6.57c-1.68,1.36-3.24,2.78-5.54,3.17a6.37,6.37,0,0,0-2.67,1.71c-1,.84-1.8,1.87-2.73,2.77a5.87,5.87,0,0,1-4.62,2,3.71,3.71,0,0,0-1.68.71,16.63,16.63,0,0,1-3,1.66,6.84,6.84,0,0,0-4.05,2.92c-.75,1.14-1.67,2.12-1.64,3.62a2.16,2.16,0,0,1-.51,1.18,5.21,5.21,0,0,0-1.21,4.7c.39,1.57-.84,2.84-2.53,3.21a4.92,4.92,0,0,1-1.93.1,2.38,2.38,0,0,0-2.91,1.51,4,4,0,0,1-4,2.13,3.46,3.46,0,0,0-1.79.38,5.15,5.15,0,0,1-6.66-.84L4,252.4v-2.16c1.36-.52,1.66-1.76,2.17-3,2.06-4.82,3.63-6.49,7.86-6.23.87-3.49,4.36-3.9,6.88-5.51.46-.3,1.27,0,1.88-.14a4,4,0,0,0,1.91-.73,27.77,27.77,0,0,0,2.17-2.77c1.56-2,3.14-3.92,4.7-5.89.26-.32.47-.68.81-1.18l-4-2.76c1.32-2.38,2.48-4.62,3.79-6.76a10.12,10.12,0,0,1,2.16-2.38c2.48-2.08,5-4.09,7.55-6.1s5-3.91,7.46-5.9a2.48,2.48,0,0,0,1-1.24,3.66,3.66,0,0,1,2.6-2.91c1.13-.44,2.35-.68,3.51-1.07a5.11,5.11,0,0,0,2.12-.95c1.53-1.65,3.47-1.94,5.52-2,1.29,0,2.58,0,3.91,0,.77-1.63,1.71-3,3.49-3.4,2.56-.56,5.14-.94,7.29.51a25.53,25.53,0,0,1,4.36-1.66c2.3-.42,4.54-.68,6.64-2,1.74-1.1,3.9-.64,5.83-.07.64-.48,1.2-.93,1.79-1.34a4.17,4.17,0,0,1,3.91-.69c2,.75,3.82.17,5.63-.61,1.39-.6,2.74-1.28,4.17-1.77a6.33,6.33,0,0,1,6.42,1.5,3.45,3.45,0,0,1,1.2,4.06,2.32,2.32,0,0,0,1.61,3.27c.66.22,1.33.43,2.16.69-.14-1.3.77-1.49,1.56-1.89,1.58-.81,1.64-2.1.23-3.28a2.43,2.43,0,0,1-.88-3.23c.31-.87.74-1.71,1.12-2.55-1.81-2.6-1.75-4,0-6.65a19.89,19.89,0,0,0,2-3.58c.66-1.59,1.13-3.26,1.68-4.9.85-2.53,1.71-5,3.6-7.07a5.09,5.09,0,0,0,1.09-2.09,19.26,19.26,0,0,1,3.47-6.43c.6-.81,1.23-1.6,1.86-2.39a3.92,3.92,0,0,0,.94-3.2,4.5,4.5,0,0,1,1.2-4,6,6,0,0,0,1.59-4.15,8.59,8.59,0,0,1,2.6-6,2.17,2.17,0,0,0,.76-1.89,9.22,9.22,0,0,1,2.24-6.81c1.29-1.66,3-2.93,4.39-4.56a3.9,3.9,0,0,0,1.19-3c-.05-1-.14-2-.21-2.93a7.41,7.41,0,0,0-.92-.45,6.46,6.46,0,0,1-4.66-4.4,4,4,0,0,0-1.07-1.29,31,31,0,0,1-3.13-3.24c-1.5-2.11-2.81-4.36-4.16-6.57a5,5,0,0,0-2.66-2.4,4.23,4.23,0,0,1-2.55-2.49c-.2-.45-.39-1.13-.74-1.25-2.1-.74-2.77-2.34-2.77-4.37a5,5,0,0,1-3.45-2.52,10.27,10.27,0,0,0-2.47-2.6,9.73,9.73,0,0,1-3.74-4.62,7.2,7.2,0,0,0-3.25-4.17,2.28,2.28,0,0,1-.63-.59,3.43,3.43,0,0,0-2.07-1.37,4.78,4.78,0,0,1-2-1.45,27.57,27.57,0,0,1-2.3-2.82,44.48,44.48,0,0,1-2.8-4.07,2.8,2.8,0,0,0-1.65-1.53,4.37,4.37,0,0,1-3.07-3.81,4.73,4.73,0,0,0-.88-2.14,44.37,44.37,0,0,0-3.19-3.23,2,2,0,0,0-2.2-.35c-1.56.55-3.15,1-4.71,1.58-7.85,2.86-15.32,1.55-22.58-2a7.72,7.72,0,0,1-3.56-3c-1.09-1.94-2.09-3.93-3.32-5.77-4.08-6.13-4.17-12.57-1.61-19.21,1.21-3.13,2.31-3.73,5.6-3.5.72.05,1.43.19,2.14.31,1.18.2-.75-1.49.43-1.28,0-.43,1,.07.78,0-2-1.32-.66-1.44-.08-3.16s2.22-2.66,4.56-2.38a23.05,23.05,0,0,1,2.81.69c1-3.59,2.44-4.44,6.1-3.8l.42.09a1.68,1.68,0,0,0,1.7-.55,5.62,5.62,0,0,1,7-.36A4,4,0,0,0,93.45,7a22,22,0,0,1,6.81,3.49,28.71,28.71,0,0,1,7.85,13,8.22,8.22,0,0,1-.22,5.51,4.2,4.2,0,0,0-.27,2.31,9.84,9.84,0,0,1-1,6.08c-.56,1.23-1.19,2.44-1.75,3.58a2.75,2.75,0,0,0,.27.49c8.67,9.11,18.42,17,28.3,24.73a7.41,7.41,0,0,0,.71.5c2.32,1.41,4.87,2.53,6.53,4.84.16.22.47.32.7.5,3,2.38,5.95,4.78,8.94,7.14q3.47,2.74,7,5.4c.92.7,1.92,1.29,2.84,2q6.31,4.73,12.6,9.5a7.46,7.46,0,0,0,6.29,1.61c2.8-.62,5.56-1.48,8.29-2.35a6.67,6.67,0,0,0,3.91-3.22,7.92,7.92,0,0,1,4-3.47,22.14,22.14,0,0,0,3.35-1.94c2.54-1.65,5-3.39,7.58-5,1.21-.76,2.61-1.21,3.85-1.92,2.5-1.43,5-2.95,7.43-4.42A91.73,91.73,0,0,0,231.9,65.16c4.11-3.65,8.66-6.7,14.13-8.05a3.42,3.42,0,0,0,1.46-.85,11,11,0,0,1,4.76-2.44c1.59-.46,3.2-.86,4.74-1.45,6-2.3,11.9-4.74,17.9-7,7.62-2.85,15.28-5.59,22.95-8.31a93.45,93.45,0,0,0,17.29-7.84c2.45-1.48,4.61-3.47,7.62-3.85a3.67,3.67,0,0,0,1.17-.54c1.77-1,3.51-2,5.32-2.89a43.94,43.94,0,0,1,6.46-3,66.55,66.55,0,0,0,16.48-7.94,13.7,13.7,0,0,1,5.52-2.33c7.13-1,14.27-2,21.4-3.05,2.25-.33,4.58-.41,6.6-1.68H390a20.92,20.92,0,0,1,2.76,1.12c2.69,1.55,2.76,4.59.18,6.31a6.74,6.74,0,0,1-1.34.7c-5.66,2.14-11.28,4.37-17,6.37a33.69,33.69,0,0,0-12.29,7.83A14.82,14.82,0,0,1,357,29.86a135.86,135.86,0,0,1-20.57,5.77,3.9,3.9,0,0,0-.83.39,27.1,27.1,0,0,1,4.35.51,44.31,44.31,0,0,1,7.72,2.67c3.3,1.65,4.13,4.72,2.57,8.07a11.37,11.37,0,0,1-1.57,2.57c-1.4,1.64-2.91,3.19-4.38,4.78L343.06,56a4.51,4.51,0,0,0,2.6-.08,51.11,51.11,0,0,1,11.78-2.62c3.77-.5,7.32-1.42,10.43-3.78a16.57,16.57,0,0,1,3.67-1.82,45.19,45.19,0,0,1,20.29-3.33c11.38.63,22.77.51,34.16.08,5.95-.22,11.63.76,16.66,4.26,1.9,1.32,3.53,2.77,3.56,5.35,1.79.64,3.14,1.63,3.22,3.63,3.29.19,4.31,1.9,2.85,5.25,1.1,2,1.1,2,.33,4.21,1.9,3,1.72,4-1.16,6.51a1.34,1.34,0,0,0-.09,2.05c.47.62,1,1.21,1.49,1.83l.62.07c2.74.22,3.4.86,4.09,3.49a36.77,36.77,0,0,0,1.18,4,6.48,6.48,0,0,1,.53,3.89c2,2.11,3.88,3.88,5.48,5.9,1.4,1.76.94,3.48-.91,4.8l-1.21.85c.27.89.26,2.08.84,2.58a4.47,4.47,0,0,1,1.54,4.58,4,4,0,0,1,4.81,1.43c1.25,1.66.92,3.37-.07,5.05l4.71.5c.34-1,.45-2.34,1.15-3.19s2.05-1.41,3.33-2.23c-1.31-2.3-1.61-4.68.36-6.82-3.57-4.25-2.8-7.14,2.43-9.51.32-3.32,1.63-4.52,5-4.59,1,0,2.1,0,3.2,0V85.68c-3.34-1.7-3.78-2.68-2.7-6-.3-.43-.64-.89-1-1.37-1.52-2.25-1.27-3.44.91-5.08a5.47,5.47,0,0,0,1.51-1.75,4.23,4.23,0,0,1,4.38-2.53,13.9,13.9,0,0,1,4.76,1.22c4.48,2.3,8.88,4.77,13.25,7.29A10.23,10.23,0,0,0,515.5,79a33.82,33.82,0,0,1,4.2.86c.48.1,1,.16,1.45.26,1.39.3,2.8.55,4.17.93s2.73.91,4.08,1.4c2.41.86,4.74,1,6.88-.71.11-.09.21-.19.34-.31l.4-3.31c-2.22-2.08-4.39-4.2-6.66-6.19a17.28,17.28,0,0,0-3.72-2.53,58.76,58.76,0,0,1-12.76-8.46,14.4,14.4,0,0,1-3-3.65,77.4,77.4,0,0,0-8.8-12.55c-3.24-3.68-6.43-7.41-9.75-11-1.5-1.63-3.27-3-4.91-4.51a11.47,11.47,0,0,1-1.08-1.05c-.87-1-1.7-2.12-2.58-3.15-1.14-1.35-2.1-2.77-2-4.64s1.42-3.21,3.28-2.87a44,44,0,0,1,7.5,2,16.09,16.09,0,0,0,4.15,1c3.22.31,6.43.71,9.65,1.07a83.21,83.21,0,0,1,8.79,1.05c3.13.7,6.14,1.77,9.43,1.61a7.92,7.92,0,0,0,2.51-.1,3.87,3.87,0,0,1,4,.84,5.37,5.37,0,0,0,3.43,1.58,3.68,3.68,0,0,1,1.23.39c3,1.31,6,2.53,8.85,4a26.55,26.55,0,0,1,4.75,3.31,3.74,3.74,0,0,0,1.92,1.16,4,4,0,0,1,3.07,2.15c.16.3.38.72.66.8a4.27,4.27,0,0,1,3.14,3c.05.16.31.31.5.37,2.5.8,3.71,2.81,4.55,4.81,2.17,0,4.16-.19,6.15-.11a2.64,2.64,0,0,1,2.54,2.27,2.84,2.84,0,0,0,.58,1.33c1.29,1.3,2.25,2.88,3.94,3.86,1.21.7,2.19,1.79,3.6,2.28a5.39,5.39,0,0,1,1.56,1.14c2.13,1.83,4.3,3.61,6.33,5.54a8,8,0,0,0,5,2.61,6.58,6.58,0,0,1,2,.71q4.15,1.83,8.29,3.69a20.74,20.74,0,0,1,6.88,4.39,4.64,4.64,0,0,0,1.45.87,37,37,0,0,1,5.07,2.33c7.53,5,14.55,10.59,19.6,18.28a4,4,0,0,1-2,6.14,24.94,24.94,0,0,1-3,.61c.5,1.23.72,2.73,1.56,3.64,1.47,1.59,3,3.34,5.44,3.58a2.78,2.78,0,0,1,2.73,2.82c.05.41.07.82.1,1.11l4.21,1.93,3.33-2.7c-1.21-3.59-.87-4.53,2.16-6.39.39-1.05.49-2.15,1.09-2.71a11.91,11.91,0,0,1,3-1.52c0-2.88.58-3.45,3.56-3.64a2,2,0,0,0,1.24-.57c1.31-1.43,2.6-2.9,3.82-4.41S665.87,91,667.3,91c1.05-1.62,1.62-3.32,2.8-4.13,1.78-1.23,2.57-3.2,4.15-4.54,1.3-1.1,2.24-2.6,3.45-3.82,1.57-1.59,3.37-3,4.84-4.63,4.29-4.87,8.59-9.72,13.32-14.18,5.45-5.15,10.77-10.43,16.15-15.64a10.69,10.69,0,0,1,1.35-1c-1.14-2.19-2.14-4-3.07-5.88a22.91,22.91,0,0,1-2.61-8.86c-.47-8.11,3.73-13.78,9.79-18.43a6.29,6.29,0,0,1,2.12-1c3.05-.83,6.1-1.74,9.2-2.3a15.51,15.51,0,0,1,5.14.16A7.81,7.81,0,0,1,737,8.16a2.34,2.34,0,0,1,.81,2.73,2.15,2.15,0,0,1-2,1.74c-2.07,0-3.06,1.22-4,2.77s-1.92,1.71-3.52,1.11a10.56,10.56,0,0,1-1-.48,3,3,0,0,0-.35.6,3,3,0,0,1-3.11,2.47,3.6,3.6,0,0,0-1.91.82,15.13,15.13,0,0,0-4.81,6.25c.28.49.7.9.74,1.36a38,38,0,0,0,.23,4c.28,1.29,1.36,2.49,1.39,3.74,0,1.81,1.44,3.15,1.31,4.93,0,.15.26.33.4.49l1.9,2.1h10.67c0-2.27,1.3-3.28,3.09-3.84,1.09-.34,2-.85,2.15-2.12a1.55,1.55,0,0,1,.49-.94c1.37-1,1-2.37.8-3.65a6,6,0,0,0-.64-.4c-1.52-.69-2.49-1.77-2.23-3.54a4.41,4.41,0,0,1,2.94-3.46,2.83,2.83,0,0,1,3.95,1.6,7.3,7.3,0,0,0,2.75,3.34,21.52,21.52,0,0,0,2.32-1.75c2.14-2.1,3.75-1.94,5.38.59a3.09,3.09,0,0,0,.42.44ZM107.74,25.85c-2.55,2.54-2.76-6.62-6-6.23-.55.07-2.92-3.75-3.2-4.18-.83-1.28-11.28-5.17-12.22-5.5-1.29.77-12.56,2.4-13.7,3-1.43.7-6.14,10.31-7.56,10.17.12.39,4.08,8.93,4.2,9.08,1,1.25,2,1.65,1.2,3.07s.32,1.5-1.14,1.27c-1.21-.19,2.79.81,1.61,1.76,1.6.72-1,1.77.38,2.38,2.2-1.5,2.43.2,4.27,2.21.78.85,5.37,2.22,6.32,1.31s3.08-.5,4.4-.57c.78,0,4.5-2.23,5.45-2.23.5-2.45,3.33-.86,5.5-1.46.48-.13,1.65-3.08,2.11-3.29C102.59,35.16,109.93,28.7,107.74,25.85ZM672.27,98.57c1.57-1.32,1.57-1.32.69-2.21Z"/><path class="cls-1" d="M422,639.29c-1.22-1.19-2.59-2.24-2.66-4.22,0-.39-.95-.75-1.42-1.1-.32.34-.46.42-.5.55-1,3-3.23,3.8-5.7,1.8a5.86,5.86,0,0,0-3.33-1.64,2.64,2.64,0,0,1-2.17-2.17c-.2-.68-.33-1.38-.54-2.25-3.15.43-5.31-1.16-7.05-3.7-2.11,1.63-4.44,1.73-6.85,1.38a2.7,2.7,0,0,1-1.23-.39c-2.08-1.59-4.51-1.65-7-1.83a20.8,20.8,0,0,1-4.21-.94c-2.55-.75-5.09-1.51-7.59-2.4a11.18,11.18,0,0,1-3.22-1.72c-3.82-3.06-7.62-6.16-11.31-9.38a8.84,8.84,0,0,1-3.2-8.51,2.79,2.79,0,0,0-.27-1.84,5.9,5.9,0,0,1,.1-6.74,7.86,7.86,0,0,0,1.1-5.67c-.52-3.41-.76-6.87-1.06-10.31a4.15,4.15,0,0,1,.21-2.11c1.41-2.82,1.82-5.9,2.57-8.9.49-2,1.07-3.89,1.72-5.79,1-2.92-.06-6.91-2.57-8.67-2.12-1.49-4.37-2.8-6.55-4.19-.73-.47-1.43-1-2.17-1.42-5-3-7.7-7.65-9.37-13-.94-3-.14-4.82,3-5.54a8.85,8.85,0,0,0,5.91-4.51c1.59-2.64,3.16-3,6.29-2.21,5.09,1.3,10.19,2.57,15.31,3.74a6.51,6.51,0,0,0,3.18-.1,36.71,36.71,0,0,1,11.12-1.33c6.77.09,13.54.25,20.32.41a5.75,5.75,0,0,1,2.1.43c4.86,2.11,10.16,2.64,15.16,4.25a5.43,5.43,0,0,0,4.17-.56,42.3,42.3,0,0,1,12.42-4.25,91,91,0,0,1,10.75-1c5.09-.13,10.06-.6,14.77-2.69a9.83,9.83,0,0,1,6.55-.46c5,1.25,10.17.93,15.27,1.14,2.09.09,4.18,0,6.27.1a3,3,0,0,1,1.76.55,47.36,47.36,0,0,1,4.73,4.73c2.9,3.54,2.6,7.05-.83,10.1a30.82,30.82,0,0,1-4.59,3.22,95.48,95.48,0,0,0-12.85,9.68c1,2,1.94,3.95,2.9,5.87a20.07,20.07,0,0,1,1.66,5.54,51.18,51.18,0,0,0,2.09,6.76c.16.47.61.91.61,1.36,0,2.78,1.32,5.25,1.77,7.92,0,.14,0,.35,0,.42,1.53,1.38,1.59,3.47,2.48,5.17,1.9,3.67,2.17,7.39-.19,11a4.5,4.5,0,0,0-.65,1.79,7,7,0,0,1-2.3,4.29c-.95.88-1.92,1.75-2.94,2.55-3.76,2.91-7.46,5.93-11.36,8.63a66,66,0,0,0-8.23,6.62,12,12,0,0,1-5.41,3.45c-.51.12-.91.67-1.39,1-1,.67-2,1.31-3.07,1.95a6.8,6.8,0,0,0-.77.37c-3.56,2.93-7.75,4.66-11.94,6.41a5.44,5.44,0,0,0-1.34,1c-.49.42-.85,1.07-1.41,1.3a38.82,38.82,0,0,1-6.94,2.59c-1.51.32-3.22-.37-4.85-.61-.35-.05-.69-.13-1.2-.22a5.74,5.74,0,0,1-2,4.35Zm1.1-100.19c-2.19,1.52-3.11,1.57-4.7.4-.35-.26-.64-.58-1-.83a7.12,7.12,0,0,0-5.32-1.21,44.36,44.36,0,0,1-5.4.73,4.06,4.06,0,0,1-2.19-1.12,4.45,4.45,0,0,1-.84-1.39c-1.5-.19-2.87-.62-4.31-.26a2.11,2.11,0,0,1-1.26-.2c-1.25-.56-2.42-1.52-3.71-1.69s-2.8.53-4.21.58a56.42,56.42,0,0,1-7.13-.15c-3-.29-5.72,1.24-8.64,1.52-.32,0-.59.4-.92.54a8.38,8.38,0,0,1-2.91,1.15c-1,0-1.92-.69-3-1.12-2.26,1.52-2.62,1.51-4.83-.06a3.49,3.49,0,0,0-1.34-.51c-1.34-.25-2.69-.43-4-.67a7.09,7.09,0,0,0-4.84.34,21,21,0,0,0,1.32,2c1.38,1.66,2.78,3.31,4.25,4.89a5,5,0,0,0,1.8,1.12,22.14,22.14,0,0,0,2.3.58c3,.83,3.66,1.76,3.57,5,1.78,1,2.1,2.71,1.94,4.58,1.26.7,2.71,1.12,2.71,2.84s-1.28,2.07-2.46,2.5c0,.77-.05,1.42,0,2.06a17,17,0,0,1-1.32,9.08,8.87,8.87,0,0,0-1,3.73c0,2.91-1,5.58-1.32,8.48,1.85,2,1.92,2.57.6,5.22a3.45,3.45,0,0,0-.29,1c-.15,1-.27,1.92-.43,3.05a7,7,0,0,1-1.14,10.22c0,1.5,1.14,2.39,1.8,3.55a33.45,33.45,0,0,1,1.68,4c1.48-.59,2.86-.8,4,.17s2.08,2,2.93,2.78c1.2-.11,2.32-.56,3.08-.2s1.34,1.51,2.11,2.46a3.51,3.51,0,0,1,3.36,1.88,1.44,1.44,0,0,0,2.35.23,4.41,4.41,0,0,1,4.48-.59c1,.31,2,.81,3.06,1.05a10.14,10.14,0,0,1,5.68,4.07c.44.55.82,1.15,1.34,1.89,1.29-1.61,2.92-1.49,4.62-1.22a6.24,6.24,0,0,1,4.21,2.7c.76-.12,1.39-.25,2-.31a10.65,10.65,0,0,1,1.94-.05c2.32.21,3.12,1,3.23,3.39,0,.86.32,1.25,1.26,1.38,0-.73,0-1.31,0-1.88a2.87,2.87,0,0,1,3.09-3.11,3.11,3.11,0,0,1,3.26,2,6.76,6.76,0,0,0,2.57,2.89c.8-1.81,1.24-3.76,3.59-4a4.46,4.46,0,0,1,4.63,2.48c.37,0,.65-.05.92-.11s.55-.16.79-.23c.66-2.51,1.22-3,3.74-3,.86,0,1.73,0,2.59-.13a1.89,1.89,0,0,0,1.16-.47,39.06,39.06,0,0,0,2.67-3.58,4.12,4.12,0,0,1,2.54-1.86c1-.24,2-.4,2.93-.6,1.62-5.18,1.67-5.22,4.78-4.85a31.67,31.67,0,0,1,3.09-3.11c1.65-1.27,3.7-1.87,5.13-3.63,1.08-1.33,2.87-2.11,4.4-3a12.84,12.84,0,0,1,2.73-1.21,4.2,4.2,0,0,0,3.08-2.72,4.39,4.39,0,0,1,3-2.92c.46-.16,1.08-.35,1.26-.71,1.08-2.26,2.06-4.57,3.08-6.88-1.55-1.64-1.91-3.61-2.22-5.62a13.2,13.2,0,0,0-.87-3.76,12.21,12.21,0,0,1-1.16-4.78,2,2,0,0,0-.83-1.84,3.83,3.83,0,0,1-1.46-3,3.59,3.59,0,0,0-.46-1.81,7.18,7.18,0,0,1-1.49-4.86c.06-2.85-1.13-5.29-2.23-7.76a9.35,9.35,0,0,1-.84-5.47,6.08,6.08,0,0,1,1.23-2.66c1.38-1.71,2.24-3.91,4.41-4.92a28,28,0,0,1,7.46-7.54l-.42-1.59c-.28,0-.48,0-.55.06-1.9,2-4.12,1.82-6,.33-2.07-1.63-4.71-1.46-6.72-2.92l-.53.63c-2,2.41-3.76,2.92-6.65,1.69a2.45,2.45,0,0,0-2.23.16c-1.45.67-3,1.41-4.56.71s-2.59-.13-3.69.82a3.91,3.91,0,0,1-4.61.75,6.18,6.18,0,0,0-4.41-.29c-2.53.55-5.07,1.06-7.6,1.62a12.76,12.76,0,0,0-2.68.79c-1.21.57-2.33,1.32-3.81,2.17v6.86l-.36.07Z"/><path class="cls-1" d="M93,368.23c1.83.21,3.69.36,5.53.67s3.72.62,4.89,1.93l5.56-1.6-2.28-2.6c4.39.7,8.85.59,12.91,2.66,1.91,1,4,2,6.31.85a4.05,4.05,0,0,1,2.54-.19c4,1,8,1.64,11.57,3.89a36,36,0,0,0,4.42,2.25,9.78,9.78,0,0,1,4.86,4.11,5.73,5.73,0,0,0,1.17,1.23c.42.39,1,.68,1.27,1.15a6.37,6.37,0,0,0,2.89,2.77,2.63,2.63,0,0,1,.9.91c.23.35.55.85.45,1.17-.6,2.09,1.94,3.79.68,6a4.29,4.29,0,0,0-.34,1.68c-.17,1.64-.29,3.29-.44,5,.78.3,1.45.5,2.09.8a3.37,3.37,0,0,1,2.25,3.35c-.14,1.41-1.15,2.33-3,2.67-.21,0-.43,0-.65.06a3,3,0,0,0-.41.12c-1.94,3.2-2.8,3.53-6,2.17-.37.22-.81.44-1.21.73a12.45,12.45,0,0,1-6.49,2.1c-2.66.19-5.31.45-8,.67-1,.08-2,.12-3,.18-2.65.16-4.89-.51-6-3.21a4.3,4.3,0,0,1-3.56-1.27,3.23,3.23,0,0,0-3.47-.46,6.18,6.18,0,0,1-6-.59,1.92,1.92,0,0,0-1.36-.2,3.42,3.42,0,0,1-3.08-.5,2.93,2.93,0,0,0-1-.47c-2.82-.81-5.65-1.61-8.59-2.44l-.36,1.46a46.75,46.75,0,0,0,3,3.86,4.41,4.41,0,0,0,2.22,1.21c3.24.66,6.49,1.3,9.77,1.71a37.91,37.91,0,0,0,5.8,0c2.1-.07,4.06.3,5.47,2a3.93,3.93,0,0,0,2.47,1.11,49,49,0,0,1,5.81,1.57c1.85.7,3.16,2,3,4.26a2.24,2.24,0,0,0,.34,1.22,13.61,13.61,0,0,1,1.71,7.48c0,1.59.06,3.05,1.28,4.39a5.47,5.47,0,0,1,.89,3c.22,2.37.21,4.75.41,7.12a25,25,0,0,0,.77,4.46,21.65,21.65,0,0,1,1,7,2.23,2.23,0,0,0,.59,1.48,4.39,4.39,0,0,1,1.19,3.79,10.52,10.52,0,0,0,1,6.49,8.32,8.32,0,0,1,.5,5.5,3.76,3.76,0,0,0,0,1.86,29.86,29.86,0,0,1,1.39,8.5,23.46,23.46,0,0,0,1.56,8.42,7.24,7.24,0,0,1-.62,7.61,3.3,3.3,0,0,0-.07,3.88,5.12,5.12,0,0,1,.93,5c-.41,1.3.08,3-.9,4.24,3.13,2,2.54,3.19,1,5.38l.51,4c2.31,2.13,2.39,3.24,0,5.29l-1-1.42c-2.08.31-3.68-.77-3.68-2.88,0-2.47-1.86-3.61-3.12-5.17-.34-.43-1.44-.25-2.38-.38a9.55,9.55,0,0,1-.38-4.3c.09-2.08.38-4.16.27-6.23a213.91,213.91,0,0,0-3-26c-.91-5.1-1.34-10.29-2-15.42a33.85,33.85,0,0,0-1.07-5.29,96.38,96.38,0,0,1-3.26-16.52c-.66-5.36-1.13-10.75-1.67-16.13-.32-3.17-.45-3.49-3.67-4-4.26-.7-8.56-1.19-12.85-1.74-2.36-.3-4.73-.47-7.09-.8a26.25,26.25,0,0,1-12.5-5.54c-1.17-.91-2.62-1.45-3.86-2.28a5.24,5.24,0,0,1-1.94-1.87,5.74,5.74,0,0,0-1.9-2.26,38.63,38.63,0,0,1-9.91-10.75A26.39,26.39,0,0,0,72,395.37a12.77,12.77,0,0,1-1.15-1.29A18.63,18.63,0,0,0,65.78,389c-3.63-2.79-3.16-7.83,1.07-9.7,4.61-2,9.44-2.85,13.8.95,2.28,2,4.54,4,6.85,5.95A13.12,13.12,0,0,0,90,387.85c5.14,2.61,10.33,5.12,15.44,7.77a14.06,14.06,0,0,0,8.94,1.7c3.21-.51,6.3.24,9.35,1.2,4.12,1.3,8.24,2.62,12.37,3.87a12.85,12.85,0,0,0,7.25.27,2.65,2.65,0,0,0,2.33-2.67c0-.94.06-1.88.17-2.8.16-1.34.38-2.67.64-4.4a2.07,2.07,0,0,1-.53-.88c-.41-2.05-2.07-2.55-3.7-3.13a4.12,4.12,0,0,0-.42-.1c-2.36-.57-4-1.78-3.61-4.62-2.68-1.27-5.26-2.54-7.88-3.71a5.6,5.6,0,0,0-2.11-.26c-9.37-.15-18.75-.24-28.12-.47a68,68,0,0,1-8.16-.85,12.72,12.72,0,0,1-6.63-3.37,25.6,25.6,0,0,0-5.39-3.52,38.77,38.77,0,0,1-10.86-7.74,28.77,28.77,0,0,1-2.67-3.88c-.48-.71-.95-1.43-1.42-2.14-.63-1-1.24-1.92-1.89-2.86a7.93,7.93,0,0,0-1.3-1.65,13,13,0,0,1-5.1-10.08,8.34,8.34,0,0,0-.66-2.23,2.28,2.28,0,0,0-.3-.57c-.82-1.18.59-2.66-.62-3.88s-.44-2.55-.56-3.87a7.57,7.57,0,0,1,2-5.72,28.35,28.35,0,0,1,2.69-2.53c-.59-1.84.38-3.41,1.92-4.79a2.59,2.59,0,0,0,.84-1.46,10.75,10.75,0,0,1,2.92-6.3c-.57-.42-1-.73-1.45-1.07a3,3,0,0,1,1.85-5.46,5.43,5.43,0,0,1,5.61,6.53c-.16.91-.37,1.81-.53,2.62.14.16.18.25.24.26,1.34.23,2.57.67,2.93,2.16A3.57,3.57,0,0,1,71.94,321a26.46,26.46,0,0,1-3.52,1.93,12.68,12.68,0,0,1-1.53,2.91,16.31,16.31,0,0,1-3.05,2.2c1,2.33,3.07,4.76.54,7.46a4.54,4.54,0,0,0,2.36,3.34A2.78,2.78,0,0,1,68,342a3,3,0,0,0,1.86,3.82c1.39.63,1.49,1.32,1,3.6.72.51,1.49,1,2.22,1.59,2.15,1.63,2.84,4.12,3.57,6.51a3.78,3.78,0,0,0,1.68,2.38c2.87,1.64,5.78,3.23,8.7,4.8a1.71,1.71,0,0,0,1.2,0c3-1,4-.4,4.53,2.77A5.25,5.25,0,0,0,93,368.23Z"/><path class="cls-1" d="M417.62,431c4.19.2,7.59,1.32,9.86,4.23,2.63.16,5.06.35,7.48.43a2.38,2.38,0,0,0,1.49-.64c1-.87,1.8-1.87,2.73-2.77a8.52,8.52,0,0,1,3.89-2.15,5.84,5.84,0,0,0,3.81-2.75c.87-1.71,1.82-3.23,4-3.85a14,14,0,0,0-4-3.64,8.16,8.16,0,0,1-3.81-4.78,3.63,3.63,0,0,1,.91-4.17,55.19,55.19,0,0,1,5.42-4.63,6.4,6.4,0,0,1,3.26-1,16,16,0,0,1,9.18,1.9,5.78,5.78,0,0,0,1.81.52c1.27.25,2.56.39,3.82.67a8.27,8.27,0,0,1,6.22,4.85,11.87,11.87,0,0,0,1.93,2.85,9.44,9.44,0,0,1,1.93,8.72,17.6,17.6,0,0,1-5.35,9.22c-3.32,3.09-6.84,6-10.37,8.82a18.84,18.84,0,0,1-7.42,3.38,87.92,87.92,0,0,0-13.68,4.66c-6.65,2.89-13.6,3.1-20.57,1.59a68.92,68.92,0,0,1-11-3.26,97.41,97.41,0,0,0-16.13-4.75,97.72,97.72,0,0,1-9.91-3,15.47,15.47,0,0,1-2.91-1.42,4.51,4.51,0,0,1-2.29-4.76,11.74,11.74,0,0,1,.54-2.53c1.65-4.76,3.36-9.51,5-14.26a6,6,0,0,1,5.09-4.4c1.21-.17,2.39-.54,3.59-.75a18.34,18.34,0,0,0,7.2-2.73c3.73-2.47,8-2.71,12.29-2.26,2.3.24,3.82,1.93,5.18,3.64a3.43,3.43,0,0,0,2.4,1.51c2.78.4,3.73,2.36,2.54,4.9a16.58,16.58,0,0,1-1.1,1.86,10,10,0,0,0-1.81,5.24,10.58,10.58,0,0,1-.56,2.29Zm-25.83-2,.72,2.86,4.38,2.13a7.34,7.34,0,0,0,1.17.49c4.35,1.23,8.7,2.45,13.07,3.64,1,.27,2,.36,3.23.57a5.83,5.83,0,0,0-3.31-3.5c-2.57-1.19-3-2.57-2-5.25-2.1-3.19-2.44-6.35.29-9.25h-5.09c-1.33,3.78-4.9,2.88-8,3.1C395.5,426.21,394.48,428.31,391.79,429Zm75-2.14.25-5a10.66,10.66,0,0,1-8.33-2.06c.27,2,1.36,3.61.33,5.29a5.42,5.42,0,0,1-4.16,2.84c2.33,1.27,4.22.93,5.74-.86s2.53-1.93,4.52-1Z"/><path class="cls-1" d="M102.16,24c2.2,2.85-2.37,9.32-5.61,10.76-.46.2,4,2.36,3.54,2.49-2.16.6-3.54-1.27-4,1.19-.95,0-1.71,4.24-2.5,4.28a8.14,8.14,0,0,0-4.16,2.26c-.94.91-7.54,1.92-8.32,1.07-1.84-2-3.62-7.35-5.82-5.84-1.36-.61-5.94-1.13-7.53-1.85,1.19-.95-1.21-2.9,0-2.71,1.45.23-3.35-.58-2.54-2s.75-.79,1.23-2.3C67.28,28.55,76.3,9.6,83.9,9.94,91,10.25,100.92,25.19,102.16,24Z"/><path class="cls-1" d="M672.27,98.57l.69-2.21C673.84,97.25,673.84,97.25,672.27,98.57Z"/><path class="cls-2" d="M423.14,539.1l4.9,6.67.36-.07v-6.86c1.47-.85,2.6-1.6,3.81-2.17a12.76,12.76,0,0,1,2.68-.79c2.53-.56,5.07-1.07,7.6-1.62a6.18,6.18,0,0,1,4.41.29,3.91,3.91,0,0,0,4.61-.75c1.1-.94,2.12-1.53,3.69-.82s3.11,0,4.56-.71a2.45,2.45,0,0,1,2.23-.16c2.88,1.23,4.67.72,6.65-1.69l.53-.63c2,1.46,4.66,1.3,6.72,2.92,1.9,1.49,4.11,1.69,6-.33.07-.08.27,0,.55-.06l.42,1.59a28,28,0,0,0-7.46,7.54c-2.17,1-3,3.21-4.41,4.92a6.08,6.08,0,0,0-1.23,2.66,9.35,9.35,0,0,0,.84,5.47c1.1,2.47,2.29,4.91,2.23,7.76a7.18,7.18,0,0,0,1.49,4.86,3.59,3.59,0,0,1,.46,1.81,3.83,3.83,0,0,0,1.46,3,2,2,0,0,1,.83,1.84,12.21,12.21,0,0,0,1.16,4.78,13.2,13.2,0,0,1,.87,3.76c.31,2,.67,4,2.22,5.62-1,2.31-2,4.62-3.08,6.88-.17.36-.8.55-1.26.71a4.39,4.39,0,0,0-3,2.92,4.2,4.2,0,0,1-3.08,2.72,12.84,12.84,0,0,0-2.73,1.21c-1.53.93-3.32,1.71-4.4,3-1.43,1.77-3.48,2.37-5.13,3.63a31.67,31.67,0,0,0-3.09,3.11c-3.11-.37-3.15-.32-4.78,4.85-1,.19-2,.35-2.93.6a4.12,4.12,0,0,0-2.54,1.86,39.06,39.06,0,0,1-2.67,3.58,1.89,1.89,0,0,1-1.16.47c-.86.1-1.73.11-2.59.13-2.51.07-3.08.52-3.74,3-.25.07-.52.17-.79.23s-.56.07-.92.11a4.46,4.46,0,0,0-4.63-2.48c-2.34.24-2.79,2.19-3.59,4a6.76,6.76,0,0,1-2.57-2.89,3.11,3.11,0,0,0-3.26-2,2.87,2.87,0,0,0-3.09,3.11c0,.57,0,1.15,0,1.88-.94-.13-1.22-.52-1.26-1.38-.11-2.37-.91-3.18-3.23-3.39a10.65,10.65,0,0,0-1.94.05c-.64.06-1.28.19-2,.31a6.24,6.24,0,0,0-4.21-2.7c-1.7-.27-3.33-.39-4.62,1.22-.52-.74-.91-1.34-1.34-1.89a10.14,10.14,0,0,0-5.68-4.07c-1-.24-2-.74-3.06-1.05a4.41,4.41,0,0,0-4.48.59,1.44,1.44,0,0,1-2.35-.23,3.51,3.51,0,0,0-3.36-1.88c-.77-.95-1.27-2.06-2.11-2.46s-1.88.09-3.08.2c-.85-.82-1.84-1.87-2.93-2.78s-2.54-.76-4-.17a33.45,33.45,0,0,0-1.68-4c-.67-1.16-1.83-2-1.8-3.55a7,7,0,0,0,1.14-10.22c.16-1.13.28-2.09.43-3.05a3.45,3.45,0,0,1,.29-1c1.32-2.65,1.25-3.23-.6-5.22.33-2.9,1.36-5.58,1.32-8.48a8.87,8.87,0,0,1,1-3.73A17,17,0,0,0,368,560.7c-.06-.64,0-1.28,0-2.06,1.18-.43,2.46-.88,2.46-2.5S369,554,367.78,553.3c.16-1.86-.16-3.58-1.94-4.58.1-3.23-.57-4.16-3.57-5a22.14,22.14,0,0,1-2.3-.58,5,5,0,0,1-1.8-1.12c-1.47-1.58-2.87-3.23-4.25-4.89a21,21,0,0,1-1.32-2,7.09,7.09,0,0,1,4.84-.34c1.34.25,2.69.42,4,.67a3.49,3.49,0,0,1,1.34.51c2.21,1.57,2.57,1.58,4.83.06,1.05.43,2,1.14,3,1.12a8.38,8.38,0,0,0,2.91-1.15c.32-.14.6-.51.92-.54,2.92-.29,5.59-1.81,8.64-1.52a56.42,56.42,0,0,0,7.13.15c1.41,0,2.86-.76,4.21-.58s2.46,1.13,3.71,1.69a2.11,2.11,0,0,0,1.26.2c1.44-.36,2.81.08,4.31.26a4.45,4.45,0,0,0,.84,1.39,4.06,4.06,0,0,0,2.19,1.12,44.36,44.36,0,0,0,5.4-.73,7.12,7.12,0,0,1,5.32,1.21c.35.24.65.57,1,.83C420,540.67,421,540.61,423.14,539.1Z"/><path class="cls-1" d="M391.79,429c2.69-.69,3.72-2.79,4.48-5.22,3.05-.23,6.62.68,8-3.1h5.09c-2.74,2.9-2.39,6.06-.29,9.25-1,2.69-.56,4.07,2,5.25a5.83,5.83,0,0,1,3.31,3.5c-1.19-.2-2.24-.3-3.23-.57-4.36-1.18-8.71-2.41-13.07-3.64a7.34,7.34,0,0,1-1.17-.49l-4.38-2.13Z"/><path class="cls-1" d="M466.82,426.86l-1.65-.75c-2-.94-3.09-.7-4.52,1s-3.41,2.13-5.74.86a5.42,5.42,0,0,0,4.16-2.84c1-1.68-.07-3.29-.33-5.29a10.66,10.66,0,0,0,8.33,2.06Z"/></g></g></svg>