<svg xmlns="http://www.w3.org/2000/svg" viewBox="0 0 93.11 113.29"><defs><style>.cls-1{fill:#fff;}</style></defs><title>perdiem-small</title><g id="Layer_2" data-name="Layer 2"><g id="Layer_1-2" data-name="Layer 1"><g id="Layer_2-2" data-name="Layer 2"><g id="Layer_1-2-2" data-name="Layer 1-2"><path class="cls-1" d="M93.1,56c0,10.8-.1,21.6,0,32.4A7.24,7.24,0,0,1,90.9,94a60.25,60.25,0,0,1-19,13.8,60.81,60.81,0,0,1-13.9,4.4,54.7,54.7,0,0,1-13.4,1,68.17,68.17,0,0,1-7.9-.8,65.1,65.1,0,0,1-9.7-2.3,60,60,0,0,1-7.9-3.3,68.52,68.52,0,0,1-6.9-4c-1.2-.8-2.4-1.8-3.6-2.7a64.66,64.66,0,0,1-7.5-7.3,4.62,4.62,0,0,1-1.1-3V22.13c0-2.6,1.5-3.9,4.2-4s5.6-.1,8.5,0a4.68,4.68,0,0,0,3.7-1.4c2.6-2.4,5.3-4.8,8-7.1,3.4-2.9,6.6-5.9,10.1-8.8a4.35,4.35,0,0,1,5.2.1c2,1.7,4,3.5,6,5.2.5.4.7.6,1.3,0,2-1.8,4.1-3.6,6.2-5.3a4.24,4.24,0,0,1,5.4.3c3,2.7,6,5.2,9,7.9,2.8,2.4,5.6,4.8,8.3,7.3A5.18,5.18,0,0,0,80.1,18c2.8-.2,5.6,0,8.4,0h.9c2.7.5,3.6,1.5,3.6,4.4C93.1,33.73,93.1,44.93,93.1,56ZM46.4,42.43H8.4a2.08,2.08,0,0,0-2.1,1.9v43.3a2.52,2.52,0,0,0,.6,2,54.58,54.58,0,0,0,9.3,8c14.8,9.5,30.6,11.5,47.3,6.4a50.59,50.59,0,0,0,21.8-13.7,3.93,3.93,0,0,0,1.2-3.1V45.13c0-2-.6-2.6-2.6-2.6Zm0-7.2H83.9c1.9,0,2.5-.6,2.6-2.6s0-3.6,0-5.5c0-2.1-.6-2.7-2.6-2.7H8.9c-1.9,0-2.6.6-2.6,2.6v5.5c0,1.8.6,2.6,2.6,2.6ZM22.9,17.73c-.4,1-.3,1.2.7,1.2H52.5s1-.1.3-.8L51.6,17,41,7.63a4.7,4.7,0,0,0-6.1-.1m24.9,11.4h9.6a1,1,0,0,0,.9-1.2v-.1l-.1-.3c-.2-.2-.4-.5-.6-.6l-11-10.1a3.2,3.2,0,0,0-4.6-.1l-.1.1-3.3,3c-.5.4-.5.7,0,1.2"/></g></g></g></g></svg>