<svg xmlns="http://www.w3.org/2000/svg" xmlns:xlink="http://www.w3.org/1999/xlink" viewBox="0 0 443.81 913.52"><defs><style>.cls-1{isolation:isolate;}.cls-2{fill:url(#linear-gradient);}.cls-3{fill:none;}.cls-4{clip-path:url(#clip-path);}.cls-5{mask:url(#mask);}.cls-6{opacity:0.2;}.cls-7{clip-path:url(#clip-path-4);}.cls-8{fill:#fff;}.cls-9{filter:url(#luminosity-invert);}</style><linearGradient id="linear-gradient" x1="-133.76" y1="169.9" x2="-129.33" y2="169.9" gradientTransform="matrix(0, 100, 100, 0, -16768.43, 13846.04)" gradientUnits="userSpaceOnUse"><stop offset="0"/><stop offset="0.06" stop-color="#212121"/><stop offset="0.16" stop-color="#555"/><stop offset="0.26" stop-color="#828282"/><stop offset="0.37" stop-color="#a9a9a9"/><stop offset="0.48" stop-color="#c8c8c8"/><stop offset="0.59" stop-color="#e0e0e0"/><stop offset="0.71" stop-color="#f2f2f2"/><stop offset="0.84" stop-color="#fcfcfc"/><stop offset="1" stop-color="#fff"/></linearGradient><clipPath id="clip-path" transform="translate(0 0)"><rect class="cls-3" width="443.81" height="913.52"/></clipPath><filter id="luminosity-invert" filterUnits="userSpaceOnUse" color-interpolation-filters="sRGB"><feColorMatrix values="-1 0 0 0 1 0 -1 0 0 1 0 0 -1 0 1 0 0 0 1 0"/></filter><mask id="mask" x="0" y="469.72" width="443.81" height="443.8" maskUnits="userSpaceOnUse"><g class="cls-9"><g transform="translate(0 0)"><g class="cls-1"><rect class="cls-2" y="469.72" width="443.81" height="443.8"/></g></g></g></mask><clipPath id="clip-path-4" transform="translate(0 0)"><rect class="cls-3" y="469.72" width="443.81" height="443.8"/></clipPath></defs><title>pie</title><g id="Layer_2" data-name="Layer 2"><g id="Layer_1-2" data-name="Layer 1"><g id="Artwork_28" data-name="Artwork 28"><g class="cls-4"><g class="cls-4"><g class="cls-4"><g class="cls-5"><g class="cls-6"><g class="cls-7"><path class="cls-8" d="M205.3,675v238.5C90.64,904.84,0,808.78,0,691.94,0,569.4,99.69,469.72,222.22,469.72c116.84,0,212.91,90.64,221.59,205.3Z" transform="translate(0 0)"/><path class="cls-8" d="M263.16,888.2V732.87H418.5A207.12,207.12,0,0,1,263.16,888.2m-24,25.32c109.08-8.25,196.42-95.59,204.67-204.66H239.14Z" transform="translate(0 0)"/></g></g></g><path class="cls-8" d="M205.3,238.5V0C90.64,8.68,0,104.74,0,221.58,0,344.12,99.69,443.8,222.22,443.8c116.84,0,212.91-90.64,221.59-205.3Z" transform="translate(0 0)"/><path class="cls-8" d="M263.16,25.31A207.14,207.14,0,0,1,418.5,180.65H263.16ZM239.14,0V204.66H443.81C435.56,95.59,348.22,8.25,239.14,0" transform="translate(0 0)"/></g></g></g></g></g></g></svg>