<svg xmlns="http://www.w3.org/2000/svg" xmlns:xlink="http://www.w3.org/1999/xlink" viewBox="0 0 352.77 364.15"><defs><style>.cls-1{fill:none;}.cls-2{clip-path:url(#clip-path);}.cls-3{clip-path:url(#clip-path-2);}</style><clipPath id="clip-path" transform="translate(0)"><rect class="cls-1" width="352.77" height="364.15"/></clipPath><clipPath id="clip-path-2" transform="translate(0)"><rect class="cls-1" width="352.77" height="364.15"/></clipPath></defs><title>amazon</title><g id="Layer_2" data-name="Layer 2"><g id="Logo"><g id="amazon"><g class="cls-2"><g class="cls-3"><path d="M309.44,299.93a8.35,8.35,0,0,1,5.28-.61q2.24.61,2.24,3.56t-3,6.81a84.51,84.51,0,0,1-8.94,8.84q-6.3,5.59-19.41,13.82a219,219,0,0,1-28.65,15q-15.55,6.81-38.2,11.79a216.68,216.68,0,0,1-46.64,5,191.16,191.16,0,0,1-48.36-6.3A213.47,213.47,0,0,1,81.24,342.3a275.09,275.09,0,0,1-35.05-21.13,267.1,267.1,0,0,1-26.93-21.34A192.78,192.78,0,0,1,2.19,282.05a8.69,8.69,0,0,1-2-3.35,2.92,2.92,0,0,1,.2-2.44A4.14,4.14,0,0,1,2,274.84a4.38,4.38,0,0,1,2.34-.41,4.17,4.17,0,0,1,2.34.91q39,23.78,61,33.73,79,35.76,162.36,18.29,38.61-8.13,79.45-27.43m42.06-23.37q2.24,3.25.51,14.12a93.93,93.93,0,0,1-5.79,20.83q-6.91,16.87-17.27,25.2-3.45,2.84-5.28,1.83t0-4.88a197.92,197.92,0,0,0,9-24.69q4.78-15.55,1.32-20a7.26,7.26,0,0,0-3.15-2.34,18.32,18.32,0,0,0-5.49-1.22q-3.35-.3-6-.51a61.23,61.23,0,0,0-7.11,0q-4.47.2-6.4.41t-6.3.61q-4.37.41-4.57.41-1.22.2-2.64.3t-2.24.2l-1.73.2a13.78,13.78,0,0,1-1.42.1h-2l-.61-.1-.41-.3-.3-.61q-1.22-3.25,9.55-8.13a71.44,71.44,0,0,1,20.93-6.1,90,90,0,0,1,21.95-.2q12.6,1.22,15.44,4.88m-80.06-90a34.25,34.25,0,0,0,2.74,13,54.24,54.24,0,0,0,6.5,11.79q3.76,5.08,7.62,9.35a57.39,57.39,0,0,0,6.71,6.5l2.64,2.24-46.13,45.52q-8.13-7.52-16.05-15.34t-11.79-11.89l-3.86-4.06a40.4,40.4,0,0,1-5.08-6.71,78.08,78.08,0,0,1-19.81,20.83A83.66,83.66,0,0,1,169,270.67a117.82,117.82,0,0,1-28.45,4.67,71.74,71.74,0,0,1-27.94-4.27,84.66,84.66,0,0,1-23.88-13.31q-10.57-8.43-16.87-23t-6.3-33a83.53,83.53,0,0,1,5.69-31.29,73.93,73.93,0,0,1,14.63-23.67A96.57,96.57,0,0,1,107.56,130a138.09,138.09,0,0,1,24.89-11.58,207.76,207.76,0,0,1,26.42-7,235.91,235.91,0,0,1,24.28-3.76q10.06-.91,20.22-1.32V80.47q0-13.21-4.27-19.71Q192.19,50,174.51,50q-1.22,0-3.35.2a42,42,0,0,0-8.23,2.44,48.1,48.1,0,0,0-11.38,6q-5.28,3.76-11.38,12.09a69.23,69.23,0,0,0-9.75,19.51L70.68,84.74a68.75,68.75,0,0,1,4.47-24.18,79,79,0,0,1,13.61-23,97.62,97.62,0,0,1,21.95-19.3Q123.51,10,141.49,5A144.6,144.6,0,0,1,180.2,0,124.44,124.44,0,0,1,217,5.08q16.46,5.08,26.32,12.5a74.58,74.58,0,0,1,16.46,16.87,66.08,66.08,0,0,1,9.14,17.48,49.7,49.7,0,0,1,2.54,14.94Zm-136.56,4.27q0,17.48,14.22,27,13.41,8.94,28.25,4.47,17.07-5.08,23.17-25a69,69,0,0,0,2.84-20.52V143.87a145.57,145.57,0,0,0-22.56,2.44,104.65,104.65,0,0,0-21.64,6.81,40.24,40.24,0,0,0-17.68,14.43q-6.6,9.65-6.6,23.27" transform="translate(0)"/></g></g></g></g></g></svg>