<svg xmlns="http://www.w3.org/2000/svg" viewBox="0 0 297.53 355.42"><title>apple</title><g id="Layer_2" data-name="Layer 2"><g id="Logo"><g id="apple"><path d="M297.53,259.52q-8.33,26.7-26.27,53.4-27.55,41.86-54.89,41.86-10.47,0-29.9-6.83-18.37-6.83-32.25-6.83-13,0-30.33,7-17.3,7.26-28.19,7.26-32.47,0-64.29-55.32Q0,244.35,0,192.66,0,144,24.14,112.78,48.06,82,84.8,82q15.38,0,37.81,6.41,22.21,6.41,29.48,6.41,9.61,0,30.54-7.26,21.79-7.26,37-7.26,25.42,0,45.5,13.88,11.11,7.69,22.21,21.36-16.87,14.31-24.35,25.2A76.06,76.06,0,0,0,249,185a81.34,81.34,0,0,0,14.74,47.63Q278.52,253.75,297.53,259.52ZM217.22,9q0,13-6.19,29A87.66,87.66,0,0,1,191.17,67.5Q179.63,79,168.1,82.87q-7.9,2.35-22.21,3.63.64-31.83,16.66-54.89Q178.35,8.76,215.94,0a20.85,20.85,0,0,1,.53,2.35A20.85,20.85,0,0,0,217,4.7q0,.85.11,2.14T217.22,9Z"/></g></g></g></svg>