<svg xmlns="http://www.w3.org/2000/svg" xmlns:xlink="http://www.w3.org/1999/xlink" viewBox="0 0 328.28 335.04"><defs><style>.cls-1{fill:none;}.cls-2{clip-path:url(#clip-path);}</style><clipPath id="clip-path" transform="translate(0 0)"><rect class="cls-1" width="328.28" height="335.04"/></clipPath></defs><title>google</title><g id="Layer_2" data-name="Layer 2"><g id="Logo"><g id="google"><g class="cls-2"><g class="cls-2"><path d="M167.52,143.53H325.66a158.48,158.48,0,0,1,2.62,27.92q0,47.33-19.85,84.52a143.31,143.31,0,0,1-56.6,58.13Q215.07,335,167.52,335a164.68,164.68,0,0,1-65.22-13.2,164.19,164.19,0,0,1-89.1-89.1,167.76,167.76,0,0,1,0-130.44,164.19,164.19,0,0,1,89.1-89.1A164.68,164.68,0,0,1,167.52,0Q233,0,279.85,43.84L234.27,87.69q-26.83-26-66.75-26a100.09,100.09,0,0,0-52,14.18,105.94,105.94,0,0,0-51.8,91.61,105.94,105.94,0,0,0,51.8,91.61,100.09,100.09,0,0,0,52,14.18,111.2,111.2,0,0,0,34.9-5.24q15.92-5.24,26.18-13.09a94.7,94.7,0,0,0,17.89-17.89,83.35,83.35,0,0,0,11.23-19,80.14,80.14,0,0,0,4.91-17h-95.1Z" transform="translate(0 0)"/></g></g></g></g></g></svg>