<svg xmlns="http://www.w3.org/2000/svg" viewBox="0 0 328.35 328.45"><defs><style>.cls-1{fill:#fff;}</style></defs><title>itunes</title><g id="Layer_2" data-name="Layer 2"><g id="Logo"><path class="cls-1" d="M162.8,328.45c45.45-.41,83.41-15.41,114.84-45.62,32.49-31.23,49.44-69.94,50.64-114.93,1.18-44-13.35-82.65-43.26-114.92C252.88,18.29,212.58.45,165.35,0,119.86-.42,80.4,15.81,48.16,47.91,17.87,78.06,1.62,115,.12,157.76c-1.62,46.11,13.49,86.48,45.43,119.83C77.83,311.3,117.88,327.85,162.8,328.45Z"/><path d="M162.8,328.45c-44.92-.6-85-17.16-117.25-50.86C13.61,244.25-1.5,203.88.12,157.76c1.5-42.77,17.76-79.71,48-109.86C80.4,15.81,119.86-.42,165.35,0,212.58.45,252.88,18.29,285,53c29.91,32.27,44.44,71,43.26,114.92-1.21,45-18.16,83.71-50.64,114.93C246.21,313,208.25,328,162.8,328.45ZM252.65,51.33c-.83-.05-1.2-.11-1.57-.09-5,.21-10,.42-15,.66-4.08.2-8.15.43-12.22.66-1.57.09-3.15.18-4.71.35-3.65.4-7.29.87-10.94,1.28-3.17.36-6.36.58-9.51,1q-8.06,1.18-16.09,2.6c-5.5,1-11,1.9-16.47,3.11-6.49,1.44-13,2.94-19.34,4.83-10.17,3-20.25,6.32-30.33,9.64-2,.65-3.15,2-3.15,4.73q.06,67.61,0,135.22v2.28c-.69-.1-1.22-.14-1.72-.26-6-1.49-12-2.56-18.27-1.82a40.9,40.9,0,0,0-17,5.89c-5.89,3.65-10.86,8.21-14.2,14.32a29.1,29.1,0,0,0-3.14,18.84c1.56,10.14,7.12,17.38,16.18,21.92,8.11,4.06,16.71,4.83,25.58,3.33a35.43,35.43,0,0,0,22.52-13.12,39.09,39.09,0,0,0,8.45-24.62c.19-34.53.07-69.07.09-103.6,0-1.73-.51-4,.37-5.05s3.23-1.11,5-1.52c9.76-2.31,19.5-4.68,29.28-6.87,5.66-1.27,11.36-2.34,17.08-3.31,6-1,12-1.88,18.06-2.66,6.69-.86,13.41-1.55,20.12-2.31,1.77-.2,3.53-.51,5.31-.61,2-.11,4.08,0,6.19,0v75.59c-2.94-.65-5.81-1.31-8.69-1.93a38.94,38.94,0,0,0-15-.16c-8.23,1.46-15.22,5.52-21.26,11.2a32.12,32.12,0,0,0-9.9,17.62,28.59,28.59,0,0,0,1.14,15.37c2.68,7.34,8,12.31,14.53,16.14,7.78,4.55,16.15,5.46,24.91,3.85a45.69,45.69,0,0,0,21-9.6c8.11-6.65,11.88-15.59,12-25.9.28-21.61.28-43.22.38-64.83q.18-38,.33-76c0-4.12,0-8.24,0-12.35Z"/><path class="cls-1" d="M252.65,51.33V65.12c0,4.12,0,8.24,0,12.35q-.16,38-.33,76c-.1,21.61-.1,43.22-.38,64.83-.13,10.31-3.91,19.25-12,25.9a45.69,45.69,0,0,1-21,9.6c-8.76,1.61-17.13.7-24.91-3.85-6.54-3.83-11.85-8.8-14.53-16.14a28.59,28.59,0,0,1-1.14-15.37,32.12,32.12,0,0,1,9.9-17.62c6-5.68,13-9.74,21.26-11.2a38.94,38.94,0,0,1,15,.16c2.88.61,5.74,1.27,8.69,1.93V116.15c-2.11,0-4.15-.08-6.19,0-1.77.09-3.54.4-5.31.61-6.71.77-13.43,1.45-20.12,2.31-6,.78-12.06,1.65-18.06,2.66-5.72,1-11.42,2-17.08,3.31-9.78,2.19-19.53,4.56-29.28,6.87-1.72.41-4,.41-5,1.52s-.37,3.32-.37,5.05c0,34.53.1,69.07-.09,103.6a39.09,39.09,0,0,1-8.45,24.62,35.43,35.43,0,0,1-22.52,13.12c-8.88,1.5-17.48.73-25.58-3.33C66.06,272,60.51,264.73,58.95,254.6a29.1,29.1,0,0,1,3.14-18.84c3.34-6.11,8.3-10.68,14.2-14.32a40.9,40.9,0,0,1,17-5.89c6.27-.74,12.27.34,18.27,1.82.5.12,1,.16,1.72.26v-2.28q0-67.61,0-135.22c0-2.77,1.17-4.07,3.15-4.73,10.08-3.32,20.16-6.62,30.33-9.64,6.37-1.89,12.86-3.39,19.34-4.83,5.45-1.21,11-2.15,16.47-3.11q8-1.41,16.09-2.6c3.15-.46,6.34-.68,9.51-1,3.65-.41,7.29-.88,10.94-1.28,1.56-.17,3.14-.26,4.71-.35,4.07-.23,8.15-.47,12.22-.66,5-.24,10-.45,15-.66C251.45,51.22,251.82,51.28,252.65,51.33Z"/></g></g></svg>