<svg xmlns="http://www.w3.org/2000/svg" viewBox="0 0 275.67 275.67"><title>spotify</title><g id="Layer_2" data-name="Layer 2"><g id="Logo"><path id="spotify" d="M202.27,194.19q0-5.74-5.38-9.15-34.64-20.64-80.22-20.64a239.78,239.78,0,0,0-51.51,6.1q-7.54,1.62-7.54,9.33A8.78,8.78,0,0,0,60,186a8.3,8.3,0,0,0,6.37,2.6A52.54,52.54,0,0,0,73,187.19a218.84,218.84,0,0,1,43.61-4.85q40.56,0,71.25,18.49a12.3,12.3,0,0,0,5.92,2,8.43,8.43,0,0,0,8.44-8.61ZM219.5,155.6a12,12,0,0,0-6.28-10.95q-42.54-25.31-98.35-25.31a200.8,200.8,0,0,0-54.38,7.54q-8.61,2.33-8.61,11.49a10.72,10.72,0,0,0,10.77,10.77,39.12,39.12,0,0,0,6.64-1.44,171.76,171.76,0,0,1,45-5.92q50.07,0,87.58,22.25,4.31,2.33,6.82,2.33A10.72,10.72,0,0,0,219.5,155.6Zm19.38-44.51a13.55,13.55,0,0,0-7.18-12.56q-22.61-13.1-52.59-19.83A280.11,280.11,0,0,0,117.56,72Q80.94,72,52.23,80.4A14.25,14.25,0,0,0,45.32,85a13.1,13.1,0,0,0-2.78,8.7A12.84,12.84,0,0,0,46.21,103a12.38,12.38,0,0,0,9.24,3.77,32.8,32.8,0,0,0,7.18-1.44q23.87-6.64,55.1-6.64a251.3,251.3,0,0,1,55.55,6.1q27,6.1,45.5,17.05A14.52,14.52,0,0,0,226,124a12.71,12.71,0,0,0,9.06-3.68A12.24,12.24,0,0,0,238.88,111.09Zm36.79,26.74A134.84,134.84,0,0,1,257.19,207,137.22,137.22,0,0,1,207,257.19a134.84,134.84,0,0,1-69.19,18.49,134.84,134.84,0,0,1-69.19-18.49A137.22,137.22,0,0,1,18.49,207,134.84,134.84,0,0,1,0,137.84,134.84,134.84,0,0,1,18.49,68.65,137.22,137.22,0,0,1,68.65,18.49,134.84,134.84,0,0,1,137.84,0,134.84,134.84,0,0,1,207,18.49a137.22,137.22,0,0,1,50.16,50.16A134.84,134.84,0,0,1,275.67,137.84Z"/></g></g></svg>