<svg xmlns="http://www.w3.org/2000/svg" xmlns:xlink="http://www.w3.org/1999/xlink" viewBox="0 0 355.42 355.42"><defs><style>.cls-1{fill:none;}.cls-2{clip-path:url(#clip-path);}.cls-3{fill:#010101;}</style><clipPath id="clip-path"><rect class="cls-1" width="355.42" height="355.42"/></clipPath></defs><title>tidal</title><g id="Layer_2" data-name="Layer 2"><g id="Logo"><g id="tidal"><g class="cls-2"><g class="cls-2"><path class="cls-3" d="M177.74,355.42H4.26c-3.55,0-4.26-.71-4.26-4.26V4.26C0,.71.71,0,4.26,0H351.16c3.55,0,4.26.71,4.26,4.26V351.16c0,3.55-.71,4.26-4.26,4.26q-86.67-.14-173.41,0m48.52-228.54c2.77-1.35,3.84,1.14,5.19,2.56,14.63,14.56,29.34,29.13,43.76,44,2.84,2.91,4.26,2.7,7.1,0q22.09-22.59,44.61-44.83c2.42-2.42,2.27-3.62,0-6q-22.45-22.24-44.61-44.83c-2.7-2.77-4.12-2.7-7.1,0-14.21,14.78-29.13,29.34-43.83,44-1.35,1.35-2.27,4.12-5.19,2.63q-23.58-23.87-47.1-47.81a2.42,2.42,0,0,0-3.3-.9,2.46,2.46,0,0,0-.9.9q-23.44,24-47,47.88c-2.84,1.35-3.77-1.35-5.11-2.7-14.63-14.56-29.34-29.2-43.76-44-2.7-2.77-4.12-2.91-7.1,0Q49.8,100.38,27.28,122.62c-2.42,2.42-2.42,3.62,0,6q22.45,22.24,44.61,44.83c2.7,2.77,4.12,2.84,7.1,0,14.21-14.78,29.13-29.34,43.76-44,1.42-1.42,2.49-3.84,5.26-2.42l49,46.89ZM227.4,228a4.69,4.69,0,0,0-2.34-3.48c-15-15.13-30.12-30.19-45-45.4-2.49-2.56-3.77-2-6,0q-22.24,22.59-44.68,44.9c-2.63,2.56-2.63,3.91,0,6.46q22.52,22.24,44.68,44.83c2.2,2.2,3.48,2.77,6,0,14.92-15.2,30-30.26,45-45.4Z"/></g></g></g></g></g></svg>