<svg xmlns="http://www.w3.org/2000/svg" xmlns:xlink="http://www.w3.org/1999/xlink" viewBox="0 0 355.42 253.87"><defs><style>.cls-1{fill:none;}.cls-2{clip-path:url(#clip-path);}</style><clipPath id="clip-path"><rect class="cls-1" width="355.42" height="253.87"/></clipPath></defs><title>youtube</title><g id="Layer_2" data-name="Layer 2"><g id="Logo"><g id="youtube"><g class="cls-2"><g class="cls-2"><path d="M253.87,126.94q0-7.34-6-10.71L146.37,52.76q-6.15-4-12.89-.4a11.82,11.82,0,0,0-6.55,11.11V190.4a11.82,11.82,0,0,0,6.55,11.11,13.72,13.72,0,0,0,6.15,1.59,11.3,11.3,0,0,0,6.74-2l101.55-63.47q6-3.37,6-10.71m101.55,0q0,19-.2,29.75t-1.69,27.07A219.21,219.21,0,0,1,349.07,213a46.4,46.4,0,0,1-13.69,24.4,41.82,41.82,0,0,1-24.59,11.5q-44,5-133.08,5t-133.08-5a42.28,42.28,0,0,1-24.69-11.5A46.11,46.11,0,0,1,6.15,213a245.51,245.51,0,0,1-4.26-29.25Q.4,167.4.2,156.69T0,126.94q0-19,.2-29.75T1.88,70.11A219.21,219.21,0,0,1,6.35,40.86,46.4,46.4,0,0,1,20,16.46,41.82,41.82,0,0,1,44.63,5q44-5,133.08-5T310.79,5a42.28,42.28,0,0,1,24.69,11.5,46.11,46.11,0,0,1,13.78,24.4,245.51,245.51,0,0,1,4.26,29.25q1.49,16.36,1.69,27.07t.2,29.75"/></g></g></g></g></g></svg>